<svg width="91" height="44" viewBox="0 0 91 44" fill="none" xmlns="http://www.w3.org/2000/svg">
<path fill-rule="evenodd" clip-rule="evenodd" d="M42.515 0.0608365C27.0733 0.886562 12.8525 6.47933 5.31344 14.6916C0.458203 19.9803 -1.16647 26.1723 0.840501 31.7382C2.48982 36.3121 6.98078 40.7302 12.9918 43.6921L13.6167 44H45.4224H77.2281L78.1831 43.4946C82.3862 41.27 85.7808 38.2997 88.1367 34.7848C91.894 29.1792 91.9534 23.607 88.3155 17.9973C86.5969 15.3472 84.5575 13.2156 81.5171 10.8915C74.349 5.4123 64.2263 1.63831 53.3715 0.398169C50.4089 0.0597269 45.4295 -0.095032 42.515 0.0608365ZM47.5877 4.42212C57.4169 4.80236 66.4955 7.25187 73.6621 11.4571C78.5053 14.2992 82.2238 17.9462 83.9505 21.5481C84.4265 22.541 84.9031 24.0391 85.0442 24.9854C85.2042 26.0594 85.1134 28.042 84.8544 29.1307C83.9052 33.1209 80.6501 36.7472 75.5652 39.4789L74.8609 39.8573H45.2104H15.5598L14.815 39.4424C9.29893 36.369 6.22538 32.5587 5.58973 28.0055C4.93996 23.3514 7.59225 18.4077 13.0261 14.1447C19.6589 8.94112 29.3234 5.50395 39.8427 4.60736C42.5786 4.37418 44.9083 4.31848 47.5877 4.42212ZM42.6573 7.12981C42.4747 7.14564 41.9734 7.17849 41.5432 7.20275L40.7609 7.24699V22.1836V37.1202H46.08C52.0059 37.1202 51.8165 37.1356 52.2595 36.6154C52.7868 35.9963 52.7551 36.9006 52.7551 22.4728V9.12007L52.5092 8.7132C52.0418 7.94022 51.0499 7.37519 49.8953 7.22435C49.3493 7.15296 43.3015 7.07403 42.6573 7.12981ZM33.6972 8.11547C31.2722 8.5995 28.4499 9.38491 26.1356 10.2198L25.4008 10.4849V23.8026V37.1202H27.7712H30.1416V30.4712V23.8224L30.4023 23.7431C30.9028 23.591 31.6951 23.4345 31.965 23.4345C32.3178 23.4345 32.7289 23.6031 32.9777 23.8499C33.1751 24.0457 33.1757 24.0662 33.1757 30.5833V37.1202H35.4512H37.7268V29.5151V21.91L37.4532 21.5734C37.2996 21.3844 36.9672 21.1293 36.6951 20.9918L36.2107 20.747L36.6313 20.5557C36.8626 20.4505 37.1406 20.2751 37.2491 20.1659C37.7228 19.689 37.7198 19.7281 37.7305 14.0412C37.7421 7.96042 37.7924 8.34473 36.9408 8.01361C36.2292 7.73694 35.4749 7.76061 33.6972 8.11547ZM55.8367 22.4714V37.1202H60.056H64.2753V35.5667V34.0132H62.379H60.4826V28.9088C60.4826 25.3695 60.5134 23.8044 60.583 23.8044C60.847 23.8044 62.7533 24.147 63.919 24.4039C64.99 24.6401 68.1125 25.4248 68.7553 25.6194C68.9104 25.6663 68.9213 25.5597 68.9213 23.9946V22.3196L68.4709 22.1672C67.0991 21.7029 64.6765 21.1035 62.0945 20.5893L60.5301 20.2779L60.5055 16.5955L60.4808 12.9131L60.8374 12.9647C61.3749 13.0425 63.077 13.4823 64.1135 13.8114L65.0338 14.1035V12.1536V10.2036L64.4886 10.0059C62.4146 9.25412 58.8437 8.34421 56.0974 7.86787L55.8367 7.82267V22.4714ZM47.7915 10.6425C48.2675 10.8413 48.2514 10.4409 48.2514 22.0735C48.2514 30.1755 48.2231 32.9969 48.1399 33.2137C48.0785 33.3734 47.903 33.5864 47.7498 33.687C47.4848 33.8609 47.4195 33.8689 46.4154 33.8491L45.3595 33.8282L45.3355 22.1954L45.3115 10.5626H46.4559C47.0943 10.5626 47.6848 10.598 47.7915 10.6425ZM67.1599 11.1233C67.1977 11.2422 68.4235 14.3819 69.8838 18.1007C71.3442 21.8195 72.5199 24.9154 72.4965 24.9806C72.4732 25.0457 71.099 27.5458 69.4429 30.5363C67.7869 33.5268 66.2895 36.2316 66.1157 36.5469L65.7995 37.1202L68.2374 37.1197L70.6754 37.1194L72.609 33.6387C73.6725 31.7243 74.5705 30.1849 74.6045 30.2177C74.6386 30.2505 75.1538 31.4341 75.7496 32.848C76.3454 34.262 76.86 35.4187 76.8932 35.4187C77.0143 35.4187 78.5657 34.1082 79.1269 33.532C79.8076 32.8327 80.299 32.2252 80.2997 32.0816C80.3 32.0251 79.6134 30.4272 78.774 28.5308L77.2476 25.0829L78.5838 22.5476C79.3187 21.1532 79.9198 19.9584 79.9196 19.8925C79.9191 19.6393 78.8455 18.414 77.612 17.2585C77.3073 16.9731 77.028 16.7308 76.9912 16.72C76.9544 16.7092 76.6937 17.1086 76.4117 17.6077C75.563 19.1102 75.2623 19.6033 75.2163 19.5675C75.1923 19.5487 74.6917 18.2556 74.1038 16.6939L73.035 13.8546L71.9299 13.2247C70.8904 12.6324 69.2309 11.8245 67.7454 11.1877L67.0911 10.9073L67.1599 11.1233ZM21.1815 11.9885C18.6247 13.2378 16.7478 14.3653 14.9412 15.7369C11.149 18.6161 9.00387 21.6875 8.52002 24.9308C8.3594 26.0074 8.4508 27.8419 8.70908 28.7239C9.28348 30.6858 10.3896 32.4341 12.1078 34.0957C12.6402 34.6106 14.2944 35.8999 14.3556 35.8477C14.3698 35.8355 14.8697 35.1404 15.4664 34.3029L16.5515 32.7803L15.9986 32.2094C15.6945 31.8954 15.2089 31.3246 14.9193 30.9408C14.302 30.1222 13.4418 28.7463 13.512 28.6895C13.5388 28.6677 14.5075 28.2639 15.6645 27.7921L17.7681 26.9343L17.7924 32.0273L17.8168 37.1202H20.0443H22.2718V24.3222C22.2718 17.2834 22.2398 11.5245 22.2007 11.5248C22.1617 11.525 21.7029 11.7337 21.1815 11.9885ZM32.9319 12.3063C33.0628 12.4085 33.0808 12.817 33.0808 15.6759C33.0808 18.3851 33.0577 18.9643 32.9422 19.1384C32.7918 19.3654 32.5481 19.458 31.066 19.8508L30.1416 20.0958V16.5912C30.1416 13.8676 30.168 13.0737 30.2601 13.0288C30.6267 12.8502 32.4851 12.1901 32.6215 12.1901C32.7102 12.1901 32.8499 12.2424 32.9319 12.3063ZM17.9085 20.7159L17.9068 22.9537L15.5618 23.9326C13.9813 24.5924 13.2077 24.879 13.1887 24.8117C13.1732 24.7567 13.2433 24.3955 13.3445 24.0089C13.663 22.7923 14.4067 21.575 15.5774 20.3536C16.0571 19.853 17.7196 18.4781 17.8451 18.4781C17.8809 18.4781 17.9095 19.4851 17.9085 20.7159Z" fill="#020A18" fill-opacity="0.8"/>
</svg>
