<svg width="101" height="35" viewBox="0 0 101 35" fill="none" xmlns="http://www.w3.org/2000/svg">
<path opacity="0.8" fill-rule="evenodd" clip-rule="evenodd" d="M75.6658 0.135006C73.8014 0.477716 72.7508 0.945636 71.7022 1.90021C70.0665 3.3893 69.5887 5.57128 70.5012 7.38573C70.843 8.06546 71.923 9.0218 72.9328 9.53872C73.3611 9.75812 74.9797 10.2878 76.5296 10.7159C78.0796 11.144 79.5095 11.5747 79.7072 11.6732C80.247 11.942 80.6159 12.4654 80.6159 12.9629C80.6159 14.1837 78.3059 14.8126 76.7063 14.027C76.011 13.6854 75.6812 13.2695 75.4866 12.4887L75.3293 11.8572H72.5148H69.7005V12.337C69.7005 13.0486 70.0542 14.2263 70.486 14.9531C71.3196 16.3555 72.7359 17.3647 74.6979 17.9542C75.5742 18.2175 75.9411 18.2506 77.9857 18.2506C79.7757 18.2506 80.4771 18.2008 81.1419 18.0268C84.4197 17.1693 86.3027 14.9104 86.1113 12.0656C86.035 10.9308 85.6856 10.157 84.8709 9.31868C83.8022 8.21877 83.1506 7.94012 79.3819 6.97124C76.2394 6.16339 75.6185 5.82208 75.6185 4.90244C75.6185 4.16638 76.3308 3.75467 77.6039 3.75467C78.9174 3.75467 79.8602 4.32514 80.0358 5.22604L80.1192 5.6537H82.8844H85.6498L85.579 4.90156C85.3771 2.75857 83.5846 0.997162 80.9202 0.323642C79.5902 -0.0124854 76.9784 -0.106297 75.6658 0.135006ZM0 9.19854V17.9358L9.04134 17.9033L18.0827 17.8707V9.19854V0.526331L9.04134 0.493794L0 0.461258V9.19854ZM36.1654 9.1279V17.8074H41.9242C46.6738 17.8074 47.8186 17.7734 48.457 17.6134C50.1635 17.1855 51.42 16.2187 52.121 14.7945C52.4994 14.0256 52.5383 13.8334 52.537 12.7434C52.5358 11.7626 52.4798 11.4215 52.2334 10.8951C51.8805 10.141 51.0736 9.34223 50.237 8.91875C49.9115 8.75404 49.6437 8.56439 49.642 8.49742C49.6405 8.43045 49.921 8.16104 50.2656 7.89872C51.4444 7.00188 51.9044 5.54697 51.4975 4.00332C51.1013 2.49992 50.0309 1.38456 48.4238 0.80055C47.703 0.538485 47.4391 0.525825 41.9189 0.487971L36.1654 0.448471V9.1279ZM58.3405 0.565324C58.3044 0.621535 56.8562 4.36742 55.1222 8.88938C53.3882 13.4113 51.9062 17.2689 51.8289 17.4617L51.6882 17.8121L54.6748 17.7782L57.6614 17.7441L58.0028 16.5414L58.3442 15.3387L61.169 15.3047L63.994 15.2706L64.3833 16.5074L64.7727 17.7441L67.7626 17.7782C69.4071 17.7969 70.7526 17.7853 70.7526 17.7522C70.7526 17.7016 65.2958 3.38107 64.4419 1.19099L64.1581 0.46303H61.2821C59.7003 0.46303 58.3766 0.508987 58.3405 0.565324ZM87.1459 1.50749C87.0995 2.08201 87.0611 5.98438 87.0607 10.1797L87.0599 17.8074H89.819H92.5779L92.6136 15.1805L92.6491 12.5535L96.3643 12.5198L100.079 12.4863V10.3359V8.18573H96.3971H92.7148V6.60321V5.02069H96.8574H101V2.74186V0.46303H94.1152H87.2303L87.1459 1.50749ZM45.7656 4.67544C45.9465 4.76191 46.2033 5.04689 46.3364 5.30858C46.5522 5.73295 46.5593 5.84221 46.4021 6.32038C46.1271 7.15696 45.7053 7.29914 43.4971 7.29926L41.6888 7.29952V5.9069V4.51428L43.5628 4.51618C44.7889 4.51732 45.5505 4.57239 45.7656 4.67544ZM12.4935 9.13524V12.4902H9.00846H5.52344V9.21968C5.52344 7.4208 5.56289 5.91108 5.61116 5.86474C5.65929 5.81828 7.22755 5.7803 9.09618 5.7803H12.4935V9.13524ZM23.6719 9.13309V12.4902H27.1591H30.6463L30.6113 9.16689L30.5762 5.8436L27.124 5.8098L23.6719 5.77612V9.13309ZM62.7305 11.3822C62.7305 11.4346 62.0203 11.4774 61.1523 11.4774C59.7731 11.4774 59.5742 11.451 59.5742 11.2683C59.5742 11.0754 60.8115 6.33658 60.974 5.9069C61.0319 5.75371 62.7305 11.0484 62.7305 11.3822ZM46.4275 11.0364C47.4245 11.5327 47.4487 12.8802 46.4738 13.6185C46.1511 13.8628 45.9568 13.8828 43.9067 13.8828H41.6888V12.3636V10.8444H43.8653C45.5535 10.8444 46.1282 10.8874 46.4275 11.0364ZM0.999216 29.0433C1.53354 31.0453 1.97108 32.7291 1.9716 32.7853C1.97226 32.8416 2.2195 32.8701 2.52119 32.8486L3.06958 32.8097L3.94466 29.7408C4.42585 28.0528 4.85037 26.6423 4.88785 26.6063C4.92533 26.5702 5.35918 27.9655 5.85182 29.7069L6.7478 32.873H7.2432C7.83434 32.873 7.686 33.2347 8.87814 28.8851C9.35513 27.1443 9.77004 25.6489 9.80029 25.5618C9.83764 25.4538 9.69692 25.4035 9.35684 25.4035H8.85854L8.08197 28.5021C7.65483 30.2063 7.26911 31.5594 7.22466 31.5089C7.18021 31.4584 6.80067 30.1638 6.38128 28.6319C5.96189 27.1 5.59038 25.747 5.55579 25.6251C5.50831 25.4584 5.35458 25.4035 4.93467 25.4035H4.37667L3.55354 28.347C3.10075 29.9659 2.68952 31.3637 2.63968 31.4531C2.58944 31.5431 2.44294 31.1756 2.31156 30.6302C2.1811 30.0882 1.83878 28.6905 1.55103 27.5241L1.02789 25.4035H0.527751H0.0277487L0.999216 29.0433ZM59.0482 29.1383V32.873H59.4427H59.8372L59.8478 31.3222C59.8613 29.3512 60.0202 28.7341 60.6129 28.351C61.2153 27.9615 61.9447 27.9682 62.4272 28.3675L62.7962 28.6729L62.8404 30.773L62.8846 32.873H63.2678H63.651L63.6505 30.6892C63.6501 28.7465 63.6217 28.4605 63.3933 28.1C62.7674 27.1118 61.1684 27.0137 60.1989 27.9041L59.8372 28.2361V26.8198V25.4035H59.4427H59.0482V29.1383ZM80.6159 25.91C80.6159 26.4043 80.6268 26.4164 81.0762 26.4164C81.5255 26.4164 81.5365 26.4043 81.5365 25.91C81.5365 25.4156 81.5255 25.4035 81.0762 25.4035C80.6268 25.4035 80.6159 25.4156 80.6159 25.91ZM40.8997 26.6063V27.4292H40.4395C40.0157 27.4292 39.9792 27.4593 39.9792 27.809C39.9792 28.1573 40.0167 28.1888 40.4306 28.1888H40.882L40.9238 30.2735C40.9731 32.7401 40.9882 32.7706 42.1707 32.7943C42.9147 32.8092 42.9395 32.7991 42.9797 32.4616C43.0169 32.1506 42.9794 32.1134 42.6288 32.1134C41.8115 32.1134 41.8203 32.1357 41.8203 30.0743V28.1888H42.4121C42.9819 28.1888 43.0039 28.1747 43.0039 27.809C43.0039 27.4432 42.9819 27.4292 42.4121 27.4292H41.8203V26.6063V25.7833H41.36H40.8997V26.6063ZM89.0326 26.6063V27.4292H88.5723C88.1485 27.4292 88.112 27.4593 88.112 27.809C88.112 28.1586 88.1485 28.1888 88.5723 28.1888H89.0326V30.2004C89.0326 32.6355 89.0862 32.7512 90.2601 32.8449L91.0052 32.9044V32.5165C91.0052 32.1598 90.9658 32.1256 90.512 32.0894L90.0189 32.0501L89.9826 30.1195L89.9463 28.1888H90.4758C90.9764 28.1888 91.0052 28.1681 91.0052 27.809C91.0052 27.4503 90.976 27.4292 90.4792 27.4292H89.9531V26.6063V25.7833H89.4928H89.0326V26.6063ZM11.3757 27.5418C10.3422 28.001 9.86328 28.8274 9.86328 30.1511C9.86328 31.6018 10.4609 32.4856 11.671 32.8242C12.8983 33.1676 14.1965 32.7261 14.6472 31.812C14.9454 31.207 14.9178 31.1006 14.4621 31.1006C14.201 31.1006 14.0353 31.1771 13.9822 31.3222C13.72 32.0373 12.859 32.3855 11.9798 32.1319C11.3227 31.9424 10.9091 31.4881 10.8215 30.8598L10.7493 30.341H12.8876H15.0261L14.9363 29.6896C14.8379 28.9754 14.501 28.2459 14.1137 27.9087C13.4185 27.3036 12.2611 27.1485 11.3757 27.5418ZM20.5196 27.503C19.9134 27.7562 19.6202 28.0253 19.3068 28.6164C18.7427 29.6805 18.882 31.3039 19.6106 32.1548C20.2919 32.9506 21.8406 33.1888 22.9162 32.6631C23.3215 32.4651 23.8622 31.7251 23.9884 31.1956C24.066 30.8698 24.0437 30.8477 23.6415 30.852C23.2676 30.856 23.1773 30.926 22.9486 31.3889C22.4938 32.309 21.2238 32.5074 20.465 31.7769C19.5569 30.9029 19.7446 28.7668 20.7743 28.2542C21.5751 27.8556 22.7988 28.139 22.9609 28.7608C23.0306 29.0283 23.1193 29.075 23.5564 29.075H24.07L23.8689 28.6002C23.7583 28.3392 23.5206 27.9999 23.3409 27.8466C22.7128 27.3107 21.3714 27.1474 20.5196 27.503ZM27.1456 27.4826C26.9224 27.5762 26.5829 27.8445 26.3909 28.079L26.042 28.5053L26.0405 27.9672C26.0392 27.4541 26.0208 27.4292 25.6445 27.4292H25.25V30.1511V32.873H25.6445H26.0391L26.0399 31.4488C26.0402 30.6655 26.105 29.801 26.1837 29.5281C26.3797 28.8485 26.9377 28.342 27.6032 28.2395C28.1117 28.1613 28.1432 28.1316 28.1432 27.7295C28.1432 27.3697 28.0967 27.3033 27.8473 27.3075C27.6845 27.3103 27.3688 27.389 27.1456 27.4826ZM29.7231 27.5792C28.8442 28.0158 28.3659 28.7541 28.298 29.7789C28.1891 31.4247 28.8902 32.5596 30.2031 32.8628C30.926 33.0298 31.8641 32.8938 32.4234 32.5411C32.7905 32.3094 33.2721 31.6094 33.2721 31.3072C33.2721 31.0107 32.5031 31.0238 32.3936 31.3222C32.1314 32.0373 31.2704 32.3855 30.3913 32.1319C29.7341 31.9424 29.3205 31.4881 29.2329 30.8598L29.1607 30.341H31.3005H33.4403L33.3635 29.7166C33.1906 28.3116 32.3211 27.4132 31.0564 27.3332C30.4712 27.2961 30.1877 27.3485 29.7231 27.5792ZM35.675 27.5432C35.1172 27.7949 34.5887 28.4319 34.5878 28.8534C34.5874 29.0223 34.6967 29.075 35.0475 29.075C35.4143 29.075 35.5078 29.0255 35.5078 28.831C35.5078 28.407 36.1221 28.0622 36.8771 28.0622C37.7982 28.0622 38.1654 28.3184 38.1124 28.9243C38.0669 29.4448 37.8442 29.5562 36.3023 29.8308C35.1636 30.0336 34.7376 30.2667 34.4982 30.8182C34.0867 31.7664 34.5749 32.6569 35.6317 32.8854C36.5037 33.0741 37.3541 32.872 37.9736 32.3288L38.2695 32.0692V32.3417C38.2695 32.7109 38.805 33.0339 39.2419 32.9284C39.6695 32.8251 39.7265 32.3052 39.3216 32.2033C39.0739 32.141 39.0586 32.0306 39.0586 30.2978C39.0586 28.2893 38.9796 27.9309 38.4648 27.6062C37.9246 27.2655 36.3683 27.2303 35.675 27.5432ZM45.1738 27.5418C44.1404 28.001 43.6615 28.8274 43.6615 30.1511C43.6615 31.9281 44.5795 32.9149 46.2362 32.9187C47.2566 32.921 47.9601 32.5878 48.3609 31.9124C48.7553 31.2473 48.7372 31.1006 48.261 31.1006C47.9697 31.1006 47.833 31.1768 47.7501 31.3855C47.566 31.8491 47.1294 32.1393 46.516 32.2058C45.5187 32.314 44.582 31.6172 44.582 30.767V30.341H46.7032H48.8243L48.7345 29.6896C48.6361 28.9754 48.2992 28.2459 47.9119 27.9087C47.2167 27.3036 46.0593 27.1485 45.1738 27.5418ZM54.3177 27.503C53.2558 27.9465 52.8175 28.7162 52.8097 30.1511C52.8013 31.7026 53.3617 32.524 54.658 32.86C56.0991 33.2336 57.4674 32.5096 57.804 31.1956C57.8881 30.867 57.8677 30.8474 57.4449 30.8474C57.0505 30.8474 56.9765 30.9016 56.8271 31.2993C56.3946 32.4509 54.6664 32.5405 53.9792 31.4467C53.7867 31.1402 53.7233 30.8131 53.7271 30.146C53.735 28.7601 54.3103 28.0622 55.4444 28.0622C56.0459 28.0622 56.5914 28.3418 56.7841 28.749C56.9075 29.0098 57.0313 29.075 57.4032 29.075H57.8681L57.6671 28.6002C57.5565 28.3392 57.3188 27.9999 57.139 27.8466C56.5109 27.3107 55.1695 27.1474 54.3177 27.503ZM66.4692 27.5422C64.4108 28.4422 64.3338 31.6977 66.347 32.7171C66.5793 32.8347 67.0662 32.9168 67.5306 32.9168C68.6492 32.9168 69.4829 32.4321 69.8149 31.5884C69.9684 31.1982 69.9023 31.1006 69.4847 31.1006C69.2809 31.1006 69.1146 31.2247 68.9784 31.4783C68.2686 32.7995 66.0344 32.2986 65.8633 30.7801L65.821 30.4043L67.958 30.3695C70.3548 30.3305 70.2089 30.4066 69.9538 29.3282C69.5644 27.6816 67.9927 26.876 66.4692 27.5422ZM72.9228 27.4947C72.7059 27.6076 72.4249 27.7902 72.2981 27.9006C72.084 28.0871 72.0677 28.0775 72.0677 27.7653C72.0677 27.4655 72.0179 27.4292 71.6074 27.4292H71.1471V30.1511V32.873H71.6074H72.0677V31.031C72.0677 28.9843 72.1794 28.5893 72.8524 28.2542C73.468 27.9477 74.1063 28.0052 74.4253 28.3958C74.6758 28.7024 74.6979 28.8969 74.6979 30.8012V32.873H75.1582H75.6185V30.98C75.6185 29.7819 75.6762 28.965 75.7757 28.7549C76.0896 28.0918 77.273 27.8372 77.8724 28.304C78.1736 28.5385 78.1843 28.6109 78.2246 30.7168L78.2662 32.8879L78.6849 32.8487L79.1035 32.8097V30.5884C79.1035 28.6499 79.0729 28.322 78.8631 28.0141C78.2504 27.1147 76.3309 27.0853 75.6904 27.9656C75.5135 28.2085 75.4972 28.2038 75.1252 27.803C74.7998 27.4525 74.6347 27.3826 74.0296 27.3399C73.5387 27.3052 73.1944 27.3535 72.9228 27.4947ZM83.8062 27.5518C83.1163 27.8533 82.7741 28.4482 82.9048 29.1189C83.0231 29.7255 83.502 30.0317 84.8303 30.35C86.1496 30.6661 86.5345 30.8893 86.5319 31.3367C86.5291 31.7774 86.4066 31.9434 85.9638 32.1055C85.1041 32.4202 84.1496 32.2012 83.7996 31.6089C83.6209 31.3067 83.4854 31.2286 83.1386 31.228C82.7483 31.2273 82.7114 31.2573 82.7878 31.5121C83.0682 32.4466 83.877 32.9308 85.1495 32.9256C86.6656 32.9194 87.4544 32.37 87.4544 31.3203C87.4544 30.4091 87.0633 30.0841 85.5269 29.7188C83.8989 29.3315 83.434 28.8941 84.0352 28.3154C84.5473 27.8224 86.135 28.0836 86.3362 28.6938C86.3951 28.8726 86.5349 28.9484 86.8057 28.9484C87.1262 28.9484 87.1914 28.8965 87.1914 28.6416C87.1914 28.2027 86.5987 27.585 86.0323 27.4336C85.2924 27.2357 84.424 27.2819 83.8062 27.5518ZM80.6159 30.1511V32.873H81.0762H81.5365V30.1511V27.4292H81.0762H80.6159V30.1511ZM92.3506 30.1195L92.3861 32.8097L92.8005 32.8485L93.2147 32.8872L93.264 31.2027C93.3294 28.9726 93.574 28.5195 94.819 28.3221C95.2229 28.2582 95.2843 28.1989 95.3205 27.8392C95.3595 27.4513 95.3382 27.4292 94.9259 27.4301C94.4503 27.4309 93.8415 27.7614 93.4783 28.2157L93.2467 28.5053L93.2438 27.9672C93.2409 27.4366 93.2344 27.4292 92.778 27.4292H92.3151L92.3506 30.1195ZM95.9902 28.0305C96.1261 28.3613 96.6298 29.5719 97.1097 30.7208L97.9822 32.8097L97.7767 33.3323C97.4983 34.0407 97.1657 34.3101 96.6586 34.2384C96.273 34.184 96.2542 34.2011 96.2918 34.5715C96.327 34.9185 96.3825 34.9656 96.7917 34.9949C97.395 35.0382 97.8349 34.8074 98.155 34.2797C98.298 34.0441 98.9888 32.4206 99.6902 30.6719L100.965 27.4925L100.572 27.4516C100.355 27.4292 100.135 27.4577 100.082 27.5149C100.03 27.5722 99.6407 28.5845 99.2179 29.7645C98.329 32.2452 98.546 32.3022 97.4328 29.2965L96.7412 27.4292H96.2422H95.7434L95.9902 28.0305ZM13.1384 28.2223C13.4953 28.3989 13.8766 28.872 14.0039 29.2965C14.0892 29.5811 14.0882 29.5814 12.4365 29.5814C10.6188 29.5814 10.5832 29.5627 10.9828 28.8187C11.3433 28.1476 12.3978 27.8559 13.1384 28.2223ZM31.5586 28.2241C31.9089 28.3948 32.4831 29.1313 32.4831 29.4102C32.4831 29.5449 32.1329 29.5814 30.8392 29.5814C29.3609 29.5814 29.1954 29.5591 29.1962 29.3598C29.1974 29.0497 29.6469 28.427 30.0094 28.2335C30.3985 28.0256 31.1418 28.0212 31.5586 28.2241ZM47.1314 28.3265C47.4743 28.5863 47.8698 29.187 47.8698 29.4485C47.8698 29.5342 47.286 29.5814 46.2259 29.5814C44.7476 29.5814 44.5822 29.5591 44.583 29.3598C44.5841 29.0497 45.0336 28.427 45.3961 28.2335C45.8756 27.9774 46.7308 28.0232 47.1314 28.3265ZM68.2409 28.2456C68.6387 28.4436 68.9551 28.8425 69.0748 29.2965C69.1498 29.5809 69.147 29.5814 67.4617 29.5814H65.7736L65.8855 29.2058C66.0411 28.6833 66.1205 28.582 66.5915 28.3056C67.0836 28.0167 67.7337 27.9931 68.2409 28.2456ZM38.138 30.6926C38.138 31.4109 37.8803 31.8181 37.2702 32.0635C36.5834 32.3398 35.9414 32.2892 35.5676 31.9292C35.3901 31.7583 35.2448 31.4994 35.2448 31.3538C35.2448 30.9622 35.8024 30.4957 36.3808 30.4033C36.6601 30.3586 37.1254 30.2756 37.4147 30.2186C37.704 30.1615 37.9851 30.1088 38.0394 30.1013C38.0937 30.0939 38.138 30.36 38.138 30.6926Z" fill="#020A18"/>
</svg>
