<svg width="99" height="51" viewBox="0 0 99 51" fill="none" xmlns="http://www.w3.org/2000/svg">
<path opacity="0.8" fill-rule="evenodd" clip-rule="evenodd" d="M7.69128 0.112369C6.84034 0.248086 5.47267 0.725697 4.65605 1.17217C2.20696 2.51132 0.641493 4.7787 0.109873 7.75704C-0.0370746 8.58021 -0.0363978 42.569 0.110549 43.2877C0.382595 44.618 0.529639 45.1112 0.870131 45.8361C1.32161 46.7974 1.55788 47.1485 2.33293 48.0094C3.74421 49.5774 5.44309 50.4914 7.59461 50.8402C8.90901 51.0533 90.0992 51.0532 91.4125 50.8401C93.3514 50.5255 94.9523 49.7211 96.3025 48.3834C97.7316 46.9675 98.4482 45.5959 98.8183 43.5679C98.9937 42.6062 99.0015 41.8378 98.9998 25.4948C98.9979 7.646 98.9992 7.70345 98.6021 6.45C97.6986 3.59763 95.7108 1.52747 92.911 0.523086C91.3357 -0.0420477 94.1488 -0.00860044 49.4069 0.00624359C23.6655 0.0147259 8.0543 0.0545349 7.69128 0.112369ZM91.7992 1.52689C93.1744 1.89423 94.5595 2.69648 95.4926 3.66616C96.2504 4.45348 96.4017 4.66553 96.8261 5.5343C97.6734 7.26902 97.5998 5.36889 97.5998 25.487C97.5998 42.6457 97.5929 43.3445 97.4177 43.9938C97.2079 44.7715 96.6132 46.0123 96.144 46.6511C95.2766 47.8322 93.8842 48.783 92.1796 49.3582L91.5092 49.5844L49.9386 49.6107C22.2595 49.6282 8.15407 49.6044 7.72773 49.5394C4.79865 49.0933 2.40679 46.953 1.58437 44.042C1.41567 43.445 1.40736 42.5731 1.40736 25.5352C1.40736 5.39222 1.3365 7.25187 2.16974 5.5343C2.86426 4.10262 4.20235 2.78844 5.66457 2.10176C6.51358 1.70309 7.06879 1.54742 8.02965 1.4385C8.37527 1.39937 27.2561 1.37411 49.9869 1.3825C84.1809 1.39512 91.3993 1.42009 91.7992 1.52689ZM7.55874 3.76323C6.32835 3.967 4.74577 5.17486 4.10065 6.40238C3.45089 7.63868 3.48569 6.55574 3.48753 25.4578C3.48937 43.9212 3.46916 43.1762 4.00059 44.3337C4.21125 44.7926 4.66833 45.4006 5.23533 45.9763C5.57592 46.3221 6.33444 46.7693 6.99425 47.0133L7.69128 47.2711H49.4069H91.1225L91.8297 47.0096C93.3573 46.4448 94.6261 45.0996 95.0772 43.5666C95.2156 43.0961 95.2312 41.2711 95.2312 25.538C95.2312 10.0317 95.2141 7.96717 95.0813 7.45872C94.6233 5.70558 93.0306 4.16325 91.3011 3.79783C90.7282 3.67686 85.0851 3.65932 49.3586 3.66761C25.6623 3.6731 7.85679 3.71388 7.55874 3.76323ZM61.307 12.7053C62.1744 12.9265 62.9711 13.2917 63.4564 13.6905C63.9197 14.0713 64.5015 14.9311 64.7536 15.6076C65.4034 17.3513 65.2313 19.9638 64.3425 21.8507C63.9279 22.7308 63.0904 23.8413 62.5087 24.2821C62.2638 24.4677 61.9968 24.6799 61.9154 24.7538C61.599 25.0411 59.9682 25.6567 59.1711 25.7899C57.1294 26.1311 54.9169 25.5414 53.7312 24.3401C52.8191 23.4161 52.4007 22.3172 52.3331 20.6675C52.2756 19.2658 52.4353 18.238 52.9018 17.0047C53.3118 15.9209 53.7643 15.2373 54.6323 14.39C55.5875 13.4577 56.8405 12.8089 58.1077 12.5905C58.8237 12.467 60.6264 12.5317 61.307 12.7053ZM87.9322 12.6675C90.5405 13.2136 91.8759 15.0573 91.8607 18.0914C91.8526 19.7054 91.5968 20.8421 90.9573 22.105C89.5747 24.8358 86.6018 26.3158 83.5675 25.7841C80.4703 25.2412 79.0541 23.4626 79.0732 20.1395C79.0946 16.4234 81.1246 13.5691 84.3552 12.7125C85.2018 12.4881 86.9688 12.4659 87.9322 12.6675ZM16.9348 12.9075C17.7801 13.063 18.9637 13.699 19.4864 14.2787C20.0537 14.9077 20.5441 15.8679 20.6989 16.6524C20.8544 17.4399 20.767 19.609 20.5509 20.3301C19.8864 22.5475 18.8212 23.9416 17.1622 24.7653C16.8414 24.9246 16.2758 25.1497 15.9054 25.2655C15.2686 25.4645 15.0179 25.4779 11.2925 25.5115C8.88987 25.5331 7.35292 25.5119 7.35292 25.4569C7.35292 25.4074 7.5949 24.201 7.89063 22.7762C8.18636 21.3514 8.75472 18.5807 9.1536 16.6191C9.55258 14.6576 9.89646 12.9985 9.91802 12.9322C9.96703 12.7812 16.1298 12.7595 16.9348 12.9075ZM32.1159 13.0812C33.2943 13.5534 33.836 14.2266 34.043 15.4761C34.2023 16.4383 34.0388 17.3349 33.56 18.1245C33.1518 18.7974 32.6999 19.1654 31.8565 19.511C31.5395 19.6409 31.3337 19.7482 31.3993 19.7495C31.6193 19.7537 32.179 20.389 32.2992 20.771C32.3681 20.9899 32.4314 21.8603 32.4494 22.8363C32.4664 23.764 32.5042 24.749 32.5332 25.0251L32.5861 25.5271L30.7392 25.5552C28.9892 25.5819 28.887 25.5734 28.7912 25.3947C28.7239 25.2692 28.7154 24.7527 28.7658 23.8525C28.8859 21.706 28.8685 21.6221 28.2478 21.3547C27.9079 21.2081 25.8923 21.0913 25.7722 21.2112C25.7438 21.2395 25.5425 22.1263 25.3246 23.182C25.1068 24.2377 24.9061 25.199 24.8786 25.3183C24.8293 25.5327 24.809 25.5353 23.0998 25.5472C22.149 25.5539 21.2948 25.5637 21.2017 25.5691C21.0646 25.5771 21.0358 25.5063 21.0498 25.1956C21.0591 24.9848 21.5717 22.3615 22.1887 19.3662C22.8057 16.3709 23.3619 13.6682 23.4246 13.3603L23.5388 12.8004L27.5545 12.8315C31.4669 12.8618 31.5842 12.8682 32.1159 13.0812ZM40.3825 13.0286C40.3059 13.3338 39.0633 19.3603 38.5291 22.017C38.284 23.2363 38.0175 24.5267 37.9369 24.8846L37.7903 25.5352H35.8162C34.7304 25.5352 33.8421 25.4987 33.8421 25.4541C33.8421 25.4096 33.9275 24.9649 34.0319 24.4661C34.3891 22.7591 35.3908 17.8735 35.8781 15.4624C36.146 14.1371 36.3834 12.9985 36.4057 12.9322C36.4364 12.841 36.9315 12.8117 38.4416 12.8117H40.437L40.3825 13.0286ZM52.5918 12.884C52.5888 12.9237 52.4468 13.672 52.2761 14.5467L51.966 16.1372L50.5624 17.342C45.8329 21.4018 45.1163 22.0263 45.0878 22.1133C45.0671 22.1766 46.0262 22.1998 47.8745 22.1808C49.4245 22.1649 50.727 22.1866 50.7691 22.229C50.8369 22.2976 50.2526 25.3988 50.153 25.4981C50.1246 25.5265 41.4292 25.5561 39.0034 25.536C38.933 25.5355 39.0072 24.978 39.218 23.9207L39.5402 22.3061L40.1956 21.6938C40.5561 21.357 41.2861 20.7072 41.8178 20.2498C42.3496 19.7925 43.0922 19.1354 43.4681 18.7898C43.8441 18.4442 44.5103 17.8577 44.9486 17.4866C45.387 17.1155 45.9046 16.6601 46.0988 16.4745L46.452 16.1372L43.8147 16.1115C41.364 16.0876 41.181 16.074 41.2282 15.9188C41.277 15.7584 41.8662 12.9225 41.8662 12.848C41.8662 12.828 44.2807 12.8117 47.2317 12.8117C50.1827 12.8117 52.5948 12.8443 52.5918 12.884ZM75.8541 12.9165C76.5639 13.0461 77.4833 13.5218 77.7826 13.9143C78.2173 14.4842 78.4171 15.177 78.4204 16.1263C78.4245 17.3246 78.093 18.1694 77.3462 18.8637C77.0763 19.1146 76.0239 19.6543 75.7994 19.6569C75.7196 19.6579 75.792 19.7466 75.9602 19.854C76.6654 20.3044 76.8693 21.1089 76.8558 23.3869C76.8505 24.2769 76.8763 25.1244 76.9133 25.2701L76.9805 25.5352H75.0866H73.1928L73.1343 25.3027C73.0479 24.9596 73.048 24.1804 73.1346 22.9327L73.2115 21.8242L72.904 21.535C72.6052 21.2539 72.5638 21.2445 71.4329 21.1976C70.7929 21.1711 70.231 21.1733 70.1841 21.2023C70.1373 21.2314 69.944 21.9904 69.7546 22.8891C69.5653 23.7878 69.3618 24.7509 69.3026 25.0291L69.1947 25.5352H67.2417H65.2887L65.857 22.764C66.1696 21.2399 66.6659 18.8216 66.9599 17.3902C67.2539 15.9589 67.579 14.3757 67.6823 13.872C67.7856 13.3684 67.8705 12.9237 67.8711 12.884C67.8726 12.7679 75.2038 12.7978 75.8541 12.9165ZM58.2527 15.9797C57.1914 16.4615 56.436 17.9776 56.3 19.8983C56.2099 21.1715 56.5353 22.0404 57.2378 22.4026C57.6375 22.6087 58.732 22.5884 59.2233 22.3661C60.3514 21.8551 61.2483 19.7899 61.1448 17.9419C61.0816 16.8144 60.7661 16.22 60.0788 15.9337C59.6263 15.7452 58.7187 15.768 58.2527 15.9797ZM85.0241 15.9827C83.8295 16.5237 83.0558 18.2122 83.0517 20.2871C83.0504 21.0304 83.0861 21.2305 83.293 21.6366C83.646 22.3294 83.9185 22.4915 84.7995 22.5323C85.593 22.5689 85.9993 22.4325 86.6017 21.927C86.9865 21.6042 87.5644 20.4199 87.7398 19.5948C87.9042 18.8211 87.9257 17.5443 87.7829 17.0318C87.6549 16.5723 87.2546 16.0989 86.8522 15.9313C86.4018 15.7436 85.4958 15.7692 85.0241 15.9827ZM26.8406 16.0072C26.7404 16.317 26.3981 17.9517 26.3981 18.1205C26.3981 18.2942 26.4761 18.3055 27.6307 18.2986C29.2709 18.2889 29.7759 18.0896 30.0308 17.3519C30.1497 17.008 30.1484 16.9106 30.0212 16.5936C29.7909 16.0198 29.6077 15.9526 28.163 15.9127C27.1506 15.8847 26.8738 15.9045 26.8406 16.0072ZM70.9548 17.0923L70.7062 18.3059H71.8566C72.4892 18.3059 73.2002 18.2574 73.4364 18.1981C74.2484 17.9942 74.6734 17.1741 74.3424 16.4498C74.1467 16.0216 73.9009 15.9496 72.5104 15.9131L71.2032 15.8788L70.9548 17.0923ZM13.2865 16.23C13.2513 16.3213 12.9537 17.6824 12.6251 19.2547L12.0277 22.1133L13.2671 22.1402C14.3484 22.1637 14.5664 22.1414 14.9773 21.9652C15.5693 21.7112 15.9578 21.3091 16.3243 20.5711C16.7196 19.7749 16.8588 19.0976 16.8077 18.2179C16.7202 16.7105 16.1073 16.1865 14.3396 16.1079C13.4679 16.0691 13.3429 16.0836 13.2865 16.23ZM90.7493 26.7948C92.1583 27.4748 92.4134 29.3927 91.2324 30.4266C90.7801 30.8225 90.3052 30.9619 89.5681 30.9151C88.7563 30.8635 88.2331 30.5167 87.8597 29.7825C87.1017 28.2921 88.1124 26.5955 89.7584 26.5955C90.1451 26.5955 90.473 26.6614 90.7493 26.7948ZM89.1459 27.4391C88.5499 27.7406 88.1864 28.7628 88.4755 29.3248C88.6851 29.7324 89.1764 30.1599 89.5061 30.2216C89.9412 30.3029 90.5163 30.1054 90.8474 29.7608C91.067 29.5323 91.1201 29.3786 91.1506 28.8831C91.182 28.3743 91.1529 28.2305 90.9599 27.9449C90.6985 27.558 90.1908 27.2705 89.769 27.2705C89.6095 27.2705 89.3292 27.3463 89.1459 27.4391ZM90.5908 27.8485C90.8976 28.1545 90.7921 28.9088 90.4424 28.9088C90.2655 28.9088 90.2666 29.0784 90.4458 29.3908C90.6532 29.7525 90.6218 29.8727 90.32 29.8727C90.0948 29.8727 90.0136 29.7997 89.8379 29.439C89.7217 29.2004 89.5825 29.0052 89.5286 29.0052C89.4748 29.0052 89.4307 29.2033 89.4307 29.4453C89.4307 29.8687 89.4205 29.8844 89.1648 29.855L88.899 29.8245L88.8711 28.8675C88.8557 28.3411 88.8652 27.8532 88.8922 27.7831C88.9268 27.6932 89.1551 27.6558 89.6694 27.6558C90.2686 27.6558 90.4316 27.6899 90.5908 27.8485ZM89.4307 28.3305C89.4307 28.4847 89.4951 28.5233 89.7529 28.5233C90.1219 28.5233 90.2125 28.4645 90.1387 28.2728C90.1083 28.1936 89.9509 28.1377 89.7587 28.1377C89.4951 28.1377 89.4307 28.1756 89.4307 28.3305ZM95.0165 37.5839C95.0314 39.784 95.0023 42.0021 94.9519 42.5131C94.835 43.6989 94.4149 44.6597 93.6673 45.4507C93.0635 46.0896 92.7177 46.3212 91.7992 46.7016L91.1225 46.9819L49.7181 47.0067C3.96801 47.0341 7.54985 47.0829 6.35078 46.4144C5.6842 46.0427 4.81547 45.1876 4.42181 44.5157C4.2794 44.2725 4.0758 43.7343 3.96936 43.3195C3.78945 42.618 3.77592 42.2505 3.77592 38.0503V33.5353L49.3827 33.5595L94.9895 33.5837L95.0165 37.5839ZM8.17215 37.7892C7.06705 38.572 6.42435 40.7467 6.85823 42.2357C7.03283 42.8351 7.63956 43.5233 8.10776 43.6529C9.07771 43.9215 9.90042 43.7206 10.5879 43.0469C11.0586 42.5857 11.5303 41.7168 11.3874 41.5743C11.32 41.5071 10.0535 41.2158 10.0271 41.2615C10.0163 41.2799 9.91067 41.502 9.79215 41.7551C9.48307 42.4153 9.01536 42.5762 8.5546 42.181C8.22571 41.899 8.13184 41.3808 8.27144 40.6181C8.4702 39.533 9.00791 38.7406 9.54553 38.7406C9.82743 38.7406 10.2532 39.1405 10.2532 39.4053C10.2532 39.5105 10.2859 39.6159 10.3257 39.6394C10.4051 39.6861 11.616 39.5345 11.681 39.4697C11.8087 39.3423 11.3699 38.3176 11.0394 37.9712L10.6699 37.5839H9.56592C8.59472 37.5839 8.42708 37.6086 8.17215 37.7892ZM27.098 38.0347C26.5879 38.3538 26.3809 38.5432 26.3406 38.7277C26.2409 39.1849 26.2134 39.2225 25.9793 39.2225C25.7714 39.2225 25.7385 39.281 25.6546 39.8009C25.5629 40.3688 25.5652 40.3792 25.7863 40.3792C26.0563 40.3792 26.0604 40.4378 25.8663 41.5359C25.6471 42.7772 25.6698 43.0991 26.0018 43.4535C26.2542 43.7229 26.3389 43.7527 26.8477 43.7514C27.1587 43.7505 27.4651 43.717 27.5286 43.6767C27.6341 43.6098 27.8402 42.9191 27.8459 42.6133C27.8472 42.5398 27.7563 42.4934 27.6307 42.5035C27.0727 42.5487 27.0543 42.4916 27.2547 41.339L27.4131 40.4274L27.7692 40.3979C28.077 40.3724 28.1327 40.33 28.1801 40.0846C28.2102 39.9286 28.2601 39.6707 28.2909 39.5117C28.3447 39.2338 28.3334 39.2225 28.0008 39.2225C27.6106 39.2225 27.6088 39.2168 27.7575 38.4152C27.9166 37.5568 27.8881 37.5404 27.098 38.0347ZM42.6879 38.0339C42.1254 38.3823 41.9935 38.5139 41.9064 38.8136C41.8251 39.0934 41.7465 39.1809 41.5562 39.2036C41.3443 39.229 41.3027 39.293 41.2503 39.675C41.1608 40.3248 41.1691 40.3629 41.407 40.3966C41.5267 40.4135 41.6171 40.4708 41.6081 40.5238C41.2209 42.8005 41.2226 43.12 41.624 43.5202C41.8175 43.7131 41.9531 43.7526 42.4177 43.7514C43.1067 43.7496 43.2105 43.6877 43.321 43.2127C43.4633 42.6012 43.442 42.4697 43.2104 42.5302C42.7104 42.6605 42.6434 42.3833 42.8647 41.1021L42.9813 40.4274L43.3374 40.3978C43.7185 40.3661 43.74 40.3338 43.8495 39.6322L43.9134 39.2225H43.5665C43.1656 39.2225 43.1596 39.1956 43.3563 38.2812C43.4279 37.949 43.4589 37.6632 43.4255 37.646C43.392 37.6287 43.0601 37.8033 42.6879 38.0339ZM45.0261 37.6562C45.0032 37.696 44.9545 37.9345 44.9178 38.1863L44.8512 38.6442H45.5295H46.2078L46.269 38.2827C46.3026 38.084 46.3511 37.8453 46.3766 37.7526C46.4176 37.6036 46.3439 37.5839 45.7454 37.5839C45.3728 37.5839 45.0491 37.6164 45.0261 37.6562ZM58.851 38.5237C58.7677 39.0406 58.5449 40.3527 58.3557 41.4395C58.1665 42.5263 58.0115 43.4715 58.0114 43.54C58.0111 43.6335 58.1968 43.6575 58.7562 43.6364L59.5014 43.6083L59.6988 42.4998L59.8962 41.3913L60.718 41.3384C61.5768 41.2832 61.9711 41.1389 62.326 40.7498C63.0396 39.9676 63.1192 38.6167 62.4953 37.8774L62.2476 37.5839H60.6249H59.0023L58.851 38.5237ZM74.0109 38.6442C73.9168 39.2274 73.8022 39.7045 73.7561 39.7045C73.7101 39.7045 73.6725 39.6604 73.6725 39.6066C73.6725 39.4229 73.0462 39.1268 72.6574 39.1268C72.0501 39.1268 71.6762 39.418 71.3265 40.163C70.7641 41.3611 70.859 43.0422 71.5179 43.559C71.8898 43.8507 72.6028 43.8263 72.8991 43.5119C73.1735 43.2207 73.2858 43.2067 73.2858 43.4637C73.2858 43.6362 73.3503 43.6565 73.8994 43.6565H74.5129L74.6716 42.7167C74.7589 42.1997 74.983 40.8976 75.1698 39.8229C75.3565 38.7482 75.5094 37.8048 75.5094 37.7265C75.5094 37.6145 75.367 37.5839 74.8457 37.5839H74.182L74.0109 38.6442ZM86.5879 38.0012C85.8918 38.4248 85.8049 38.5198 85.7126 38.9575C85.6704 39.1575 85.5997 39.2225 85.4248 39.2225C85.2246 39.2225 85.1787 39.2889 85.0883 39.7092C84.9467 40.3671 84.9493 40.3792 85.2253 40.3792C85.3582 40.3792 85.467 40.3975 85.467 40.4199C85.467 40.4423 85.3795 40.9803 85.2725 41.6156C85.0628 42.8616 85.0911 43.1111 85.4903 43.536C85.6502 43.7062 85.7996 43.7526 86.1847 43.7515C87.0227 43.7493 87.0746 43.7132 87.1799 43.0616C87.2728 42.4865 87.272 42.4834 87.0469 42.5263C86.9225 42.55 86.7501 42.518 86.6639 42.4552C86.5255 42.3541 86.5204 42.2577 86.6208 41.6251C86.8325 40.2904 86.7902 40.3792 87.2148 40.3792C87.47 40.3792 87.5938 40.3363 87.5938 40.2481C87.5938 40.1759 87.6215 39.9157 87.6553 39.6698L87.7168 39.2225H87.4193C87.2558 39.2225 87.1009 39.1886 87.0752 39.1473C87.0495 39.1058 87.0914 38.7726 87.1684 38.4068C87.2453 38.041 87.2964 37.7086 87.2819 37.6683C87.2673 37.628 86.9551 37.7777 86.5879 38.0012ZM61.355 38.8848C61.7205 39.4411 61.2376 40.1864 60.5116 40.1864C60.0898 40.1864 60.099 40.2173 60.2488 39.3134L60.3596 38.6442H60.7782C61.1179 38.6442 61.2267 38.6896 61.355 38.8848ZM13.1837 39.3209C12.3942 39.7207 11.9441 40.5966 11.9466 41.7287C11.9493 42.9644 12.4779 43.6489 13.4943 43.733C14.2678 43.7969 14.6309 43.6935 15.1109 43.2723C15.9835 42.5063 16.2765 41.0588 15.7637 40.0469C15.416 39.3607 15.1257 39.184 14.2845 39.1468C13.7242 39.122 13.5095 39.1559 13.1837 39.3209ZM19.0024 39.2778C18.8428 39.3605 18.6139 39.5201 18.4936 39.6324L18.275 39.8366L18.3365 39.5296L18.3981 39.2225H17.7577C17.4054 39.2225 17.1172 39.2425 17.1172 39.2668C17.1172 39.3449 16.4432 43.2143 16.3896 43.4438C16.3389 43.6607 16.3516 43.6645 17.036 43.6366L17.7341 43.6083L17.9528 42.4034C18.1986 41.05 18.35 40.6553 18.7143 40.4173C18.9462 40.2658 18.9778 40.2652 19.1225 40.4095C19.2672 40.5538 19.2625 40.6689 19.0609 41.8944C18.9407 42.6249 18.8193 43.3203 18.791 43.4396C18.7415 43.6488 18.7638 43.6565 19.4201 43.6565H20.1004L20.2017 43.1504C20.2574 42.8721 20.3953 42.0823 20.5079 41.3955C20.7345 40.0144 20.6859 39.5555 20.2831 39.2742C20.0102 39.0836 19.3733 39.0854 19.0024 39.2778ZM22.5311 39.2344C21.9425 39.4684 21.5643 40.0493 21.5643 40.7192C21.5643 41.3099 21.9 41.6552 22.6859 41.8731C22.9995 41.9599 23.3105 42.0484 23.3769 42.0696C23.4434 42.0908 23.4978 42.2126 23.4978 42.3404C23.4978 42.9617 22.5205 42.9983 22.3153 42.3847C22.2985 42.3346 22.0032 42.3259 21.6258 42.3645L20.9657 42.4319L21.0208 42.7065C21.1778 43.4893 21.725 43.7939 22.8672 43.7342C23.5496 43.6984 23.7129 43.654 24.0592 43.4095C24.5478 43.0646 24.7546 42.665 24.7546 42.0659C24.7546 41.4376 24.3581 41.045 23.5461 40.869C22.7244 40.6909 22.5346 40.4858 22.8762 40.1451C23.0915 39.9304 23.4614 39.9575 23.632 40.2003C23.7625 40.3862 23.8337 40.4003 24.3371 40.3414C24.645 40.3053 24.927 40.2448 24.9638 40.207C25.0917 40.0755 24.7635 39.5143 24.4459 39.3211C24.2023 39.1731 23.9651 39.1283 23.4494 39.1326C23.0772 39.1358 22.6639 39.1816 22.5311 39.2344ZM30.8166 39.343C30.6993 39.4624 30.5283 39.6683 30.4365 39.8009L30.2695 40.0418L30.328 39.6322L30.3865 39.2225H29.7457C29.3934 39.2225 29.1044 39.255 29.1037 39.2948C29.103 39.3346 28.9514 40.2563 28.7666 41.3431C28.5819 42.4299 28.4302 43.3951 28.4295 43.4878C28.4284 43.6321 28.5237 43.6565 29.0894 43.6565H29.7506L29.8744 42.8262C30.1282 41.1255 30.4341 40.5196 31.0705 40.4566C31.3319 40.4308 31.3923 40.3624 31.5913 39.8676C31.7151 39.5597 31.791 39.2669 31.7601 39.2169C31.6487 39.0373 31.0366 39.119 30.8166 39.343ZM37.8455 39.2633C37.3801 39.4653 36.8633 40.0625 36.6396 40.6567C36.4787 41.084 36.4425 41.3632 36.4682 41.9773C36.4967 42.6601 36.535 42.8008 36.7793 43.1201C37.1629 43.6214 37.5896 43.7799 38.4398 43.7371C39.0124 43.7083 39.2005 43.6542 39.5378 43.4211C39.94 43.1432 40.416 42.4766 40.416 42.1911C40.416 42.0892 40.2783 42.0253 39.9675 41.9827C39.2757 41.8882 39.2015 41.9035 39.0581 42.1706C38.7773 42.6938 38.2523 42.7756 37.899 42.3511C37.7258 42.143 37.7467 41.2546 37.9332 40.895C38.2801 40.2263 38.9278 40.0432 39.3001 40.5087C39.4788 40.7322 39.5753 40.7648 40.0572 40.7648C40.5882 40.7648 40.6094 40.7551 40.6094 40.5128C40.6094 40.0881 40.2254 39.5302 39.7876 39.3189C39.3161 39.0914 38.3082 39.0624 37.8455 39.2633ZM47.8049 39.3086C47.0001 39.6731 46.505 40.5949 46.5087 41.7217C46.5113 42.4721 46.7288 43.0193 47.1724 43.3916C47.7521 43.8778 48.8477 43.8806 49.5327 43.3976C50.601 42.6441 50.9085 40.6072 50.0993 39.6441C49.6551 39.1156 48.5787 38.9582 47.8049 39.3086ZM53.6123 39.2383C53.5059 39.2969 53.2939 39.4582 53.1413 39.5969L52.8635 39.8491L52.9076 39.5318L52.9516 39.2144L52.3152 39.2426L51.6788 39.2707L51.3242 41.2949C51.1292 42.4082 50.966 43.3951 50.9616 43.4878C50.9548 43.6329 51.0469 43.6565 51.6204 43.6565H52.2871L52.4469 42.7649C52.5347 42.2745 52.6322 41.7214 52.6633 41.5359C52.7882 40.7926 53.2509 40.2061 53.6053 40.3417C53.8096 40.4199 53.8003 40.8422 53.5635 42.2411C53.4574 42.8675 53.3706 43.4423 53.3706 43.5182C53.3706 43.6249 53.5222 43.6565 54.0324 43.6565H54.6942L54.9527 42.0901C55.0948 41.2287 55.2102 40.359 55.2093 40.1575C55.2071 39.7371 54.9967 39.2734 54.768 39.186C54.5188 39.0907 53.8235 39.1222 53.6123 39.2383ZM65.4683 39.282C65.3455 39.3677 65.1579 39.5737 65.0512 39.7399L64.8572 40.0418L64.9156 39.6322L64.974 39.2225H64.3509C63.841 39.2225 63.7189 39.2532 63.6782 39.3912C63.6508 39.4839 63.4956 40.3458 63.3334 41.3064C63.1712 42.2669 63.0112 43.1887 62.9778 43.3547L62.9173 43.6565H63.6018H64.2862L64.3502 43.295C64.7725 40.9081 64.9765 40.4756 65.6801 40.4756C65.8816 40.4756 65.9551 40.3835 66.1601 39.8732C66.2934 39.5419 66.3824 39.2382 66.358 39.1984C66.2782 39.0681 65.6963 39.1228 65.4683 39.282ZM67.5667 39.3209C66.7266 39.7634 66.2841 40.6976 66.3394 41.9109C66.3792 42.7838 66.6144 43.223 67.2254 43.5654C67.5293 43.7357 67.7151 43.767 68.2421 43.7369C68.7761 43.7065 68.9649 43.6467 69.339 43.3896C70.6682 42.4758 70.7376 39.8942 69.4493 39.2817C68.9896 39.0631 68.0177 39.0833 67.5667 39.3209ZM81.5846 39.3159C80.7359 39.7749 80.2006 40.8612 80.2701 41.9829C80.3235 42.8447 80.5411 43.2446 81.1188 43.542C81.7414 43.8625 82.7524 43.8147 83.3238 43.4377C83.7218 43.1751 84.1344 42.6446 84.2531 42.2428C84.3107 42.0475 84.2726 42.0295 83.6627 41.9644C83.1871 41.9136 83.0001 41.9263 82.9718 42.011C82.9504 42.0749 82.8372 42.2381 82.7202 42.3737C82.4486 42.6886 82.017 42.7028 81.7749 42.4048C81.378 41.916 81.6804 40.6492 82.269 40.3351C82.5891 40.1644 83.0467 40.2662 83.1698 40.5358C83.2639 40.7417 83.336 40.7648 83.8874 40.7648C84.6009 40.7648 84.6389 40.6908 84.2827 39.9956C83.9437 39.3343 83.658 39.1787 82.7288 39.1496C82.0912 39.1295 81.8699 39.1617 81.5846 39.3159ZM89.1798 39.3097C88.6503 39.5494 88.33 40.0694 88.33 40.6894C88.33 41.3104 88.6603 41.6448 89.5185 41.8925C90.1907 42.0867 90.4161 42.2959 90.2445 42.5672C90.012 42.9347 89.2685 42.8805 89.1657 42.4884C89.1181 42.3071 89.0644 42.2912 88.6779 42.344C88.4391 42.3767 88.1409 42.4034 88.0153 42.4034C87.7231 42.4034 87.7099 42.7096 87.983 43.1562C88.2631 43.6143 88.7303 43.7787 89.6355 43.7377C90.2787 43.7086 90.4397 43.6637 90.8005 43.4127C91.3538 43.0277 91.5799 42.5862 91.5284 41.9906C91.4836 41.4714 91.2128 41.1071 90.7991 41.0098C89.7589 40.765 89.5273 40.662 89.5273 40.444C89.5273 39.9822 90.0453 39.8354 90.4059 40.1949C90.5832 40.3717 90.6773 40.3881 91.1793 40.3301C91.5839 40.2832 91.7509 40.2231 91.7509 40.124C91.7509 39.8259 91.4342 39.3944 91.1192 39.2631C90.6507 39.0679 89.6611 39.0917 89.1798 39.3097ZM32.0666 40.7889C31.739 42.7747 31.7385 43.0728 32.0622 43.4563C32.2781 43.7122 32.3766 43.7529 32.7798 43.7529C33.1677 43.7529 33.3249 43.6938 33.7037 43.4054L34.1603 43.0579L34.1003 43.3572L34.0403 43.6565H34.6605C35.0017 43.6565 35.3022 43.622 35.3283 43.5798C35.3798 43.4967 36.0656 39.5642 36.0656 39.352C36.0656 39.2562 35.8926 39.2225 35.4003 39.2225H34.735L34.5717 40.1623C34.2541 41.99 34.0211 42.4998 33.5037 42.4998C33.2833 42.4998 33.262 42.4632 33.262 42.0846C33.262 41.8563 33.349 41.1973 33.4554 40.6202C33.732 39.1194 33.7665 39.2225 32.9869 39.2225H32.3251L32.0666 40.7889ZM44.7207 39.4394C44.6936 39.5587 44.5391 40.437 44.3774 41.3913C44.2158 42.3456 44.0598 43.2457 44.0307 43.3914L43.9777 43.6565H44.6544C45.3147 43.6565 45.3325 43.65 45.3867 43.3914C45.4174 43.2457 45.55 42.4974 45.6817 41.7287C45.8133 40.96 45.9657 40.0974 46.0204 39.8119C46.0752 39.5263 46.1199 39.2768 46.1199 39.2576C46.1199 39.2383 45.8163 39.2225 45.445 39.2225C44.8243 39.2225 44.7662 39.2399 44.7207 39.4394ZM76.152 39.3912C76.1259 39.4839 75.9876 40.2427 75.8444 41.0772C75.5567 42.7548 75.575 43.1523 75.9578 43.5341C76.1716 43.7472 76.2621 43.7704 76.7279 43.7319C77.1568 43.6965 77.3149 43.6311 77.5714 43.3832C77.7451 43.2154 77.9101 43.0781 77.9382 43.0781C77.9664 43.0781 77.9702 43.2083 77.9468 43.3673L77.9043 43.6565H78.5437C78.8953 43.6565 79.183 43.6345 79.183 43.6077C79.183 43.5335 79.8551 39.6877 79.9123 39.4352C79.9613 39.2184 79.9482 39.2145 79.2641 39.2424L78.5659 39.2707L78.3372 40.5238C78.2114 41.213 78.0325 41.9069 77.9396 42.0658C77.7295 42.4251 77.3578 42.6294 77.1808 42.4829C77.0043 42.3369 77.0235 42.0237 77.2979 40.572C77.4308 39.8686 77.5396 39.2773 77.5396 39.2578C77.5396 39.2384 77.2379 39.2225 76.8693 39.2225C76.3135 39.2225 76.1911 39.2514 76.152 39.3912ZM14.4629 40.4231C15.0851 41.0433 14.3519 42.9777 13.6387 42.5971C13.0451 42.2804 13.1714 40.682 13.8177 40.3318C14.1601 40.1464 14.1897 40.1506 14.4629 40.4231ZM49.0927 40.4593C49.2771 40.6876 49.2368 41.62 49.022 42.0918C48.7066 42.7848 48.1739 42.8106 47.8956 42.1465C47.4672 41.1243 48.4784 39.6991 49.0927 40.4593ZM68.9112 40.4556C69.0937 40.6869 69.0556 41.6196 68.8448 42.0823C68.6106 42.5968 68.3298 42.7612 68.0253 42.5623C67.6539 42.3196 67.5474 41.9249 67.6807 41.2848C67.8745 40.3542 68.4994 39.9331 68.9112 40.4556ZM73.4501 40.5395C73.7534 41.0012 73.4178 42.4 72.9529 42.6112C72.7474 42.7046 72.6743 42.6941 72.5128 42.5484C72.3581 42.4088 72.3191 42.2515 72.3191 41.7682C72.3191 40.5158 72.9699 39.8088 73.4501 40.5395Z" fill="#020A18"/>
</svg>
