<svg width="137" height="27" viewBox="0 0 137 27" fill="none" xmlns="http://www.w3.org/2000/svg">
<path opacity="0.8" fill-rule="evenodd" clip-rule="evenodd" d="M132.187 0.0484628C130.621 0.375895 129.427 1.55115 128.956 3.23044C128.849 3.61276 128.842 3.69158 128.842 4.45626C128.842 5.15735 128.855 5.3251 128.934 5.63669C129.597 8.27912 132.201 9.66258 134.52 8.60478C135.431 8.18905 136.283 7.25851 136.668 6.258C137.534 4.00525 136.654 1.45603 134.652 0.416756C134.437 0.305433 134.104 0.171545 133.911 0.119152C133.459 -0.00388456 132.605 -0.0388887 132.187 0.0484628ZM133.651 0.960524C135.601 1.45617 136.703 3.78419 135.955 5.83087C135.681 6.58203 135.07 7.30759 134.404 7.67329C133.875 7.96345 133.47 8.07028 132.898 8.07028C131.934 8.07028 131.133 7.67956 130.457 6.87964C130.151 6.51738 129.82 5.85017 129.706 5.36429C129.425 4.17228 129.768 2.80884 130.564 1.94859C130.901 1.58483 131.046 1.4687 131.43 1.25549C132.129 0.866771 132.886 0.766253 133.651 0.960524ZM132.416 2.12846C131.588 3.15248 131.314 3.55129 131.065 4.09306C130.623 5.05206 130.75 6.04616 131.406 6.77194C132.218 7.66934 133.488 7.70725 134.324 6.85902C134.887 6.28729 135.122 5.52805 134.974 4.75137C134.843 4.06128 134.488 3.43738 133.566 2.27815C133.295 1.93769 133.043 1.61893 133.006 1.56981C132.942 1.48372 132.921 1.50393 132.416 2.12846ZM133.287 3.56609C133.92 4.36964 134.1 4.7575 134.069 5.25078C134.026 5.92381 133.542 6.4278 132.937 6.43021C132.44 6.43216 132.064 6.18409 131.855 5.71496C131.619 5.18895 131.733 4.67773 132.242 3.97955C132.513 3.6074 132.924 3.10618 132.94 3.1267C132.946 3.13382 133.102 3.33155 133.287 3.56609ZM0 18.0312V26.9979H2.32015H4.64031L4.65079 19.9494L4.66127 12.9009L9.3329 12.8893L14.0045 12.8777V10.9711V9.06447H7.00227H0V18.0312ZM16.5734 16.1195C16.5734 20.6769 16.5887 23.3374 16.6165 23.6345C16.7972 25.564 17.8468 26.7994 19.453 26.9734C19.9114 27.023 21.5573 26.8277 23.6171 26.4793C25.1782 26.2153 28.0215 25.7296 28.1644 25.7026L28.2991 25.6771V26.3375V26.9979H30.6194H32.9397V18.0312V9.06447H30.6194H28.2991V15.461V21.8574L28.1644 21.8842C27.8294 21.9507 21.3749 23.048 21.3186 23.048C21.2622 23.048 21.2554 22.2932 21.2554 16.0562V9.06447H18.9144H16.5734V16.1195ZM39.6726 9.09693C39.1405 9.17756 38.3765 9.55471 37.9685 9.93812C37.435 10.4397 37.0935 10.9854 36.8676 11.6977L36.7308 12.129L36.7101 17.6453L36.6894 23.1615L36.099 23.1741L35.5085 23.1867V25.0922V26.9979H44.2717H53.0349V18.0312V9.06447L46.4159 9.07128C42.7755 9.075 39.741 9.08653 39.6726 9.09693ZM55.6452 18.0303V26.9979H57.9655H60.2858V25.0697V23.1416L64.6881 23.1279C68.7552 23.1154 69.1092 23.1083 69.3365 23.0341C69.9883 22.8215 70.3916 22.5765 70.8385 22.1216C71.2018 21.7516 71.4573 21.3735 71.6571 20.9101C71.9633 20.1996 71.9493 20.4297 71.9493 16.1016C71.9493 11.696 71.9711 12.0008 71.5967 11.1666C71.1762 10.2299 70.362 9.49714 69.3805 9.17202C69.1455 9.0942 68.7616 9.08894 62.3886 9.07614L55.6452 9.06261V18.0303ZM77.5221 9.09534C76.4066 9.30714 75.4213 10.0976 74.9178 11.1844C74.7546 11.5369 74.6243 12.0618 74.5788 12.551C74.5478 12.8835 74.5382 14.7226 74.5486 18.3717C74.5624 23.2385 74.57 23.7317 74.6349 23.9955C74.8167 24.7346 75.1092 25.3093 75.5698 25.832C76.0245 26.348 76.5343 26.6722 77.2114 26.8756L77.5429 26.9752H82.7221H87.9013L88.2534 26.8736C89.4494 26.529 90.3527 25.6012 90.7553 24.3041L90.8845 23.8879V18.0539V12.2198L90.7908 11.8658C90.5053 10.7865 89.7898 9.87374 88.8615 9.40457C88.191 9.06574 88.6636 9.09103 82.8464 9.08295C79.975 9.07895 77.5791 9.08449 77.5221 9.09534ZM93.4741 10.9704V12.8778L99.3266 12.8894L105.179 12.9009L105.19 14.5012L105.201 16.1016H101.098H96.9959V18.0082V19.9149L101.087 19.9264L105.179 19.938V21.5497V23.1615L99.3266 23.173L93.4741 23.1845V25.0922V27L100.176 26.9873L106.878 26.9747L107.209 26.8723C108.348 26.5205 109.247 25.6349 109.624 24.4911C109.831 23.8646 109.847 23.6247 109.833 21.4352L109.82 19.4365L109.683 19.1336C109.443 18.5992 109.038 18.2381 108.516 18.094L108.248 18.0201L108.465 17.9692C109.076 17.8255 109.602 17.2957 109.775 16.6495C109.872 16.2854 109.872 12.6337 109.775 12.1158C109.513 10.7181 108.528 9.5795 107.23 9.1727C106.973 9.09221 106.647 9.08771 100.217 9.07559L93.4741 9.06288V10.9704ZM115.211 9.13829C113.898 9.44915 112.896 10.4972 112.524 11.9474L112.431 12.3106L112.418 17.7815C112.409 21.607 112.419 23.3683 112.451 23.6382C112.557 24.5256 112.854 25.1698 113.466 25.8401C114.078 26.5105 114.665 26.8356 115.475 26.9516C115.722 26.9868 117.329 26.9978 120.82 26.988L125.813 26.9739L126.144 26.8728C127.373 26.4981 128.311 25.4866 128.659 24.1603L128.755 23.7971V18.0312C128.755 12.6642 128.75 12.2452 128.682 11.9756C128.487 11.2016 128.254 10.7634 127.74 10.1996C127.233 9.64465 126.861 9.40425 126.142 9.16875C125.912 9.09357 125.544 9.08753 120.696 9.0795C116.23 9.07205 115.456 9.08036 115.211 9.13829ZM48.3842 18.0198L48.3737 23.1615H44.8725H41.3714L41.3609 18.0198L41.3503 12.8782H44.8725H48.3947L48.3842 18.0198ZM67.3295 16.1016V19.3251H63.8077H60.2858V16.1016V12.8782H63.8077H67.3295V16.1016ZM86.2544 18.0198L86.2439 23.1615L82.7324 23.1731L79.2209 23.1847V18.0314V12.8782H82.7429H86.265L86.2544 18.0198ZM124.114 18.0312V23.1615L120.603 23.1731L117.091 23.1847V18.0312V12.8777L120.603 12.8892L124.114 12.9009V18.0312Z" fill="#020A18"/>
</svg>
