<svg width="113" height="28" viewBox="0 0 113 28" fill="none" xmlns="http://www.w3.org/2000/svg">
<path opacity="0.8" fill-rule="evenodd" clip-rule="evenodd" d="M4.02445 0.327441C3.70246 0.708344 3.71044 0.729866 4.90647 2.69126C5.33632 3.39585 5.68782 4.12691 5.68782 4.31566C5.68782 4.50457 4.56406 7.31933 3.19044 10.571C1.81698 13.8227 0.565905 16.8677 0.410656 17.338C-1.13943 22.028 1.87187 27.194 6.53395 27.8424C8.06425 28.0552 21.8998 28.0514 23.3188 27.8377C26.5555 27.3504 29.1223 24.577 29.6401 21.0073C29.9683 18.7454 29.8047 18.2414 25.6118 8.58314L21.8853 0H13.0933C4.63108 0 4.2909 0.0122982 4.02445 0.327441ZM23.2998 11.0061C26.5597 18.5054 26.6364 18.7072 26.6423 19.8027C26.653 21.785 25.6464 23.4766 23.9741 24.287L23.1592 24.6819L14.8285 24.6499C6.72796 24.619 6.47651 24.6081 5.73377 24.2569C3.8333 23.3583 2.70603 21.0937 3.13636 19.0385C3.22635 18.6084 4.49498 15.4362 5.95555 11.9892C8.46075 6.07669 8.61504 5.65189 8.68269 4.48151L8.75449 3.2411L14.3589 3.28585L19.9633 3.33077L23.2998 11.0061ZM110.693 3.48382C109.802 4.01264 109.64 5.17499 110.34 6.01435C110.963 6.7601 111.898 6.79751 112.547 6.10249C113.793 4.76881 112.236 2.56862 110.693 3.48382ZM39.669 3.45888C39.6666 3.48245 38.4931 8.26715 37.0612 14.0917L34.4577 24.6819L37.0936 24.7288C38.6324 24.7563 39.7674 24.7085 39.821 24.6141C39.8713 24.5251 40.414 22.3901 41.0267 19.8699C42.2672 14.7663 42.357 14.6774 42.3771 18.5328C42.3826 19.5662 42.4338 21.3941 42.4911 22.5948L42.5951 24.778L44.3374 24.7299L46.0798 24.6819L48.5408 19.9013C49.8943 17.272 51.0018 15.1876 51.0018 15.2695C51.0018 15.3513 50.4992 17.4678 49.8849 19.9727C49.2706 22.4778 48.768 24.5813 48.768 24.6472C48.768 24.7133 49.9707 24.7668 51.4406 24.7661L54.1131 24.7647L56.6512 14.3894C58.047 8.6829 59.2221 3.87958 59.2625 3.71509C59.3306 3.43804 59.1096 3.41618 56.2312 3.41618H53.1266L49.9561 8.73004C48.2121 11.6527 46.7664 13.978 46.7432 13.897C46.7018 13.7515 45.7364 3.84405 45.7364 3.56256C45.7364 3.43889 39.6816 3.33538 39.669 3.45888ZM66.2589 3.8005C66.1339 4.01179 63.7194 8.56606 60.8933 13.9209C58.0671 19.2758 55.6128 23.9069 55.4395 24.2122L55.1242 24.7673H58.0523H60.9801L61.5065 23.7424L62.0327 22.7176H64.3356H66.6383V23.7424V24.7673H69.135H71.6318L71.5274 17.9776C71.47 14.2432 71.3773 9.43941 71.3214 7.30208L71.2196 3.41618H68.8529C66.5721 3.41618 66.4778 3.43018 66.2589 3.8005ZM77.4275 3.71509C77.0994 4.90905 72.3823 24.4074 72.3823 24.5697C72.3823 24.7239 73.0494 24.7639 75.0452 24.7287L77.7078 24.6819L78.0052 23.4008C78.1688 22.6962 78.3716 21.8388 78.456 21.4951L78.6093 20.8706L80.8849 20.8119C83.0812 20.7553 83.1974 20.7338 84.2209 20.194C85.6328 19.4495 86.7094 18.173 87.6206 16.1636C89.307 12.4446 89.5184 7.732 88.102 5.4406C87.6426 4.69758 86.5098 3.84713 85.6311 3.58579C85.3209 3.49355 83.3667 3.41771 81.2883 3.4172C77.8267 3.41618 77.5028 3.44129 77.4275 3.71509ZM89.3909 13.7947C87.9954 19.5007 86.8203 24.3039 86.7794 24.4684C86.7098 24.7487 87.0408 24.7673 92.1139 24.7673H97.5223L98.0629 22.5041C98.3602 21.2594 98.6349 20.1449 98.6734 20.0273C98.7275 19.862 98.131 19.8138 96.0276 19.8138H93.3121L93.6571 18.4046L94.0022 16.9955L96.7206 16.9488L99.4389 16.9024L99.9785 14.6429C100.275 13.4003 100.55 12.2876 100.588 12.1701C100.642 12.0048 100.045 11.9566 97.937 11.9566H95.2161L95.4355 11.1453C95.5561 10.699 95.7345 10.0073 95.832 9.608L96.0089 8.88206H98.7091H101.409L101.566 8.24153C101.652 7.88932 101.942 6.71706 102.21 5.63669C102.478 4.55633 102.698 3.61466 102.698 3.54428C102.698 3.47391 100.275 3.41703 97.313 3.41806L91.928 3.41993L89.3909 13.7947ZM103.894 3.62969C103.855 3.7472 102.704 8.4166 101.336 14.0063C99.9682 19.596 98.8128 24.3039 98.7683 24.4684C98.6938 24.7447 98.8916 24.7673 101.384 24.7673H104.08L106.66 14.273C108.079 8.50116 109.24 3.69716 109.24 3.5974C109.24 3.31847 103.986 3.35007 103.894 3.62969ZM112.1 3.66607C113.269 4.31275 112.826 6.31993 111.515 6.31993C110.79 6.31993 110.44 6.0948 110.2 5.47237C109.943 4.81015 110.213 4.02391 110.818 3.67239C111.352 3.36135 111.548 3.36032 112.1 3.66607ZM110.835 4.86805C110.835 5.38475 110.907 5.8075 110.995 5.8075C111.083 5.8075 111.154 5.65377 111.154 5.46588C111.154 5.23819 111.261 5.12426 111.474 5.12426C111.686 5.12426 111.793 5.23819 111.793 5.46588C111.793 5.65377 111.858 5.8075 111.937 5.8075C112.016 5.8075 112.084 5.43104 112.087 4.97071C112.093 4.25126 112.044 4.12008 111.744 4.03365C110.914 3.79554 110.835 3.86797 110.835 4.86805ZM111.845 4.38261C111.988 4.53651 111.645 4.95346 111.374 4.95346C111.253 4.95346 111.154 4.79973 111.154 4.61184C111.154 4.27944 111.608 4.12896 111.845 4.38261ZM15.8196 6.17679L14.7027 6.86976L13.9024 6.42412C13.4622 6.17884 13.04 5.97831 12.9641 5.97831C12.8881 5.97831 11.938 6.52216 10.8525 7.18678L8.87894 8.39525L8.87639 9.45L8.87384 10.5047L7.59627 11.2623L6.31854 12.0198L6.36226 14.8361L6.40582 17.6526L7.52272 18.3551L8.63961 19.0578L8.71939 20.1259L8.79917 21.1938L10.7936 22.4501L12.7881 23.7064L13.6656 23.1883L14.5432 22.6703L15.7794 23.4541L17.0158 24.2378L19.2498 22.8587L21.4839 21.4794L21.4868 20.006L21.4895 18.5328L22.3244 18.013L23.1592 17.493V14.9458V12.3985L22.3244 11.8786L21.4895 11.3588L21.4868 9.7964L21.4839 8.23418L19.2496 6.84995C18.0207 6.08882 16.9976 5.46981 16.9759 5.47476C16.9542 5.47972 16.4339 5.79554 15.8196 6.17679ZM19.1694 7.21667L21.1558 8.45504L21.1603 11.0565L21.1648 13.6579L20.3271 14.1645C19.8665 14.4433 19.3945 14.7329 19.2787 14.8084C19.132 14.9039 19.3888 15.1432 20.1205 15.5933L21.1732 16.2407L21.129 18.7423L21.085 21.2438L19.0583 22.5012L17.0316 23.7587L14.9896 22.5044L12.9476 21.2503L12.901 19.9349L12.8544 18.6197L11.7821 19.2459L10.7095 19.8721L8.67742 18.6079L6.64516 17.3438V14.8428V12.3418L8.71556 11.039C9.85431 10.3223 10.8321 9.7361 10.8886 9.7361C10.945 9.7361 11.4049 10.0051 11.9105 10.3339C12.4161 10.6627 12.8712 10.9318 12.9219 10.9318C12.9725 10.9318 13.0349 10.3449 13.0606 9.62747L13.1072 8.323L15.0219 7.15125C16.0749 6.50679 16.9919 5.97933 17.0597 5.97899C17.1274 5.97865 18.0767 6.53566 19.1694 7.21667ZM83.7443 7.18354C84.2257 7.69887 84.2305 7.72158 84.1242 8.97788C83.9586 10.933 83.4732 12.7382 82.6373 14.5068C81.7724 16.3365 81.3205 16.7871 80.3278 16.8093C79.5038 16.8277 79.4631 17.3183 80.7016 12.2982C82.2311 6.09856 82.0324 6.66154 82.6905 6.66154C83.1091 6.66154 83.3837 6.79751 83.7443 7.18354ZM9.91909 9.07746C10.5343 9.46605 10.5281 9.48621 9.63684 10.0029L9.19806 10.2572V9.48433C9.19806 9.05919 9.22981 8.71125 9.26874 8.71125C9.30751 8.71125 9.6003 8.87608 9.91909 9.07746ZM13.2198 9.93971L13.2667 11.168L14.1159 11.7132L14.9652 12.2584L14.0361 12.853C13.5252 13.1801 12.5867 13.7689 11.9504 14.1616L10.7936 14.8754V17.1636V19.4517L11.8293 18.8214L12.8648 18.1911L12.8664 17.209C12.8672 16.6689 12.9141 16.2268 12.9706 16.2268C13.0271 16.2268 13.9686 16.7794 15.0632 17.4546L17.053 18.6826L17.8723 18.1903C21.0671 16.2712 20.9313 16.4877 19.4789 15.6288L18.6704 15.1509L17.9491 15.6034C17.5523 15.8524 17.18 16.056 17.1219 16.056C17.0639 16.056 17.0163 14.9131 17.0163 13.5164V10.9769L15.1884 9.84406C14.1831 9.22094 13.3183 8.71125 13.2667 8.71125C13.2152 8.71125 13.1941 9.26399 13.2198 9.93971ZM22.3008 12.2858L22.8064 12.6149L22.2648 12.9683C21.9669 13.1627 21.6693 13.3221 21.6036 13.3224C21.5378 13.3227 21.4839 13.0156 21.4839 12.6399C21.4839 11.8664 21.5876 11.8215 22.3008 12.2858ZM66.4787 16.7393V18.789H65.3619C64.7476 18.789 64.245 18.7381 64.245 18.6759C64.245 18.6137 64.4139 18.2485 64.6204 17.8646C66.0192 15.2626 66.3415 14.6896 66.406 14.6896C66.446 14.6896 66.4787 15.6119 66.4787 16.7393ZM13.8368 22.4614C13.8163 22.5553 13.5898 22.7743 13.3336 22.9478L12.8678 23.2635V22.4624V21.6613L13.3711 21.9759C13.6479 22.149 13.8574 22.3674 13.8368 22.4614Z" fill="#020A18"/>
</svg>
