<svg width="100" height="27" viewBox="0 0 100 27" fill="none" xmlns="http://www.w3.org/2000/svg">
<g opacity="0.8" clip-path="url(#clip0_174_319)">
<path d="M78.1522 18.0032C78.1522 22.6044 74.4 26.3344 69.7714 26.3344C65.1428 26.3344 61.3906 22.6044 61.3906 18.0032C61.3906 13.4019 65.1428 9.67188 69.7714 9.67188C74.4 9.67188 78.1522 13.4019 78.1522 18.0032Z" fill="#57B8FF"/>
<path d="M15.7406 11.1074C15.7406 10.4043 15.604 9.74112 15.3307 9.1179C15.0575 8.4787 14.6877 7.92738 14.2215 7.46395C13.7393 7.00053 13.1846 6.63299 12.5577 6.36133C11.9147 6.08966 11.2396 5.95384 10.5323 5.95384C10.5323 4.81925 10.5323 3.10938 10.5323 0.824219C11.963 0.824219 13.3133 1.08789 14.5831 1.61524C15.8531 2.15856 16.9623 2.89365 17.9108 3.82049C18.8592 4.76331 19.6067 5.85795 20.1533 7.10441C20.6998 8.35085 20.973 9.68519 20.973 11.1074C20.105 11.1074 19.237 11.1074 18.3689 11.1074C17.5008 11.1074 16.6248 11.1074 15.7406 11.1074ZM10.5323 5.95384C9.8089 5.95384 9.1257 6.08966 8.4827 6.36133C7.85577 6.63299 7.30118 7.00053 6.81892 7.46395C6.35275 7.92738 5.98302 8.4787 5.70974 9.1179C5.43647 9.74112 5.29982 10.4043 5.29982 11.1074C4.12634 11.1074 2.3822 11.1074 0.0673828 11.1074C0.0673828 10.1167 0.204022 9.15785 0.477298 8.231C0.750575 7.32014 1.13638 6.47319 1.6347 5.69016C2.55099 4.21999 3.79681 3.03746 5.37217 2.14258C6.93145 1.26367 8.65149 0.824219 10.5323 0.824219C10.5323 1.67116 10.5323 2.52611 10.5323 3.38903C10.5323 4.25196 10.5323 5.10689 10.5323 5.95384ZM31.438 11.1074C31.438 10.4043 31.3013 9.74112 31.0281 9.1179C30.7547 8.4787 30.377 7.92738 29.8947 7.46395C29.4286 7.00053 28.874 6.63299 28.2309 6.36133C27.604 6.08966 26.9288 5.95384 26.2055 5.95384C26.2055 4.81925 26.2055 3.10938 26.2055 0.824219C27.6523 0.824219 29.0105 1.08789 30.2806 1.61524C31.5504 2.15856 32.6597 2.89365 33.6081 3.82049C34.5404 4.76331 35.288 5.85795 35.8506 7.10441C36.3971 8.35085 36.6704 9.68519 36.6704 11.1074C35.7862 11.1074 34.9102 11.1074 34.0422 11.1074C33.174 11.1074 32.306 11.1074 31.438 11.1074ZM26.2055 5.95384C25.4822 5.95384 24.807 6.08966 24.1801 6.36133C23.537 6.63299 22.9824 7.00053 22.5162 7.46395C22.034 7.92738 21.6562 8.4787 21.383 9.1179C21.1097 9.74112 20.973 10.4043 20.973 11.1074C19.8156 11.1074 18.0715 11.1074 15.7406 11.1074C15.7406 10.1167 15.8772 9.15785 16.1506 8.231C16.4238 7.32014 16.8096 6.47319 17.308 5.69016C18.2403 4.21999 19.4861 3.03746 21.0454 2.14258C22.6046 1.26367 24.3247 0.824219 26.2055 0.824219C26.2055 1.67116 26.2055 2.52611 26.2055 3.38903C26.2055 4.25196 26.2055 5.10689 26.2055 5.95384ZM0.0673828 11.1074C1.22479 11.1074 2.96894 11.1074 5.29982 11.1074C5.29982 13.3925 5.29982 16.8283 5.29982 21.4146C4.12634 21.4146 2.3822 21.4146 0.0673828 21.4146C0.0673828 19.1135 0.0673828 15.6777 0.0673828 11.1074ZM31.438 11.1074C32.5954 11.1074 34.3394 11.1074 36.6704 11.1074C36.6704 13.3925 36.6704 16.8203 36.6704 21.3907C35.4968 21.3907 33.7528 21.3907 31.438 21.3907C31.438 19.1055 31.438 15.6777 31.438 11.1074ZM15.7406 11.1074C16.9141 11.1074 18.6582 11.1074 20.973 11.1074C20.973 13.3925 20.973 16.8203 20.973 21.3907C19.8156 21.3907 18.0715 21.3907 15.7406 21.3907C15.7406 19.1055 15.7406 15.6777 15.7406 11.1074Z" fill="#020A18"/>
<path d="M52.7004 21.2706C51.543 21.2706 49.815 21.2706 47.5162 21.2706C47.5162 20.12 47.5162 18.4022 47.5162 16.117C48.6736 16.117 50.4017 16.117 52.7004 16.117C52.7004 17.2516 52.7004 18.9695 52.7004 21.2706ZM52.7004 5.80984C51.543 5.80984 49.815 5.80984 47.5162 5.80984C47.5162 4.65927 47.5162 2.94141 47.5162 0.65625C48.6736 0.65625 50.4017 0.65625 52.7004 0.65625C52.7004 1.80682 52.7004 3.52468 52.7004 5.80984ZM42.3561 10.9634C42.3561 11.6825 42.4847 12.3537 42.7419 12.9769C43.0152 13.6001 43.385 14.1435 43.8511 14.6069C44.3334 15.0703 44.8879 15.4379 45.5148 15.7096C46.1418 15.9812 46.8089 16.117 47.5162 16.117C47.5162 17.2516 47.5162 18.9695 47.5162 21.2706C46.0856 21.2706 44.7432 20.999 43.4894 20.4556C42.2356 19.9122 41.1425 19.1772 40.2101 18.2504C39.2616 17.3075 38.5222 16.2129 37.9918 14.9665C37.4452 13.72 37.1719 12.3856 37.1719 10.9634C38.0399 10.9634 38.9 10.9634 39.752 10.9634C40.62 10.9634 41.488 10.9634 42.3561 10.9634ZM47.5162 5.80984C46.8089 5.80984 46.1418 5.94566 45.5148 6.21733C44.8879 6.48899 44.3334 6.85653 43.8511 7.31996C43.385 7.78338 43.0152 8.3347 42.7419 8.9739C42.4847 9.59713 42.3561 10.2603 42.3561 10.9634C41.1987 10.9634 39.4706 10.9634 37.1719 10.9634C37.1719 9.97265 37.3085 9.01384 37.5819 8.08701C37.8551 7.17614 38.2329 6.32919 38.7151 5.54616C39.6314 4.076 40.8692 2.89347 42.4284 1.99858C43.9716 1.11967 45.6676 0.68022 47.5162 0.68022C47.5162 1.52716 47.5162 2.3821 47.5162 3.24502C47.5162 4.10796 47.5162 4.96289 47.5162 5.80984Z" fill="#020A18"/>
<path d="M68.7072 21.2706C67.5498 21.2706 65.8217 21.2706 63.523 21.2706C63.523 20.12 63.523 18.4022 63.523 16.117C64.6804 16.117 66.4085 16.117 68.7072 16.117C68.7072 17.2516 68.7072 18.9695 68.7072 21.2706ZM68.7072 5.80984C67.5498 5.80984 65.8217 5.80984 63.523 5.80984C63.523 4.65927 63.523 2.94141 63.523 0.65625C64.6804 0.65625 66.4085 0.65625 68.7072 0.65625C68.7072 1.80682 68.7072 3.52468 68.7072 5.80984ZM58.3629 10.9634C58.3629 11.6825 58.4914 12.3537 58.7487 12.9769C59.0219 13.6001 59.3917 14.1435 59.8578 14.6069C60.3401 15.0703 60.8948 15.4379 61.5217 15.7096C62.1486 15.9812 62.8157 16.117 63.523 16.117C63.523 17.2516 63.523 18.9695 63.523 21.2706C62.0923 21.2706 60.7501 20.999 59.4962 20.4556C58.2423 19.9122 57.1492 19.1772 56.2169 18.2504C55.2685 17.3075 54.529 16.2129 53.9985 14.9665C53.4519 13.72 53.1787 12.3856 53.1787 10.9634C54.0467 10.9634 54.9067 10.9634 55.7587 10.9634C56.6267 10.9634 57.4949 10.9634 58.3629 10.9634ZM63.523 5.80984C62.8157 5.80984 62.1486 5.94566 61.5217 6.21733C60.8948 6.48899 60.3401 6.85653 59.8578 7.31996C59.3917 7.78338 59.0219 8.3347 58.7487 8.9739C58.4914 9.59713 58.3629 10.2603 58.3629 10.9634C57.2055 10.9634 55.4774 10.9634 53.1787 10.9634C53.1787 9.97265 53.3153 9.01384 53.5886 8.08701C53.8618 7.17614 54.2396 6.32919 54.7219 5.54616C55.6382 4.076 56.876 2.89347 58.4353 1.99858C59.9785 1.11967 61.6744 0.68022 63.523 0.68022C63.523 1.52716 63.523 2.3821 63.523 3.24502C63.523 4.10796 63.523 4.96289 63.523 5.80984Z" fill="#020A18"/>
<path d="M79.5723 12.1787C80.1429 12.1787 81.007 12.1787 82.1644 12.1787C82.1644 14.4719 82.1644 17.9115 82.1644 22.4979C81.5856 22.4979 80.7216 22.4979 79.5723 22.4979C79.5723 20.2047 79.5723 16.765 79.5723 12.1787ZM84.7444 22.4979C84.7444 22.1383 84.6761 21.8027 84.5394 21.4911C84.4108 21.1795 84.226 20.9078 83.9849 20.6761C83.7518 20.4444 83.4784 20.2607 83.165 20.1248C82.8515 19.989 82.5179 19.9211 82.1644 19.9211C82.1644 19.3538 82.1644 18.4949 82.1644 17.3443C82.8797 17.3443 83.5508 17.4802 84.1777 17.7518C84.8047 18.0235 85.3513 18.3909 85.8174 18.8545C86.2916 19.3259 86.6614 19.8731 86.9266 20.4963C87.1999 21.1196 87.3365 21.7868 87.3365 22.4979C86.9025 22.4979 86.4725 22.4979 86.0465 22.4979C85.6124 22.4979 85.1784 22.4979 84.7444 22.4979ZM84.7444 17.3323C84.7444 16.9808 84.6761 16.6492 84.5394 16.3376C84.4108 16.018 84.226 15.7422 83.9849 15.5105C83.7518 15.2788 83.4784 15.0951 83.165 14.9592C82.8515 14.8234 82.5179 14.7555 82.1644 14.7555C82.1644 14.1882 82.1644 13.3333 82.1644 12.1907C82.8797 12.1907 83.5508 12.3225 84.1777 12.5862C84.8047 12.8579 85.3513 13.2255 85.8174 13.6889C86.2916 14.1603 86.6614 14.7075 86.9266 15.3308C87.1999 15.954 87.3365 16.6212 87.3365 17.3323C86.9025 17.3323 86.4725 17.3323 86.0465 17.3323C85.6124 17.3323 85.1784 17.3323 84.7444 17.3323Z" fill="#020A18"/>
<path d="M99.0545 17.332C99.0545 18.0431 98.918 18.7104 98.6447 19.3336C98.3713 19.9647 98.0017 20.5121 97.5355 20.9755C97.0694 21.4389 96.5187 21.8065 95.8838 22.0781C95.2569 22.3498 94.5857 22.4856 93.8703 22.4856C93.8703 21.9103 93.8703 21.0514 93.8703 19.9088C94.2321 19.9088 94.5696 19.8409 94.8831 19.7051C95.1965 19.5692 95.4698 19.3855 95.7029 19.1538C95.936 18.9221 96.1208 18.6503 96.2575 18.3387C96.3942 18.0271 96.4624 17.6916 96.4624 17.332C96.8965 17.332 97.3265 17.332 97.7524 17.332C98.1865 17.332 98.6206 17.332 99.0545 17.332ZM93.8703 22.4856C92.946 22.4856 92.0981 22.2618 91.3265 21.8145C90.5469 21.367 89.928 20.7757 89.4698 20.0407C89.2286 19.6491 89.0397 19.2257 88.9032 18.7702C88.7665 18.3148 88.6982 17.8354 88.6982 17.332C89.2689 17.332 90.1329 17.332 91.2903 17.332C91.2903 17.6916 91.3545 18.0271 91.4832 18.3387C91.6199 18.6503 91.8047 18.9221 92.0377 19.1538C92.2789 19.3855 92.5563 19.5692 92.8697 19.7051C93.1832 19.8409 93.5168 19.9088 93.8703 19.9088C93.8703 20.3403 93.8703 20.7678 93.8703 21.1913C93.8703 21.6227 93.8703 22.0542 93.8703 22.4856ZM88.6982 12.1904C89.2689 12.1904 90.1329 12.1904 91.2903 12.1904C91.2903 13.3331 91.2903 15.0468 91.2903 17.332C90.7116 17.332 89.8475 17.332 88.6982 17.332C88.6982 16.1894 88.6982 14.4755 88.6982 12.1904ZM96.4624 12.1904C97.0412 12.1904 97.9052 12.1904 99.0545 12.1904C99.0545 13.3331 99.0545 15.0468 99.0545 17.332C98.4759 17.332 97.6118 17.332 96.4624 17.332C96.4624 16.1894 96.4624 14.4755 96.4624 12.1904Z" fill="#020A18"/>
</g>
<defs>
<clipPath id="clip0_174_319">
<rect width="100" height="27" fill="white"/>
</clipPath>
</defs>
</svg>
