<svg width="138" height="38" viewBox="0 0 138 38" fill="none" xmlns="http://www.w3.org/2000/svg">
<path opacity="0.8" fill-rule="evenodd" clip-rule="evenodd" d="M18.5304 0.260938C17.6287 0.534219 17.4912 0.719684 17.4912 1.66273C17.4912 3.0819 16.9825 3.50657 13.3844 5.09186C11.7409 5.8157 10.328 6.47793 10.2445 6.56345C10.1611 6.6493 10.2717 7.01302 10.4907 7.37183C11.1532 8.45938 10.4859 10.0483 8.84885 11.282C5.97851 13.4443 5.66068 13.8306 5.66068 15.1541C5.66068 15.9822 5.32911 16.9213 4.65988 17.9902C3.61784 19.6547 3.0164 19.8615 2.8383 18.6167C2.65509 17.3371 1.9897 18.0793 1.82055 19.7517C1.73071 20.6388 1.24693 22.6523 0.745255 24.2262C0.209364 25.9078 -0.0883182 27.4079 0.0232725 27.8637C0.241338 28.7543 2.78586 30.2646 5.82056 31.3049C7.39977 31.8466 8.02167 31.9075 9.33774 31.6506C10.9042 31.3449 10.9556 31.3606 11.8957 32.4364C12.4233 33.0403 13.0145 33.8189 13.2092 34.1669C13.5187 34.7196 14.0421 34.8199 17.3611 34.9631L21.1584 35.1269L21.9305 36.5635L22.7024 38L23.794 36.6533C24.6986 35.5372 25.2802 35.1859 27.1836 34.6059C30.7229 33.5272 32.4575 32.4728 35.237 29.7095L37.795 27.1667L39.4736 27.3384C41.3931 27.5347 41.4727 27.3889 40.5077 25.45L39.8628 24.1547L40.9675 21.9065L42.0725 19.6584L43.7029 19.4604C44.5995 19.3517 45.9216 18.9247 46.6404 18.5115L47.9478 17.7601L45.5923 17.5154C42.5509 17.1995 42.6954 17.2755 42.2855 15.7747L41.9325 14.4834L39.0644 14.2327C36.3638 13.9964 36.1435 13.9198 35.2962 12.922C34.3542 11.8128 32.1995 8.0855 32.1995 7.56516C32.1995 7.39935 32.9675 6.88294 33.9062 6.41731L35.6134 5.57059L37.1152 6.35276C38.8169 7.23912 39.2338 7.13656 39.2338 5.83142C39.2338 4.72028 38.6525 4.17437 36.3309 3.10483L34.547 2.28302L31.8544 3.08943L29.1619 3.89552L25.9644 3.31782C24.2058 2.99998 22.7085 2.69295 22.6372 2.63528C22.5659 2.5776 22.4204 1.97599 22.3136 1.29803C22.1294 0.125935 22.0575 0.062694 20.8447 0.00567843C20.1435 -0.0274168 19.1021 0.0875973 18.5304 0.260938ZM40.257 0.622692C40.046 0.838958 39.8733 1.16205 39.8733 1.34063C39.8733 1.51921 40.0533 1.42845 40.273 1.13878C40.493 0.849443 40.9604 0.543394 41.3122 0.458854C41.9379 0.308778 41.9376 0.304846 41.2962 0.267491C40.9355 0.24652 40.468 0.406426 40.257 0.622692ZM42.3644 1.43762C42.4751 2.03137 42.343 2.43441 41.9373 2.73817C41.6143 2.98032 41.4925 3.17856 41.6668 3.17856C42.5246 3.17856 43.1859 1.19875 42.4773 0.750158C42.327 0.654804 42.2762 0.96413 42.3644 1.43762ZM21.0084 1.21251C21.0084 1.39273 20.7839 1.54018 20.5096 1.54018C20.1285 1.54018 20.0341 1.8305 20.1099 2.76897C20.2055 3.9545 20.2484 3.9948 21.3281 3.91223C23.8135 3.72218 25.4273 3.82769 27.4672 4.3133C29.5718 4.81465 29.6473 4.80908 31.7419 4.00103C33.9462 3.15071 35.5421 2.95148 35.8644 3.48592C36.0559 3.80377 35.7003 4.10261 33.002 5.89008C32.1243 6.47137 31.3624 7.18341 31.3086 7.47275C31.2552 7.76209 32.4409 10.0611 33.9437 12.5815C35.4634 15.1312 36.6759 17.5304 36.6759 17.9888C36.6759 18.442 36.1515 19.5165 35.5107 20.3766L34.3456 21.9406L33.1341 19.3589C32.0588 17.0674 31.5638 16.4547 28.7321 13.9099C26.9774 12.3332 25.457 11.0428 25.3534 11.0428C25.2498 11.0428 25.1651 11.4189 25.1651 11.8787C25.1651 12.9584 27.1536 14.8687 28.7401 15.3134C30.2394 15.7338 30.9253 16.8607 32.0664 20.779L32.9457 23.7976L32.0031 25.3665C30.4748 27.9102 26.0354 29.8232 21.0186 30.0994L18.9812 30.2118L16.5493 27.0088C15.2114 25.2472 13.669 23.5266 13.1216 23.1855C12.4645 22.7759 11.9718 22.0897 11.6712 21.166C11.4209 20.3966 11.0631 19.7147 10.876 19.6508C10.6893 19.5872 10.0092 20.2865 9.36524 21.2053C8.24837 22.7985 8.13358 22.8709 6.87987 22.7755C5.80457 22.6936 5.39018 22.4521 4.59817 21.4465L3.63031 20.2177L4.57451 19.0223C5.17723 18.2589 5.99577 17.6828 6.8399 17.4272C8.58155 16.9003 9.9849 15.8468 10.5835 14.6171C11.0615 13.6347 11.0548 13.6154 10.1234 13.2824C9.60345 13.0966 9.17787 12.748 9.17787 12.5075C9.17787 11.8859 10.9358 10.684 12.3197 10.3596C13.8634 9.99782 21.2917 10.6777 22.1189 11.2568C22.9668 11.8502 23.4206 11.8164 22.9189 11.1968C22.6087 10.8137 22.5979 10.5051 22.8732 9.88608C23.223 9.09933 24.0441 8.78771 24.2592 9.36049C24.3178 9.51646 24.6535 9.53023 25.0052 9.39064C25.5606 9.17044 25.4663 9.05772 24.289 8.53344C23.5433 8.2015 22.932 7.76799 22.9301 7.57007C22.9253 7.02023 25.2664 6.06047 26.3142 6.18302C26.994 6.26232 27.2709 6.4894 27.3457 7.02875C27.4743 7.95673 27.912 7.97344 28.3843 7.06905C28.8137 6.24659 28.4732 5.92612 26.8239 5.60074C24.7804 5.19737 23.0797 5.66103 20.022 7.4544C17.7304 8.7982 16.6621 9.23008 15.3525 9.34116L13.6543 9.48566V8.37058C13.6543 7.63135 13.4388 7.09625 13.0148 6.78299C12.6631 6.52315 12.3753 6.223 12.3753 6.11585C12.3753 5.87009 16.1048 4.55021 17.1625 4.42176C17.8212 4.34148 18.0003 4.07967 18.2356 2.85089C18.3907 2.03989 18.6826 1.26789 18.8837 1.1355C19.4282 0.777682 21.0084 0.834698 21.0084 1.21251ZM40.7926 1.04867C40.7705 1.13878 40.7168 1.35996 40.6727 1.54018C40.6286 1.72041 40.5726 2.05234 40.548 2.27745C40.5166 2.56253 40.4089 2.53763 40.1931 2.19553C40.0226 1.9252 39.881 1.87015 39.8781 2.07364C39.8717 2.55958 40.79 3.33159 41.0535 3.06158C41.1664 2.94558 41.0954 2.85089 40.8959 2.85089C40.6963 2.85089 40.6158 2.62971 40.7168 2.35937C40.8182 2.08904 41.1015 1.86786 41.3464 1.86786C41.5913 1.86786 41.7918 1.64668 41.7918 1.37635C41.7918 0.937588 40.8917 0.64268 40.7926 1.04867ZM103.781 1.97042C104.352 2.68967 106.17 2.68967 106.741 1.97042C107.132 1.4776 107.11 1.44778 106.54 1.69616C105.726 2.05136 104.796 2.05136 103.982 1.69616C103.412 1.44778 103.391 1.4776 103.781 1.97042ZM21.9676 2.72211C21.9676 2.97311 21.8413 3.17856 21.6869 3.17856C21.2882 3.17856 20.657 2.33709 20.8824 2.10608C21.1916 1.78954 21.9676 2.22994 21.9676 2.72211ZM58.5026 3.90338C57.4714 4.17699 56.5 5.49457 56.5 6.61916C56.5 8.49707 58.7242 10.0951 60.4185 9.43487C62.1966 8.74217 62.823 6.3 61.6233 4.73699C60.8831 3.77264 59.9414 3.52131 58.5026 3.90338ZM50.7446 4.19993C50.7446 4.4044 51.0266 4.49025 51.3841 4.39424C51.9836 4.23368 52.0236 4.38441 52.0236 6.8138C52.0236 10.1577 52.6068 10.2 52.7296 6.86491C52.8188 4.44273 52.8562 4.33001 53.5424 4.42799C53.9382 4.48435 54.2618 4.3736 54.2618 4.18223C54.2618 3.97842 53.5318 3.83391 52.5032 3.83391C51.4215 3.83391 50.7446 3.97481 50.7446 4.19993ZM65.1331 7.76602C65.1331 10.1689 65.2575 11.6981 65.4529 11.6981C65.6287 11.6981 65.7726 11.0346 65.7726 10.2236C65.7726 9.41259 65.8282 8.74905 65.896 8.74905C65.9638 8.74905 66.4313 8.96925 66.9352 9.2386C68.2404 9.93622 68.8255 9.85528 69.9561 8.81983C71.9817 6.96518 70.8914 3.83391 68.2199 3.83391C67.4797 3.83391 66.696 4.06198 66.3574 4.37622C65.8132 4.88084 65.7726 4.88084 65.7726 4.37622C65.7726 4.07803 65.6287 3.83391 65.4529 3.83391C65.2575 3.83391 65.1331 5.36318 65.1331 7.76602ZM74.0859 6.61916C74.0859 8.25753 74.2177 9.4044 74.4057 9.4044C74.5905 9.4044 74.7254 8.36665 74.7254 6.94683V4.48926H75.6847C76.2122 4.48926 76.6439 4.34181 76.6439 4.16159C76.6439 3.98137 76.0684 3.83391 75.3649 3.83391H74.0859V6.61916ZM79.8768 4.61444C78.6292 5.97527 78.9531 8.43087 80.4875 9.24417C81.6418 9.85594 82.195 9.85725 83.3397 9.25039C84.9771 8.38303 85.2492 6.1011 83.8983 4.57118C82.972 3.52229 80.8568 3.54523 79.8768 4.61444ZM87.835 6.61916V9.4044H89.2098C89.966 9.4044 90.7574 9.22745 90.9684 9.01119C91.505 8.46135 91.4468 7.27123 90.8591 6.77153C90.517 6.48055 90.4677 6.24757 90.6992 6.01033C91.6645 5.02108 90.6372 3.83391 88.8153 3.83391H87.835V6.61916ZM94.2298 6.61916V9.4044H95.646C97.0928 9.4044 98.0668 8.8018 98.0668 7.90659C98.0668 7.10575 96.8358 6.12764 95.8286 6.12764C94.9454 6.12764 94.8693 6.03655 94.8693 4.98078C94.8693 4.35 94.7254 3.83391 94.5496 3.83391C94.3616 3.83391 94.2298 4.98078 94.2298 6.61916ZM99.026 6.78299C99.026 8.53049 99.1561 9.73207 99.3457 9.73207C99.5354 9.73207 99.6655 8.53049 99.6655 6.78299C99.6655 5.0355 99.5354 3.83391 99.3457 3.83391C99.1561 3.83391 99.026 5.0355 99.026 6.78299ZM102.863 6.69157V9.54923L104.941 7.43835L107.02 5.32746V7.3466C107.02 8.45709 107.163 9.45683 107.339 9.56824C107.543 9.69734 107.659 8.7284 107.659 6.89375V4.01676L105.581 6.12764L103.502 8.23853V6.03622C103.502 4.78647 103.364 3.83391 103.183 3.83391C102.994 3.83391 102.863 5.00503 102.863 6.69157ZM114.908 6.46286C114.276 7.90037 113.609 9.07672 113.427 9.07672C113.244 9.07672 113.095 9.37163 113.095 9.73207C113.095 10.4536 113.603 10.6273 113.814 9.97783C113.971 9.49779 118.302 9.60264 118.477 10.0906C118.536 10.2541 118.716 10.3874 118.877 10.3874C119.329 10.3874 119.223 9.16782 118.755 8.98366C118.527 8.89421 117.926 7.76471 117.419 6.474C116.912 5.18328 116.398 4.0646 116.277 3.98825C116.156 3.91157 115.54 5.02534 114.908 6.46286ZM122.343 4.79171C121.705 5.44542 121.408 6.07784 121.408 6.78299C121.408 8.09599 122.914 9.73207 124.122 9.73207C126.888 9.73207 128.215 6.62735 126.267 4.71438C125.03 3.50034 123.575 3.52918 122.343 4.79171ZM135.101 6.22103L133.957 8.58521L132.89 6.3734C132.303 5.15707 131.734 4.16159 131.626 4.16159C131.438 4.16159 129.71 8.98268 129.718 9.48632C129.72 9.62165 129.839 9.73207 129.982 9.73207C130.125 9.73207 130.58 8.75167 130.993 7.55369L131.744 5.37497L132.851 7.6261L133.958 9.87724L135.086 7.59268L136.214 5.30845L136.905 7.41803C137.285 8.57833 137.761 9.58397 137.963 9.65278C138.257 9.75337 136.719 4.34247 136.344 3.9581C136.29 3.9024 135.73 4.92049 135.101 6.22103ZM61.1382 5.14658C62.4847 6.67158 60.6999 9.56463 58.8287 8.89028C57.5142 8.41646 56.9218 7.12935 57.4346 5.86124C58.0895 4.24089 60.0108 3.86996 61.1382 5.14658ZM69.6533 5.02141C71.0039 6.27379 69.9689 9.07672 68.1563 9.07672C67.2668 9.07672 65.7726 7.76045 65.7726 6.97731C65.7726 4.74911 68.0968 3.57767 69.6533 5.02141ZM83.4385 5.08137C84.2791 5.82094 84.188 7.92036 83.2872 8.56653C81.6975 9.70783 79.8413 8.68613 79.8413 6.66995C79.8413 4.55906 81.8413 3.67565 83.4385 5.08137ZM90.2951 5.02829C90.4185 5.35826 90.2669 5.73935 89.904 6.01132C88.9483 6.72729 88.4744 6.54871 88.4744 5.47229C88.4744 4.63901 88.5975 4.48926 89.2837 4.48926C89.74 4.48926 90.1812 4.72454 90.2951 5.02829ZM125.872 5.20655C127.865 7.3987 124.918 10.4156 122.787 8.36436C121.871 7.48193 121.846 6.47924 122.71 5.35269C123.544 4.26645 124.958 4.20091 125.872 5.20655ZM117.552 8.66713C117.564 8.93713 117.081 9.07672 116.132 9.07672C115.328 9.07672 114.693 8.92272 114.693 8.72775C114.693 8.53606 115.011 7.6225 115.399 6.69813L116.104 5.01748L116.818 6.63751C117.211 7.52846 117.541 8.44202 117.552 8.66713ZM90.2103 7.29777C90.4866 7.58121 90.7127 7.92036 90.7127 8.05143C90.7127 8.53802 89.9229 9.07672 89.2098 9.07672C88.5825 9.07672 88.4744 8.9083 88.4744 7.92986C88.4744 7.01564 88.5995 6.78299 89.0912 6.78299C89.4302 6.78299 89.9338 7.01466 90.2103 7.29777ZM97.0554 7.72899C97.176 8.60094 96.6698 9.06427 95.5888 9.07181C94.9764 9.07607 94.8693 8.90306 94.8693 7.90922C94.8693 6.78922 94.9118 6.74564 95.9085 6.84427C96.7248 6.92488 96.9707 7.1146 97.0554 7.72899ZM13.3345 8.23067C13.3345 8.75396 12.8725 9.4044 12.501 9.4044C12.256 9.4044 12.0556 9.3428 12.0556 9.26743C12.0556 9.19207 11.9683 8.89716 11.8615 8.61208C11.715 8.22116 11.8724 8.0937 12.501 8.0937C12.9595 8.0937 13.3345 8.1553 13.3345 8.23067ZM22.4815 9.59511C22.3747 9.88019 22.2874 10.1751 22.2874 10.2505C22.2874 10.3258 21.8919 10.3841 21.4081 10.3802L20.5288 10.373L21.3281 9.73207C22.3005 8.95253 22.7417 8.90011 22.4815 9.59511ZM125.628 14.313C123.249 15.1902 121.094 16.8754 119.97 18.7386C119.124 20.1391 119.01 20.6234 119.01 22.8122C119.01 24.1786 119.133 25.702 119.284 26.1978L119.559 27.0989H115.496H111.434L109.946 25.4137C109.128 24.4867 108.41 23.6006 108.351 23.444C108.292 23.2877 109.837 21.0968 111.785 18.5757L115.327 13.9919H112.001H108.676L106.649 16.7991L104.622 19.6059L104.529 16.7991L104.437 13.9919H101.252H98.0668V23.3306V32.6694H101.264H104.462L104.473 29.966L104.484 27.2627L106.951 29.9801L109.418 32.6972L115.653 32.6015L121.888 32.5055L121.987 31.2849L122.085 30.064L123.747 31.0254C126.167 32.4249 129.075 33.1091 131.48 32.8453C133.383 32.6363 135.915 31.6254 137.226 30.5506C137.836 30.0503 137.797 29.9746 135.934 28.0659L134.013 26.0972L132.967 26.6316C130.392 27.9482 127.049 27.3414 125.859 25.3409C124.912 23.75 125.039 21.689 126.154 20.5467C127.824 18.8346 130.845 18.5305 133.079 19.8491L134.038 20.4156L135.94 18.3195L137.843 16.2237L137.06 15.5998C134.753 13.7631 128.904 13.1048 125.628 14.313ZM50.7446 16.7771V19.5623H52.823H54.9013V26.1159V32.6694H58.4185H61.9357V29.7593V26.8495L65.3512 26.611C67.2297 26.4796 69.3256 26.1703 70.0082 25.9235C72.5601 25.0008 74.0805 23.1471 74.0837 20.955L74.0859 19.5623H75.8445H77.6031V26.1159V32.6694H86.7159H95.8286V29.8841V27.0989H89.9133H83.998V25.952V24.8052H87.1955H90.3929V23.1668V21.5284H87.1955H83.998V20.5454V19.5623H89.1139H94.2298V16.7771V13.9919H83.6783H73.1267V15.1957V16.3999L72.4028 15.703C70.7408 14.1026 69.9392 13.9919 60.0274 13.9919H50.7446V16.7771ZM41.1523 15.6302C41.504 15.9907 41.7918 16.5038 41.7918 16.7709C41.7918 17.2532 42.0594 17.3528 44.5096 17.7834C45.9852 18.0426 45.833 18.1225 43.3086 18.4142L41.4682 18.6268L40.1953 20.9789C38.9297 23.3169 38.6244 24.583 39.2322 24.968C39.4071 25.0788 39.6987 25.4536 39.8803 25.8013C40.1892 26.3931 40.1195 26.4206 38.7942 26.2345C37.3943 26.0379 37.3467 26.0638 34.6122 28.5138C30.3446 32.3374 29.0404 33.1166 25.7723 33.7953C25.276 33.8985 24.5809 34.4994 24.0501 35.2849C23.5603 36.009 23.0401 36.6015 22.8936 36.6015C22.7472 36.6015 22.421 36.1958 22.1684 35.7004C21.7288 34.8383 21.5596 34.7852 18.2413 34.4716L14.7734 34.1439L14.0642 32.7031C13.6741 31.9105 13.4321 31.1345 13.5261 30.9782C13.6204 30.8223 15.2345 30.7856 17.113 30.8966C19.8628 31.0598 21.1213 30.9714 23.5664 30.4445C30.1911 29.0171 31.4461 28.114 35.1987 22.0743C37.3867 18.5525 37.3972 18.5243 37.1942 16.7542L36.9902 14.9749H38.7513C40.0866 14.9749 40.6676 15.1335 41.1523 15.6302ZM67.8663 19.3766C68.2602 19.9926 68.2967 20.3258 68.0262 20.8436C67.4807 21.8879 66.6353 22.1838 64.195 22.1838H61.9357V20.3815V18.5793H64.6461C67.1644 18.5793 67.3927 18.6357 67.8663 19.3766ZM11.3771 21.997C11.623 22.998 12.0396 23.6717 12.7203 24.1685C13.2632 24.5643 14.4879 25.8583 15.4423 27.0438C17.725 29.8802 17.5887 30.0201 12.1397 30.4422C8.28834 30.7403 7.83782 30.7125 5.63223 30.0414C4.32895 29.6446 2.85908 29.1072 2.36572 28.847C1.47331 28.3765 1.4698 28.3624 1.69042 26.0162C1.81224 24.7193 2.03255 23.3264 2.17963 22.921C2.49298 22.0583 3.62135 21.9367 4.56044 22.6648C4.93007 22.9515 5.90753 23.1501 6.97707 23.1563C8.72223 23.1665 8.79705 23.1298 9.61944 21.8561C10.085 21.1352 10.5908 20.5454 10.743 20.5454C10.8955 20.5454 11.1807 21.1984 11.3771 21.997Z" fill="#020A18"/>
</svg>
