<svg width="139" height="47" viewBox="0 0 139 47" fill="none" xmlns="http://www.w3.org/2000/svg">
<path opacity="0.8" fill-rule="evenodd" clip-rule="evenodd" d="M111.961 0.923113C111.675 1.43019 111.296 2.10131 111.118 2.41448C110.939 2.72765 110.666 3.20905 110.511 3.48426C110.356 3.75946 110.154 4.11663 110.062 4.27796C109.709 4.89546 108.267 7.43604 107.662 8.50529C107.259 9.21621 106.835 9.9637 106.055 11.335C105.382 12.5192 104.888 13.3897 104.606 13.8887C104.409 14.2371 104.111 14.7629 103.519 15.8039C102.726 17.2009 102.525 17.5553 102.198 18.1333C102.015 18.4559 101.755 18.914 101.62 19.1513C101.485 19.3885 101.26 19.7845 101.121 20.0312C100.981 20.278 100.289 21.497 99.5834 22.7402C98.8772 23.9834 98.2206 25.1403 98.1243 25.3111C98.0278 25.4819 97.7991 25.8857 97.6159 26.2083C97.4327 26.531 97.1728 26.9891 97.0385 27.2263C96.9041 27.4636 96.4767 28.2167 96.0886 28.9C95.7005 29.5833 95.2685 30.3442 95.1285 30.5909C94.5439 31.6216 94.3509 31.9616 93.6791 33.1446C93.0245 34.2972 92.7239 34.8272 92.0789 35.9657C91.9417 36.2077 91.7126 36.6115 91.5696 36.8629C91.4267 37.1144 91.1999 37.5143 91.0656 37.7515C90.9313 37.9888 90.5345 38.6876 90.1837 39.3044C89.5612 40.3991 89.1614 41.1038 88.6469 42.0134C88.5074 42.2601 88.2826 42.6561 88.1476 42.8933C87.7659 43.5637 86.9592 44.9853 86.205 46.3163C86.0363 46.6142 85.9067 46.8665 85.9172 46.8771C85.9276 46.8877 97.8755 46.8964 112.468 46.8964H139V46.811C139 46.7641 138.883 46.5195 138.74 46.2675C138.598 46.0155 138.34 45.5609 138.168 45.2572C137.996 44.9535 137.538 44.146 137.149 43.4627C136.761 42.7795 136.364 42.0807 136.267 41.9098C135.693 40.8932 135.349 40.2864 134.487 38.7695C133.958 37.8395 133.385 36.8301 133.214 36.5265C133.042 36.2228 132.782 35.7647 132.636 35.5085C132.49 35.2522 132.292 34.9028 132.196 34.732C132.099 34.5612 131.557 33.6062 130.992 32.6097C130.426 31.6133 129.853 30.6039 129.719 30.3666C129.585 30.1294 129.358 29.7296 129.215 29.4782C128.943 29.0016 127.864 27.1013 127.123 25.7942C126.886 25.3767 126.521 24.7322 126.31 24.3621C126.1 23.992 125.695 23.2777 125.41 22.7747C124.894 21.8635 123.711 19.7797 123.226 18.927C123.086 18.6802 122.862 18.2842 122.728 18.047C122.594 17.8097 122.37 17.4137 122.23 17.167C122.089 16.9203 121.657 16.1594 121.269 15.4761C120.61 14.3169 120.298 13.766 119.664 12.6464C119.332 12.0614 119.112 11.6735 117.96 9.64408C117.432 8.71407 116.89 7.75904 116.756 7.52179C116.621 7.28454 116.392 6.88079 116.246 6.62456C116.1 6.36833 115.871 5.96458 115.737 5.72733C115.5 5.30874 113.675 2.094 113.201 1.25844C113.071 1.03068 112.858 0.654117 112.728 0.421596C112.598 0.189075 112.489 -0.000619638 112.485 1.52116e-06C112.482 0.000657189 112.246 0.41604 111.961 0.923113ZM110.143 16.7891C110.835 16.8896 110.933 16.9152 111.028 17.0213C111.156 17.1622 111.151 17.2731 110.989 17.9992C110.664 19.4619 110.663 19.4636 110.544 19.5963C110.439 19.7128 110.42 19.7196 110.176 19.7322C109.956 19.7434 109.863 19.7277 109.52 19.6219C108.867 19.4205 108.653 19.3825 108.153 19.379C107.768 19.3762 107.656 19.388 107.455 19.4521C106.903 19.6288 106.464 20.0661 106.289 20.6141C106.252 20.7301 106.114 21.4306 105.981 22.1708C105.849 22.911 105.64 24.0679 105.518 24.7417C105.396 25.4155 105.229 26.355 105.146 26.8295C105.062 27.304 104.904 28.1891 104.793 28.7965C104.683 29.4038 104.523 30.289 104.439 30.7635C104.264 31.7533 104.017 33.1277 103.657 35.1289C103.518 35.8975 103.334 36.9211 103.248 37.4033C103.162 37.8856 103.055 38.4214 103.011 38.5939C102.426 40.8777 101.111 42.1342 99.0855 42.3441C98.3902 42.4162 97.6043 42.3414 96.6654 42.1139C95.927 41.9349 95.9036 41.9335 95.7088 42.0549C95.4869 42.1931 95.3473 42.2377 95.1363 42.2377C94.9217 42.2377 93.8815 42.0762 93.7958 42.0295C93.6896 41.9717 93.5942 41.8178 93.5942 41.7043C93.5942 41.5709 93.9238 39.3384 93.9695 39.1616C94.0112 39.0006 94.1844 38.8284 94.333 38.8C94.6039 38.7484 94.789 38.8057 95.7661 39.2444C96.6546 39.6432 97.2654 39.797 97.9719 39.7998C98.494 39.8019 98.7192 39.7552 99.1241 39.5607C99.3215 39.4659 99.437 39.377 99.6501 39.1561C100.139 38.6491 100.397 38.0058 100.551 36.9061C100.589 36.6358 100.676 36.1464 101.295 32.7477C101.606 31.0399 101.952 29.1411 102.466 26.3119C102.625 25.4388 102.84 24.2586 102.944 23.6892C103.049 23.1198 103.247 22.025 103.385 21.2563C103.523 20.4876 103.677 19.7345 103.727 19.5826C104.117 18.3912 104.931 17.5969 106.205 17.1633C106.4 17.0972 106.723 17.0191 106.923 16.9898C107.264 16.94 107.334 16.941 108 17.0056C108.792 17.0823 108.72 17.092 109.089 16.8588C109.223 16.7739 109.309 16.7428 109.515 16.7051C109.527 16.7029 109.809 16.7407 110.143 16.7891ZM116.36 16.8538C116.468 16.9107 116.535 17.0386 116.535 17.1901C116.535 17.3288 116.384 18.191 115.482 23.2233C115.334 24.0489 115.152 25.0765 115.077 25.5068C115.002 25.937 114.888 26.5737 114.824 26.9216C114.759 27.2695 114.643 27.9191 114.567 28.3651C114.49 28.8112 114.367 29.5022 114.294 29.9008C114.22 30.2993 114.061 31.1845 113.94 31.8678C113.819 32.5511 113.636 33.576 113.532 34.1454C113.315 35.3448 113.308 35.4399 113.431 35.5382C113.701 35.7539 114.454 35.598 115.144 35.1837C115.869 34.748 116.446 34.0988 116.867 33.2451C117.215 32.5395 117.209 32.5425 118.429 32.5415L119.357 32.5407L119.452 32.6374C119.639 32.8281 119.62 33.1581 119.387 33.7722C119.045 34.672 118.364 35.4897 117.078 36.5443C116.491 37.0256 116.452 37.0668 116.48 37.1721C116.508 37.2772 116.79 37.6293 117.495 38.4373C117.816 38.8049 118.151 39.2026 118.238 39.321C118.429 39.578 118.538 39.6327 118.859 39.631C119.216 39.6291 119.542 39.4558 119.675 39.1971C119.701 39.1476 119.731 38.9612 119.743 38.783C119.816 37.6986 120.269 36.9779 121.167 36.5179C122.151 36.0136 123.673 35.8775 125.656 36.1162C126.243 36.1869 126.274 36.1777 126.402 35.8965C126.482 35.7211 126.494 35.6457 126.506 35.243C126.519 34.7887 126.519 34.7876 126.431 34.7043C126.338 34.6165 126.108 34.5311 125.798 34.4685C125.683 34.4452 124.835 34.4255 123.559 34.4164C122.247 34.407 121.474 34.3887 121.416 34.3657C121.275 34.3091 121.177 34.182 121.176 34.0533C121.176 33.9901 121.231 33.6907 121.298 33.3882C121.433 32.7878 121.469 32.7188 121.71 32.6059C121.836 32.5468 121.963 32.5422 123.458 32.5418C125.109 32.5414 126.539 32.583 126.982 32.6444C127.356 32.6964 127.778 32.9273 128.111 33.2633C128.497 33.6535 128.655 34.0132 128.72 34.6546C128.78 35.2439 128.704 35.8822 128.326 37.9882C128.205 38.6593 128.107 39.2576 128.107 39.3177C128.107 39.5575 128.289 39.6599 128.815 39.7164C129.176 39.7551 129.277 39.8062 129.352 39.9871C129.398 40.0998 129.397 40.159 129.345 40.579C129.234 41.4787 129.14 41.7011 128.785 41.9062C128.604 42.0105 128.587 42.0133 128.175 42.0125L127.75 42.0116L127.207 41.7923C126.501 41.5073 126.398 41.4976 125.859 41.6653C124.735 42.0145 124.353 42.0794 123.407 42.0811C122.367 42.0829 122.1 42.0129 121.324 41.5366C120.967 41.3177 120.818 41.2638 120.683 41.3041C120.632 41.3192 120.323 41.4486 119.996 41.5916C119.081 41.9924 118.693 42.0989 118.144 42.0994C117.788 42.0997 117.579 42.0335 117.268 41.8218C116.928 41.5907 116.527 41.149 116.076 40.51C115.007 38.9962 114.651 38.5906 114.183 38.3553C113.956 38.2414 113.877 38.2199 113.64 38.2073C113.263 38.1874 113.091 38.2387 112.916 38.4245C112.838 38.5062 112.759 38.6251 112.739 38.6885C112.719 38.7521 112.586 39.4252 112.443 40.1844C112.3 40.9436 112.163 41.6061 112.137 41.6566C112.076 41.7775 111.939 41.8839 111.788 41.9293C111.709 41.9527 111.305 41.9621 110.673 41.9552L109.681 41.9444L109.57 41.8315C109.419 41.6779 109.422 41.6259 109.675 40.2362C110.033 38.2719 110.921 33.3255 111.089 32.3682C111.137 32.0929 111.259 31.4174 111.359 30.867C111.46 30.3166 111.582 29.6333 111.631 29.3486C111.68 29.0639 111.787 28.4661 111.87 28.02C111.952 27.574 112.103 26.7354 112.205 26.1566C112.306 25.5777 112.474 24.6382 112.577 24.0688C112.68 23.4994 112.825 22.6919 112.899 22.2743C113.656 18.0161 113.812 17.1872 113.879 17.0701C113.914 17.0096 114.003 16.9253 114.076 16.8829C114.207 16.8078 114.237 16.8058 115.238 16.8052C116.063 16.8048 116.285 16.8144 116.36 16.8538ZM109.699 27.0353C109.781 27.0702 109.834 27.1245 109.869 27.211C109.917 27.3267 109.914 27.3759 109.833 27.8593C109.606 29.2175 109.587 29.2804 109.363 29.449C109.272 29.5181 109.223 29.5216 108.21 29.53C107.046 29.5398 107.035 29.5382 106.918 29.3335L106.849 29.2151L106.926 28.757C107.166 27.3087 107.2 27.2024 107.473 27.0624C107.619 26.9873 107.655 26.9848 108.602 26.9848C109.384 26.9848 109.604 26.9949 109.699 27.0353ZM135.523 27.5388C135.109 27.6042 134.682 27.7763 134.34 28.0161C134.097 28.1856 133.759 28.584 133.61 28.8762C133.39 29.3061 133.317 29.6164 133.317 30.1251C133.317 30.6342 133.39 30.944 133.61 31.3755C133.776 31.6998 134.131 32.0999 134.429 32.2984C134.879 32.5982 135.502 32.769 136.011 32.7324C136.407 32.704 136.652 32.6343 137.057 32.4347C137.346 32.2922 137.449 32.2185 137.668 31.9966C138.226 31.4304 138.522 30.5846 138.422 29.8382C138.302 28.9405 137.83 28.2228 137.103 27.8343C136.64 27.5872 135.988 27.4652 135.523 27.5388ZM136.365 28.0051C137.305 28.2486 137.959 29.045 138.007 30.0043C138.07 31.2683 137.109 32.2991 135.867 32.2991C134.686 32.2991 133.74 31.3514 133.732 30.1596C133.729 29.7702 133.793 29.4858 133.964 29.1301C134.113 28.8212 134.452 28.4439 134.73 28.2783C134.906 28.1734 135.302 28.0141 135.488 27.9738C135.657 27.9369 136.173 27.9553 136.365 28.0051ZM134.724 30.1741V31.5745H134.944H135.164L135.173 30.9792L135.182 30.3839L135.42 30.3857C135.586 30.387 135.689 30.4063 135.76 30.4495C135.892 30.5303 136.067 30.7623 136.269 31.1258C136.359 31.2872 136.453 31.4541 136.478 31.4968C136.52 31.5669 136.551 31.5745 136.794 31.5745H137.065L136.84 31.2035C136.578 30.7692 136.354 30.4801 136.207 30.385L136.103 30.3171L136.229 30.2904C136.402 30.2539 136.523 30.1854 136.656 30.0499C136.803 29.9 136.862 29.7531 136.862 29.5384C136.862 29.2342 136.733 29.0138 136.472 28.8709C136.346 28.8019 136.278 28.7958 135.53 28.7852L134.724 28.7737V30.1741ZM136.177 29.207C136.322 29.2835 136.395 29.4072 136.393 29.5723C136.389 29.8899 136.183 29.9941 135.589 29.9797L135.182 29.9698L135.173 29.5924C135.167 29.3849 135.171 29.1924 135.182 29.1648C135.209 29.0915 136.023 29.1261 136.177 29.207ZM108.8 32.6707C108.929 32.8169 108.928 32.9172 108.797 33.645C108.74 33.9581 108.619 34.6337 108.527 35.1461C108.294 36.4503 108.122 37.4092 107.826 39.0456C107.686 39.8238 107.527 40.7142 107.473 41.0243C107.363 41.6638 107.305 41.7813 107.045 41.8982C106.909 41.9596 106.823 41.9638 105.881 41.9544L104.865 41.9444L104.765 41.8463C104.709 41.7923 104.656 41.7069 104.646 41.6565C104.635 41.606 104.719 41.0632 104.83 40.4501C104.942 39.837 105.093 38.9985 105.166 38.5866C105.489 36.7458 106.156 33.0642 106.185 32.9536C106.22 32.821 106.389 32.6343 106.524 32.5786C106.576 32.557 107.01 32.5464 107.655 32.5508L108.701 32.558L108.8 32.6707ZM123.695 37.8414C122.28 37.9597 121.586 38.5581 121.967 39.3324C122.155 39.7158 122.587 40.0024 123.149 40.1172C123.532 40.1955 124.267 40.1707 124.679 40.0657C125.29 39.9101 125.853 39.5428 125.992 39.2093C126.076 39.0082 126.06 38.7155 125.953 38.4933C125.798 38.1706 125.518 38.0011 124.985 37.9062C124.715 37.8583 123.952 37.82 123.695 37.8414ZM36.6935 40.1348C35.702 40.266 35.0872 40.7537 34.86 41.5892C34.8075 41.7823 34.8009 41.9992 34.8009 43.549C34.8009 45.4965 34.8014 45.5013 35.0433 45.9694C35.2706 46.4094 35.717 46.7336 36.328 46.9025C36.5629 46.9674 36.6909 46.9777 37.2782 46.9794C37.6764 46.9804 38.0831 46.9623 38.2623 46.9354C38.6669 46.8747 39.3649 46.7265 39.441 46.685C39.4981 46.6539 39.5011 46.5601 39.4928 45.0919L39.484 43.5318H38.7883H38.0927L38.0837 44.5579L38.0747 45.584L37.9818 45.6083C37.9308 45.6218 37.66 45.6331 37.38 45.6335C36.8042 45.6344 36.707 45.6074 36.4989 45.3895C36.2815 45.1619 36.273 45.0855 36.2842 43.4738L36.2941 42.0459L36.3808 41.8746C36.4889 41.6611 36.6897 41.5285 36.9735 41.4831C37.2024 41.4464 38.0075 41.4844 38.6863 41.5639C38.9195 41.5912 39.1197 41.6026 39.1313 41.5892C39.1633 41.5521 39.3123 40.3434 39.288 40.3186C39.2535 40.2835 38.4478 40.1728 37.9464 40.1342C37.4204 40.0937 37.003 40.0939 36.6935 40.1348ZM62.153 40.1323C61.1965 40.2374 60.7796 40.5341 60.6056 41.2337C60.5417 41.4908 60.5355 41.5925 60.5492 42.1647C60.5675 42.9325 60.6224 43.1612 60.8519 43.4264C61.1134 43.7285 61.3803 43.8495 62.269 44.0688C63.0395 44.259 63.2267 44.3253 63.3438 44.4494C63.4392 44.5506 63.4428 44.567 63.4524 44.9402C63.4643 45.4016 63.4195 45.5277 63.205 45.6368C63.0842 45.6982 63.0037 45.7056 62.4753 45.7039C61.8516 45.7018 61.4025 45.6377 60.8947 45.4782C60.7712 45.4394 60.6655 45.4126 60.6598 45.4187C60.6283 45.4519 60.4321 46.5172 60.4491 46.5622C60.4607 46.5931 60.6034 46.6592 60.7851 46.7181C61.5583 46.9685 62.4351 47.0565 63.2389 46.9643C64.0775 46.8681 64.5443 46.6092 64.7715 46.114C64.9227 45.7844 64.9604 45.4946 64.9433 44.7913C64.9254 44.0521 64.8845 43.8784 64.6698 43.6304C64.4068 43.3265 64.093 43.1873 63.0411 42.9076C62.6473 42.8029 62.2766 42.6869 62.2175 42.6497C62.0588 42.5499 62.0261 42.4341 62.0395 42.0184C62.05 41.6926 62.0593 41.6476 62.1325 41.5685C62.2737 41.4158 62.3913 41.3987 63.151 41.4207C63.6129 41.4341 63.9817 41.4642 64.239 41.5098C64.4802 41.5524 64.636 41.5659 64.6485 41.5454C64.6646 41.5189 64.7162 41.1055 64.7945 40.3758C64.8113 40.22 62.9316 40.0467 62.153 40.1323ZM0 43.5484V46.9001L1.58649 46.8881C2.96756 46.8775 3.19934 46.8682 3.37659 46.8161C3.98027 46.6386 4.32675 46.3092 4.46646 45.78C4.53504 45.5203 4.56179 44.8566 4.51679 44.5325C4.49568 44.3807 4.4403 44.1769 4.3937 44.0796C4.28687 43.8566 4.02411 43.6047 3.77954 43.4908L3.59079 43.4029L3.7382 43.3184C3.95461 43.1943 4.12592 43.0105 4.21133 42.8108C4.35658 42.4713 4.33594 41.3767 4.17743 41.0123C4.09602 40.8252 3.86594 40.5682 3.68102 40.4581C3.60368 40.412 3.41955 40.3403 3.27186 40.2987C3.01826 40.2274 2.91961 40.2225 1.50165 40.2099L0 40.1966V43.5484ZM5.43026 42.6949C5.43091 45.4399 5.43261 45.4659 5.63856 45.8956C5.78791 46.2072 6.12679 46.5424 6.45464 46.7027C6.89211 46.9167 7.22359 46.98 7.90698 46.98C8.4093 46.98 8.54775 46.9681 8.80492 46.9026C9.63468 46.6914 10.1534 46.2071 10.3295 45.4793C10.3774 45.2813 10.3843 44.9353 10.3843 42.7272V40.2017H9.65575H8.92722L8.91765 42.6432L8.90808 45.0847L8.83271 45.228C8.65692 45.5623 8.38785 45.6719 7.80263 45.6477C7.31569 45.6276 7.11231 45.5156 6.9669 45.1877C6.91036 45.0602 6.90517 44.8726 6.89611 42.6259L6.88634 40.2017H6.15801H5.42969L5.43026 42.6949ZM11.6738 43.549V46.8964H12.4204H13.167V43.549V40.2017H12.4204H11.6738V43.549ZM14.5244 43.549V46.8964H16.5605H18.5967V46.2411V45.5859L17.2986 45.5768L16.0006 45.5678L15.9919 42.8847L15.9832 40.2017H15.2538H14.5244V43.549ZM19.4451 43.5485V46.9007L21.0316 46.8882C22.5412 46.8763 22.6312 46.872 22.8895 46.7997C23.6083 46.5984 24.0696 46.1524 24.1952 45.5373C24.2207 45.4125 24.2295 44.7411 24.2229 43.442C24.213 41.5339 24.2129 41.5299 24.1343 41.3322C24.0303 41.0701 23.8369 40.8137 23.6139 40.642C23.3941 40.4728 23.2293 40.3953 22.8821 40.2978C22.6332 40.2278 22.5272 40.2228 21.0316 40.2099L19.4451 40.1963V43.5485ZM25.4177 43.549V46.8964H26.1643H26.9109V43.549V40.2017H26.1643H25.4177V43.549ZM28.2576 40.2241C28.2448 40.2371 28.2344 41.7436 28.2344 43.572V46.8964H28.9468H29.6592L29.6679 44.7137L29.6766 42.531L30.7456 44.7135L31.8146 46.896L32.7393 46.8962L33.6641 46.8964V43.549V40.2017H32.9517H32.2392L32.2305 42.4879L32.2218 44.7741L32.0648 44.4462C31.9785 44.2659 31.8243 43.9398 31.7221 43.7216C31.6199 43.5033 31.3829 42.9986 31.1955 42.6C31.008 42.2014 30.6796 41.5026 30.4656 41.0471L30.0765 40.2189L29.1786 40.2097C28.6848 40.2047 28.2703 40.2112 28.2576 40.2241ZM42.2914 40.866L42.3007 41.5303L43.1745 41.5395L44.0483 41.5487V44.2225V46.8964H44.7949H45.5415V44.2225V41.5487L46.4153 41.5395L47.2892 41.5303L47.2984 40.866L47.3076 40.2017H44.7949H42.2822L42.2914 40.866ZM48.0867 43.549V46.8964H48.8158H49.5449L49.5539 45.8697L49.5629 44.8431L50.004 44.8348L50.4452 44.8266L51.073 45.7289C51.4183 46.2252 51.7429 46.6909 51.7943 46.7638L51.8879 46.8964H52.7704H53.6528L53.4886 46.6634C53.3983 46.5353 53.1738 46.2131 52.9898 45.9474C52.8058 45.6817 52.5284 45.2841 52.3732 45.0639C52.218 44.8437 52.0911 44.6496 52.0911 44.6326C52.0911 44.6155 52.1654 44.5591 52.2561 44.5073C52.604 44.3086 52.8526 43.9531 52.9562 43.5062C53.0268 43.202 53.0268 41.791 52.9562 41.4868C52.8856 41.1821 52.7348 40.9008 52.5436 40.7167C52.3432 40.524 52.2665 40.4753 52.0089 40.3778C51.6114 40.2273 51.2689 40.2021 49.6223 40.2019L48.0867 40.2017V43.549ZM54.3987 42.6705C54.3987 45.3906 54.4025 45.4499 54.6082 45.8899C54.7252 46.1404 55.0434 46.4878 55.2864 46.6303C55.521 46.7679 56.0038 46.9212 56.35 46.968C56.7568 47.0229 57.4555 46.9894 57.8092 46.898C58.6113 46.6906 59.1359 46.1906 59.3017 45.4754C59.3441 45.2926 59.3524 44.8475 59.3528 42.7294L59.3533 40.2017H58.6237H57.894L57.8932 42.5741C57.8928 43.879 57.8789 45.0059 57.8624 45.0783C57.8168 45.2778 57.6689 45.4691 57.4915 45.5579C57.3511 45.6283 57.2846 45.6368 56.876 45.6368C56.4503 45.6368 56.4072 45.6307 56.2666 45.5505C56.1835 45.5031 56.069 45.3969 56.0121 45.3147L55.9088 45.165L55.8994 42.6834L55.8901 40.2017H55.1444H54.3987V42.6705ZM65.4694 40.8657L65.4786 41.5303L66.3694 41.5395L67.2603 41.5486V44.2225V46.8964H67.9899H68.7195V44.2225V41.5486L69.6103 41.5395L70.5011 41.5303V40.8746V40.2189L67.9806 40.2101L65.4602 40.2012L65.4694 40.8657ZM2.60218 41.4982C2.77291 41.6257 2.81655 41.7645 2.81658 42.1807C2.81665 42.6333 2.77128 42.7578 2.56593 42.8685C2.43905 42.9368 2.37562 42.9437 1.86646 42.9444L1.30652 42.9451L1.29739 42.1745L1.28823 41.4038L1.89734 41.4153C2.44984 41.4257 2.51534 41.4333 2.60218 41.4982ZM22.4314 41.651C22.5384 41.7115 22.6069 41.7834 22.6605 41.8913C22.7362 42.044 22.7368 42.0575 22.7361 43.5477C22.7354 44.9383 22.7306 45.0607 22.6722 45.1916C22.5367 45.495 22.3271 45.5649 21.5491 45.5665L20.9552 45.5678L20.9464 43.5551L20.9377 41.5423L21.6082 41.5535C22.2496 41.5643 22.2853 41.5685 22.4314 41.651ZM51.2432 41.6251C51.5017 41.7584 51.5311 41.8493 51.5311 42.5138C51.5311 42.9885 51.5214 43.1013 51.4724 43.1923C51.3228 43.4703 51.1273 43.5195 50.2241 43.5066L49.5629 43.4973L49.5538 42.566C49.5488 42.0539 49.5522 41.6152 49.5612 41.5912C49.5738 41.5578 49.7557 41.5475 50.3351 41.5475C51.0533 41.5475 51.1003 41.5515 51.2432 41.6251ZM2.77586 44.2097C2.99026 44.3152 3.05271 44.4697 3.05271 44.8949C3.05271 45.315 2.9885 45.477 2.77678 45.591C2.6409 45.6642 2.58019 45.671 1.95978 45.6825L1.28955 45.6948V44.9152V44.1357H1.95754C2.57116 44.1357 2.63778 44.1417 2.77586 44.2097Z" fill="#020A18"/>
</svg>
