<svg width="82" height="82" viewBox="0 0 82 82" fill="none" xmlns="http://www.w3.org/2000/svg">
<path d="M15.6445 44.5048L30.2886 1.00046C30.2886 1.00046 39.6075 0.74505 39.6075 12.2274V33.2779H71.5582C73.5095 33.2359 75.3991 33.9996 76.8236 35.4061C78.2481 36.8125 79.0946 38.7502 79.1824 40.8055C79.1769 42.6151 78.5574 44.3629 77.4358 45.7328C78.6269 46.4689 79.5925 47.5501 80.218 48.8477C80.8435 50.1453 81.1025 51.6049 80.9642 53.0531C80.826 54.5013 80.2964 55.8773 79.4382 57.0175C78.5801 58.1578 77.4295 59.0145 76.1231 59.4858C76.7678 60.4889 77.1764 61.6397 77.3149 62.8425C77.4534 64.0454 77.3179 65.2657 76.9197 66.4024C76.5214 67.539 75.8719 68.5592 75.0249 69.3784C74.1779 70.1975 73.1579 70.7921 72.0494 71.1127C72.8363 71.9034 73.3802 72.9246 73.6109 74.0444C73.8417 75.1642 73.7487 76.3312 73.344 77.3948C72.9393 78.4584 72.2414 79.3696 71.3405 80.0109C70.4396 80.6522 69.377 80.994 68.2899 80.9924H39.6075C31.3119 81.1375 23.1011 79.2141 15.6445 75.3789" stroke="#57B8FF" stroke-width="2" stroke-miterlimit="10"/>
<path d="M11.6502 37.4883H4.99383C2.7881 37.4883 1 39.3732 1 41.6984V75.3792C1 77.7043 2.7881 79.5893 4.99383 79.5893H11.6502C13.856 79.5893 15.6441 77.7043 15.6441 75.3792V41.6984C15.6441 39.3732 13.856 37.4883 11.6502 37.4883Z" stroke="#57B8FF" stroke-width="2" stroke-miterlimit="10" stroke-linecap="square"/>
</svg>
