<svg width="80" height="80" viewBox="0 0 80 80" fill="none" xmlns="http://www.w3.org/2000/svg">
<path fill-rule="evenodd" clip-rule="evenodd" d="M5.74768 0.405924L5.23373 0.811542V5.11665V9.42159H3.07199C1.08317 9.42159 0.874032 9.45217 0.455124 9.80407C-0.10656 10.2761 -0.128121 10.9128 0.399858 11.428C0.766638 11.7859 0.983314 11.8229 3.01672 11.8746L5.23373 11.931V16.544V21.1571H3.07199C1.08317 21.1571 0.874032 21.1877 0.455124 21.5396C-0.148639 22.0472 -0.124981 22.7262 0.513953 23.2306C0.991269 23.6077 1.17696 23.6364 3.13082 23.6364H5.23373V28.2645V32.8926H3.13082C1.17696 32.8926 0.991269 32.9213 0.513953 33.2984C0.231331 33.5215 0 33.8967 0 34.1323C0 34.3678 0.231331 34.743 0.513953 34.9661C0.991269 35.3432 1.17696 35.3719 3.13082 35.3719H5.23373V40V44.6281H3.13082C1.17696 44.6281 0.991269 44.6568 0.513953 45.0339C0.231331 45.257 0 45.6322 0 45.8677C0 46.1033 0.231331 46.4785 0.513953 46.7016C0.991269 47.0787 1.17696 47.1074 3.13082 47.1074H5.23373V51.7355V56.3636H3.13082C1.17696 56.3636 0.991269 56.3923 0.513953 56.7694C-0.145497 57.2899 -0.15785 58.007 0.484433 58.4836C0.91653 58.8039 1.2002 58.8429 3.1013 58.8429H5.23373V63.4559V68.069L3.01672 68.1254C0.983314 68.1771 0.766638 68.2141 0.399858 68.572C-0.141729 69.1004 -0.106769 69.7804 0.484433 70.2191C0.91653 70.5394 1.2002 70.5784 3.1013 70.5784H5.23373V74.8833V79.1885L5.74768 79.5941L6.26143 79.9999H39.0947C74.3828 79.9999 73.0284 80.0306 75.135 79.182C77.1816 78.3577 79.062 76.4835 79.6794 74.6528C80.1069 73.3848 80.1069 6.61516 79.6794 5.34723C79.062 3.51649 77.1816 1.64228 75.135 0.817988C73.0284 -0.0306036 74.3828 0.00014034 39.0947 0.00014034H6.26143L5.74768 0.405924ZM73.6614 3.05269C74.2784 3.32261 75.0976 3.83335 75.4819 4.18773C76.9361 5.52905 76.8312 2.74592 76.8312 40C76.8312 77.2541 76.9361 74.4709 75.4819 75.8123C75.0976 76.1666 74.2784 76.6774 73.6614 76.9473L72.5395 77.4379L40.4567 77.4814L8.37397 77.5247V74.0516V70.5784H10.5064C12.4075 70.5784 12.6912 70.5394 13.1233 70.2191C13.7145 69.7804 13.7494 69.1004 13.2078 68.572C12.8411 68.2141 12.6244 68.1771 10.591 68.1254L8.37397 68.069V63.4559V58.8429H10.5569C12.6658 58.8429 12.7546 58.8282 13.1737 58.4074C13.7494 57.8297 13.7218 57.2651 13.0938 56.7694C12.6164 56.3923 12.4307 56.3636 10.4769 56.3636H8.37397V51.7355V47.1074H10.4769C12.4307 47.1074 12.6164 47.0787 13.0938 46.7016C13.7488 46.1846 13.7488 45.5509 13.0938 45.0339C12.6164 44.6568 12.4307 44.6281 10.4769 44.6281H8.37397V40V35.3719H10.4769C12.4307 35.3719 12.6164 35.3432 13.0938 34.9661C13.7488 34.4491 13.7488 33.8154 13.0938 33.2984C12.6164 32.9213 12.4307 32.8926 10.4769 32.8926H8.37397V28.2645V23.6364H10.4769C12.4307 23.6364 12.6164 23.6077 13.0938 23.2306C13.7218 22.7349 13.7494 22.1703 13.1737 21.5926C12.7546 21.1718 12.6658 21.1571 10.5569 21.1571H8.37397V16.544V11.931L10.591 11.8746C12.6244 11.8229 12.8411 11.7859 13.2078 11.428C13.7358 10.9128 13.7143 10.2761 13.1526 9.80407C12.7337 9.45217 12.5245 9.42159 10.5357 9.42159H8.37397V5.94838V2.47534L40.4567 2.51864L72.5395 2.56211L73.6614 3.05269ZM56.8136 12.8538C56.4808 13.0267 34.1091 36.7079 33.9014 37.1074C33.8068 37.2893 33.1837 39.9856 32.5165 43.0992L31.3036 48.7603H26.5285H21.7533L21.2395 49.1661C20.5801 49.6866 20.5677 50.4038 21.21 50.8803L21.6947 51.2396H45.5992C69.2249 51.2396 69.5088 51.2358 69.9227 50.9091C70.4869 50.4636 70.4758 49.5687 69.9007 49.1578C69.4774 48.8553 68.8116 48.8396 52.9227 48.7603L36.3849 48.6777L41.3886 46.6573C44.1405 45.5461 46.5873 44.4676 46.8264 44.2606C47.4312 43.7365 68.8807 21.0063 69.2607 20.4867C69.8885 19.6283 69.6191 19.4049 63.8182 15.9717C59.4462 13.3841 58.206 12.7279 57.6921 12.7298C57.3376 12.7313 56.9424 12.787 56.8136 12.8538ZM62.0524 18.0237L65.7206 20.1971L64.1995 21.7928C62.7987 23.262 54.1199 32.446 47.8958 39.0453L45.2885 41.8096L41.4757 39.5651C39.3784 38.3306 37.6961 37.2415 37.7369 37.145C37.9498 36.6407 57.9225 15.7217 58.1346 15.7807C58.2719 15.8189 60.0349 16.8282 62.0524 18.0237ZM39.5892 41.5289C41.1803 42.4607 42.4856 43.2683 42.4899 43.3235C42.4943 43.3785 40.7984 44.1097 38.7215 44.9484C35.3344 46.3157 34.9559 46.4334 35.0528 46.0877C35.1123 45.8758 35.401 44.5868 35.6945 43.2231C36.3709 40.079 36.4345 39.8347 36.5781 39.8347C36.6432 39.8347 37.9981 40.5972 39.5892 41.5289ZM31.9745 58.3057C31.3536 58.8497 31.3251 59.4146 31.8923 59.9353L32.4129 60.4132H50.9364C68.8583 60.4132 69.4742 60.4029 69.9007 60.0983C70.2009 59.8837 70.3414 59.5839 70.3414 59.1573C70.3414 57.9421 71.6132 58.0165 50.8576 58.0165C33.4536 58.0165 32.2842 58.0343 31.9745 58.3057ZM21.8676 67.5131C21.2081 68.0336 21.1958 68.7508 21.8381 69.2273L22.3227 69.5867H45.9132C69.2249 69.5867 69.509 69.5827 69.9227 69.2561C70.5461 68.7639 70.481 67.8792 69.7897 67.45C69.2391 67.108 69.1945 67.1073 45.8098 67.1073H22.3813L21.8676 67.5131Z" fill="#57B8FF"/>
</svg>
