<svg width="80" height="80" viewBox="0 0 80 80" fill="none" xmlns="http://www.w3.org/2000/svg">
<path fill-rule="evenodd" clip-rule="evenodd" d="M26.5355 0.10971C25.2371 0.473338 24.2297 1.57542 23.6588 3.25661L23.3171 4.26306V11.1482V18.0334L23.6056 18.8922C24.2121 20.6974 25.4438 21.9442 26.8146 22.1408L27.4925 22.2379V24.7957C27.4925 27.3096 27.497 27.3599 27.7587 27.7249C27.9372 27.9741 28.1466 28.0964 28.3948 28.0964C28.784 28.0964 28.9889 27.8645 32.3105 23.665L33.4816 22.1846L34.5811 22.2275L35.6805 22.2704L35.7391 24.0107C35.7878 25.4587 35.8446 25.8905 36.078 26.5831C36.5088 27.8618 37.0459 28.6171 37.985 29.2649L38.8138 29.8366L42.6847 29.8861L46.5555 29.9354L48.7097 32.6551C49.8944 34.1509 51.0032 35.4791 51.1737 35.6067C51.534 35.8762 51.9146 35.7851 52.2221 35.3561C52.4185 35.082 52.4363 34.8444 52.4363 32.5024C52.4363 29.6347 52.394 29.768 53.3039 29.7629C54.1314 29.758 55.4343 28.5567 56.0706 27.2117C56.6363 26.0158 56.6796 25.3438 56.6442 18.3029L56.6117 11.8292L56.3208 10.9636C55.9367 9.82038 55.1915 8.73237 54.4186 8.18625L53.7919 7.74348L49.0472 7.6996L44.3024 7.65586L44.3016 6.716C44.299 3.61298 43.4681 1.50203 41.827 0.428548L41.2116 0.0260291L34.108 0.00211942C30.201 -0.0108943 26.7934 0.0373774 26.5355 0.10971ZM41.4503 3.00451C42.1331 3.63507 42.4588 4.68631 42.4588 6.25991V7.5165L41.1302 7.51771C39.422 7.51907 38.5517 7.7229 37.7699 8.30428C36.6967 9.10236 35.9787 10.5116 35.7444 12.2792C35.6795 12.7697 35.6263 14.6567 35.6263 16.4724V19.7736H34.1592H32.6919L31.0141 21.8961L29.3361 24.0185V22.5239C29.3361 20.9067 29.2095 20.1544 28.8981 19.9218C28.789 19.8404 28.406 19.7736 28.0472 19.7736C26.6156 19.7736 25.785 19.2201 25.3239 17.9588C25.1356 17.4442 25.1182 16.9304 25.096 11.2107C25.0728 5.28086 25.081 4.99092 25.2913 4.33872C25.412 3.9642 25.6295 3.50584 25.7745 3.32017C26.3875 2.53465 26.3563 2.53753 33.9533 2.56916L41.0107 2.59851L41.4503 3.00451ZM53.3149 10.2635C53.8905 10.5358 54.2537 10.9564 54.5778 11.7255L54.8765 12.4345L54.9105 18.2273C54.9506 25.0384 54.9207 25.3945 54.2263 26.3634C53.6719 27.137 53.2298 27.3378 52.079 27.3388C51.3263 27.3396 51.2043 27.3806 50.9673 27.7112C50.7152 28.0629 50.7011 28.1758 50.7011 29.8423C50.7011 30.843 50.6582 31.5803 50.6017 31.5515C50.5472 31.5238 49.8379 30.6617 49.0257 29.6359C48.2135 28.61 47.4163 27.6742 47.2543 27.5561C47.0167 27.3832 46.2345 27.3413 43.2179 27.3399C40.814 27.3387 39.3214 27.278 39.0429 27.1701C38.4572 26.9433 37.7446 25.9309 37.5838 25.0971C37.4962 24.6441 37.4685 22.6394 37.4914 18.4417L37.5242 12.4345L37.8215 11.7289C38.1475 10.955 38.7025 10.394 39.3047 10.2299C40.0062 10.0384 52.9048 10.0695 53.3149 10.2635ZM14.3156 30.8855C11.1536 31.757 8.6232 35.0303 7.73281 39.4015C7.4235 40.92 7.40312 43.4729 7.68531 45.3471C8.24958 49.0943 9.96214 53.1343 11.8212 55.1041C13.237 56.6042 14.3197 57.1594 15.8339 57.1622C17.5824 57.1653 18.9682 56.2944 20.4387 54.2685C22.2221 51.8113 23.561 48.1711 23.9705 44.6662C24.3064 41.7915 24.0832 39.6294 23.1916 37.1205C21.8526 33.3524 19.201 30.9831 16.0614 30.7497C15.4459 30.704 14.7892 30.755 14.3156 30.8855ZM62.685 30.8854C60.7848 31.4094 58.9591 32.9145 57.7535 34.951C57.0995 36.0556 56.3082 38.2099 56.0472 39.5969C55.7903 40.9612 55.7946 43.8201 56.0559 45.4228C56.3311 47.111 57.011 49.4813 57.6368 50.934C59.3896 55.0032 61.6784 57.1806 64.2033 57.1806C65.6621 57.1806 66.6607 56.672 68.0136 55.2402C69.8549 53.2914 71.4277 49.76 72.1451 45.9636C72.5278 43.938 72.5505 41.1158 72.1979 39.4003C71.7406 37.1754 70.8341 35.1129 69.6647 33.6363C68.8845 32.6512 67.1846 31.4236 66.0956 31.059C65.0617 30.7129 63.5835 30.6375 62.685 30.8854ZM17.1896 33.4769C18.4214 33.8808 19.4199 34.6789 20.3912 36.036C21.7255 37.9004 22.2868 39.7724 22.2868 42.3588C22.2868 45.6741 21.1998 49.4295 19.4932 52.0105C18.2216 53.9335 16.9157 54.8152 15.5309 54.686C12.3441 54.3887 9.06145 47.6332 9.30449 41.8723C9.40795 39.4204 9.97558 37.6645 11.2195 35.9486C12.1193 34.7076 13.207 33.8248 14.2849 33.4606C15.0752 33.1937 16.3473 33.2008 17.1896 33.4769ZM66.1887 33.7352C67.7857 34.5205 69.1623 36.1603 69.9252 38.1859C70.4315 39.5303 70.653 40.8355 70.6527 42.472C70.6516 47.4277 68.0527 53.261 65.3165 54.4492C63.6304 55.1814 61.968 54.3458 60.4284 51.992C58.7509 49.4274 57.6462 45.6483 57.6454 42.472C57.6449 39.7845 58.2018 37.8881 59.5342 36.0402C60.4711 34.7405 61.3595 33.976 62.4681 33.5151C63.4313 33.1144 65.1307 33.215 66.1887 33.7352ZM6.45286 58.82C6.0055 58.9801 5.17585 59.4338 4.60919 59.8283C3.74526 60.4295 3.41047 60.7783 2.53592 61.9878C1.63675 63.2313 1.42353 63.6284 0.989403 64.8677C0.0572625 67.5289 0.0118215 67.9511 0.0055313 73.9978L0 79.2691L0.304315 79.6346L0.60863 80H15.7941H30.9796L31.3051 79.5459L31.6306 79.0916L31.5869 73.7578C31.5373 67.6855 31.5276 67.5971 30.6398 65.076C29.5376 61.946 27.5369 59.7014 25.0621 58.8183C23.9446 58.4196 21.1772 58.3719 20.7956 58.7448C20.6647 58.8728 19.4965 61.0185 18.1999 63.5131C15.9862 67.7719 15.8314 68.0325 15.6652 67.7824C15.5679 67.6357 14.4993 65.6092 13.2907 63.2789C12.0823 60.9485 10.9956 58.9226 10.8759 58.777C10.5499 58.3801 7.6018 58.4088 6.45286 58.82ZM54.8222 58.82C54.3749 58.9801 53.5696 59.4192 53.0328 59.7959C51.3124 61.003 50.1278 62.6807 49.2914 65.0947C48.4002 67.6671 48.3714 67.9449 48.3703 73.9978L48.3694 79.2691L48.6737 79.6346L48.978 80H64.1635H79.349L79.6744 79.5459L80 79.0916L79.9561 73.7578C79.9154 68.8023 79.8953 68.3453 79.674 67.316C78.7454 62.9992 76.4548 59.8973 73.3873 58.8026C72.7662 58.5809 72.1962 58.5122 70.9788 58.5122C69.5623 58.5122 69.354 58.5452 69.1154 58.807C68.9676 58.9692 67.8028 61.1136 66.527 63.5723C64.3574 67.7532 64.1958 68.0255 64.0315 67.7792C63.9349 67.6344 62.8655 65.6092 61.6553 63.2789C60.4451 60.9485 59.3589 58.9226 59.2414 58.777C58.9213 58.3801 55.9713 58.4087 54.8222 58.82ZM12.5279 66.0783C14.2305 69.3194 15.2984 71.2198 15.4892 71.3477C16.1013 71.7581 16.2082 71.6013 19.0799 66.085L21.7835 60.8913L23.0383 60.9782C24.4528 61.0761 25.1524 61.3245 26.2321 62.1119C27.6472 63.1439 28.8438 65.0887 29.4193 67.2924C29.7125 68.4149 29.7152 68.4597 29.7497 72.9257L29.7845 77.4275H15.787H1.78945V73.366C1.78945 69.8166 1.81645 69.1571 2.00364 68.1357C2.32238 66.397 2.79555 65.2694 3.79179 63.8742C5.30176 61.7597 6.77746 60.9327 8.94519 60.9863L9.86497 61.009L12.5279 66.0783ZM60.7822 65.8851C62.1866 68.5668 63.4333 70.8948 63.5526 71.0583C63.8746 71.4996 64.2635 71.5753 64.6114 71.2642C64.7761 71.1169 66.0751 68.7492 67.4979 66.0027L70.0849 61.009L71.3194 61.0223C72.1507 61.0313 72.7666 61.1222 73.2048 61.3006C75.0184 62.0395 76.5697 63.825 77.3635 66.0871C78.0901 68.1575 78.1393 68.6152 78.1393 73.2979V77.4275H64.1491H50.1588V73.366C50.1588 69.8166 50.1858 69.1571 50.373 68.1357C50.6625 66.557 51.1614 65.3011 51.9839 64.0825C53.4683 61.8829 55.1058 60.9312 57.3117 60.9862L58.2286 61.009L60.7822 65.8851Z" fill="#57B8FF"/>
</svg>
