<svg width="80" height="80" viewBox="0 0 80 80" fill="none" xmlns="http://www.w3.org/2000/svg">
<path fill-rule="evenodd" clip-rule="evenodd" d="M36.8699 0.047645C33.1274 0.39056 28.8282 1.37871 25.6142 2.63502C12.0382 7.94114 2.59571 19.7531 0.322638 34.2729C-0.108966 37.03 -0.107223 42.9626 0.32595 45.7606C3.06584 63.454 16.5645 76.9472 34.2615 79.6822C36.7069 80.0601 42.7867 80.1127 45.1499 79.7766C53.9704 78.5217 62.0428 74.5703 68.1286 68.5285C73.3267 63.3681 77.015 56.9813 78.7859 50.0744C79.754 46.2985 80 44.2614 80 40.0168C80 35.7721 79.754 33.735 78.7859 29.9591C76.3504 20.46 70.2432 11.9446 61.9713 6.51389C59.7711 5.0694 55.5661 2.98839 53.1684 2.15741C51.097 1.43969 48.2361 0.742013 45.8398 0.370522C44.1507 0.108631 38.4462 -0.0966302 36.8699 0.047645ZM43.519 3.604C58.406 5.07811 71.0385 15.5147 75.1263 29.7171C76.1931 33.4238 76.5107 35.7863 76.5107 40.0168C76.5107 44.2473 76.1931 46.6097 75.1263 50.3164C71.7403 62.0806 62.0774 71.7394 50.3113 75.1211C32.4615 80.2514 13.7493 71.4634 6.40711 54.502C0.76505 41.4675 3.2839 26.0627 12.7665 15.6093C20.6731 6.89323 32.0164 2.46495 43.519 3.604ZM39.1552 8.89583C38.2552 9.39435 38.2771 9.05649 38.2705 22.5054L38.2644 35.0513L37.4741 35.4705C35.4335 36.5526 34.3209 39.2389 35.0039 41.4348L35.2552 42.2429L30.0373 47.4462C27.1673 50.3081 24.7067 52.8613 24.5692 53.12C23.7173 54.7234 25.295 56.3005 26.8991 55.449C27.1579 55.3115 29.7122 52.8519 32.5751 49.9831L37.7805 44.7672L38.589 45.0185C40.8666 45.7264 43.5697 44.5447 44.6304 42.3774C45.8571 39.8713 45.0075 36.9284 42.6657 35.5735L41.7624 35.0508L41.7565 22.5568C41.7523 13.2521 41.6976 9.94636 41.5424 9.60605C41.1608 8.76863 40.0051 8.42484 39.1552 8.89583Z" fill="#57B8FF"/>
</svg>
