<svg width="80" height="80" viewBox="0 0 80 80" fill="none" xmlns="http://www.w3.org/2000/svg">
<path fill-rule="evenodd" clip-rule="evenodd" d="M39.0067 0.0862826C38.1025 0.368638 37.6503 0.745687 33.6111 4.5841C30.0508 7.96751 29.3611 8.55539 28.9519 8.55492C28.6877 8.55476 26.191 8.19916 23.4036 7.76467C17.0435 6.77329 16.5596 6.76531 15.2905 7.63038C14.2517 8.33862 14.0925 8.85888 13.1201 14.7209C12.6218 17.7246 12.1199 20.3179 12.0048 20.484C11.8895 20.6499 9.4646 21.9305 6.61575 23.3298C3.76707 24.7289 1.3168 25.9685 1.17114 26.0845C1.02531 26.2003 0.712405 26.6111 0.476009 26.9974C0.139072 27.5479 0.0460499 27.906 0.0460499 28.6534C0.0460499 29.5752 0.134004 29.7729 2.6925 34.606C4.14799 37.3555 5.33879 39.7698 5.33879 39.9711C5.33879 40.1723 4.16401 42.5804 2.72814 45.3222C1.29228 48.0639 0.0741701 50.5799 0.0212018 50.9133C-0.0347092 51.2644 0.0229995 51.8252 0.158526 52.2467C0.632789 53.7226 0.835342 53.8622 6.51161 56.6271C9.57298 58.1184 11.8523 59.3225 11.9875 59.52C12.1148 59.7061 12.6152 62.2432 13.0996 65.158C13.584 68.0728 14.0635 70.669 14.1654 70.9272C14.4227 71.5802 15.2699 72.3977 16.0469 72.7428C16.9204 73.1308 17.8794 73.1134 20.7936 72.6567C25.5007 71.9189 28.5858 71.475 29.0073 71.475C29.3439 71.475 30.3004 72.3005 33.6111 75.4476C35.9095 77.6325 38.0475 79.5494 38.3622 79.7075C39.1393 80.0975 40.8548 80.0975 41.6319 79.7075C41.9466 79.5494 44.0846 77.6325 46.383 75.4476C49.7686 72.2293 50.6456 71.475 51.0022 71.475C51.2443 71.475 53.7518 71.8272 56.5745 72.2576C62.5864 73.1743 63.1073 73.1992 64.214 72.6226C64.9 72.2651 65.9908 71.0826 65.9908 70.6965C65.9908 70.0025 67.8373 59.7673 68.0073 59.5189C68.1446 59.3184 70.2977 58.1885 73.2692 56.7579C78.8862 54.0535 79.3836 53.7127 79.8223 52.2681C79.9868 51.7262 80.0404 51.2049 79.9692 50.8408C79.8783 50.3774 77.6376 45.9563 75.0769 41.1891C74.551 40.2098 74.5489 39.7839 75.0655 38.8537C76.8989 35.5523 79.8738 29.6446 79.9582 29.1373C80.0862 28.3674 79.7422 27.2046 79.1766 26.4947C78.8586 26.0956 77.5758 25.3984 73.5003 23.4105C70.4713 21.9329 68.1369 20.6997 68.0047 20.5068C67.8783 20.3226 67.3792 17.787 66.8956 14.8722C66.412 11.9576 65.9326 9.36145 65.8301 9.1032C65.5853 8.48668 64.7522 7.6634 63.9946 7.28948C63.1004 6.84826 62.2284 6.90539 56.5905 7.77406C53.8031 8.20354 51.3064 8.55508 51.0423 8.55523C50.6332 8.55539 49.9428 7.96689 46.383 4.58284C44.0846 2.39787 41.9567 0.490252 41.6543 0.343752C41.0157 0.0341626 39.6109 -0.102476 39.0067 0.0862826ZM44.8885 5.95549C47.1885 8.14109 49.2936 10.0368 49.5665 10.168C50.5681 10.6501 51.0983 10.6187 56.8537 9.73662C63.0585 8.78563 63.3147 8.78281 63.788 9.65883C63.9198 9.90284 64.3993 12.3426 64.8536 15.0809C65.815 20.8764 65.8575 21.0543 66.4436 21.7349C67.114 22.5131 67.0377 22.4702 72.2708 25.0065C74.9605 26.3102 77.3332 27.5543 77.5431 27.7712C77.7659 28.0013 77.925 28.3602 77.925 28.6325C77.925 28.9265 76.9416 30.9491 75.27 34.0936C72.6653 38.9932 72.6154 39.1058 72.6288 40.0509C72.6419 40.9759 72.7475 41.2119 75.2837 45.9866C76.7365 48.7213 77.925 51.1061 77.925 51.286C77.925 52.1855 77.5414 52.4697 74.0421 54.163C66.6929 57.7193 66.4052 57.8969 65.9141 59.1796C65.7804 59.5287 65.2982 62.0955 64.8428 64.883C64.3875 67.6707 63.909 70.1476 63.7795 70.3872C63.3136 71.2499 62.9709 71.2488 57.231 70.3683C54.3611 69.928 51.682 69.5619 51.2773 69.555C49.7323 69.5283 49.525 69.6743 44.9674 73.9996C40.7051 78.045 40.7005 78.0487 39.9915 78.0487C39.2826 78.0487 39.2766 78.0439 35.1027 74.0774C32.8043 71.8932 30.7677 70.029 30.5767 69.9349C29.474 69.3907 28.9774 69.4156 23.1484 70.3073C17.1095 71.2309 16.7311 71.2404 16.2112 70.4808C16.0827 70.293 15.6101 67.8966 15.1569 65.1341C14.705 62.3805 14.252 59.8311 14.15 59.4689C13.7717 58.1243 13.2786 57.785 7.8368 55.1236C5.06921 53.77 2.6312 52.4805 2.41916 52.2579C1.7703 51.5771 1.9771 51.0013 4.67505 45.9785C6.03441 43.4478 7.21835 41.0706 7.30614 40.696C7.40832 40.2595 7.4093 39.7765 7.30908 39.35C7.22309 38.9841 6.00907 36.5288 4.61097 33.8937C3.01146 30.8789 2.06914 28.929 2.06914 28.6341C2.06914 28.3564 2.22903 28.0004 2.46199 27.7598C2.67812 27.5365 4.49898 26.5684 6.50818 25.6085C13.1117 22.4537 13.7697 22.0247 14.1623 20.6197C14.2483 20.3115 14.6885 17.8207 15.1407 15.0845C15.5927 12.3483 16.0714 9.90832 16.2042 9.66243C16.6766 8.78766 16.9263 8.79032 23.118 9.73443C28.8732 10.612 29.4093 10.6433 30.4333 10.1605C30.7031 10.0334 32.8056 8.14109 35.1057 5.95549C39.282 1.98702 39.2887 1.9817 39.9971 1.9817C40.7054 1.9817 40.7121 1.98702 44.8885 5.95549ZM37.5448 18.9094C36.5767 19.1671 36.5639 19.2218 36.5639 23.12C36.5639 25.0716 36.4894 27.048 36.3982 27.5117C35.9355 29.8651 33.9291 31.8809 30.8731 33.0626L29.914 33.4335L29.2808 33.1246C28.7076 32.8447 28.3095 32.8154 25.0803 32.8154C21.2491 32.8154 20.6726 32.9092 20.1554 33.6163C19.9159 33.9436 19.8887 34.9649 19.8887 43.6619V53.3432L20.3525 53.7872C20.9729 54.3812 21.571 54.4492 25.6387 54.3876C28.842 54.3391 29.0431 54.3181 29.5141 53.9845L30.0107 53.6326L30.5967 54.0133C31.9694 54.9051 31.8963 54.8999 42.5508 54.8509C52.3137 54.8062 52.3424 54.8051 53.2632 54.4487C55.554 53.5619 56.4592 52.141 57.0739 48.4671C58.7714 38.32 59.1379 35.8559 59.0383 35.2565C58.7648 33.6093 57.5304 32.0158 55.9348 31.2503C55.1267 30.8626 55.0742 30.8585 50.19 30.8114L45.2609 30.764L45.193 26.8202C45.1301 23.1545 45.0985 22.8115 44.7469 21.9524C44.2276 20.6837 43.0033 19.5036 41.7483 19.0619C40.7172 18.6991 38.6212 18.623 37.5448 18.9094ZM40.7505 20.8382C41.6134 21.0836 42.2191 21.591 42.7167 22.4854C42.9868 22.9709 43.0313 23.5407 43.1078 27.4939C43.1554 29.9473 43.2554 32.0784 43.3301 32.2299C43.405 32.3813 43.6236 32.5389 43.816 32.5802C44.0084 32.6215 46.4832 32.6736 49.3156 32.6962C54.2321 32.7353 54.4948 32.7524 55.1192 33.0742C56.2551 33.6594 56.9992 34.7235 56.9992 35.7627C56.9992 36.6305 54.7137 50.1154 54.4549 50.774C54.1278 51.6068 53.1366 52.4332 52.1288 52.7137C51.5183 52.8835 49.466 52.9278 42.2041 52.9278C32.2331 52.9278 32.3098 52.9341 31.348 52.0338C30.2262 50.9837 30.2744 51.3731 30.2256 42.989L30.1814 35.398L31.3699 34.9718C33.191 34.3186 34.5636 33.4781 35.9133 32.1894C38.1935 30.0122 38.5257 28.9947 38.5257 24.1872C38.5257 21.6158 38.5754 20.7706 38.7301 20.7108C39.1259 20.5579 39.9465 20.6097 40.7505 20.8382ZM28.1446 43.6151V52.38H24.9975H21.8505V43.6151V34.8502H24.9975H28.1446V43.6151Z" fill="#57B8FF"/>
</svg>
