<svg width="80" height="80" viewBox="0 0 80 80" fill="none" xmlns="http://www.w3.org/2000/svg">
<path fill-rule="evenodd" clip-rule="evenodd" d="M34.689 0.189004C31.8878 0.57196 28.0417 1.57935 25.3447 2.63637C20.2132 4.64769 15.8662 7.52195 11.7106 11.6515C5.33306 17.9894 1.38385 25.954 0.202773 34.861C-0.217029 38.0266 0.0468621 45.0373 0.701397 48.1098C3.79419 62.6259 14.6814 74.3669 28.8271 78.4414C35.3853 80.3305 43.1175 80.5137 49.3908 78.929C55.5596 77.3705 60.6513 74.841 65.3279 71.0114C72.3976 65.2224 77.4118 57.0033 79.2995 48.1098C79.9521 45.0353 80.2088 38.5063 79.81 35.1274C78.7601 26.2325 74.7909 18.1452 68.2888 11.6535C62.6067 5.9805 55.8719 2.32674 48.0318 0.663808C45.1796 0.0588805 37.6116 -0.210495 34.689 0.189004ZM47.6199 2.85957C60.1198 5.53508 70.3179 14.0139 75.0904 25.6989C77.2044 30.8753 77.918 35.035 77.7344 41.1132C77.5422 47.4852 76.4439 51.8678 73.7017 57.2062C68.0958 68.1196 57.3769 75.7513 45.2417 77.4695C42.4691 77.8619 34.8025 77.6318 32.3417 77.0821C24.6301 75.3597 18.4176 71.9341 12.9784 66.4053C5.91322 59.2237 2.19529 50.1036 2.19801 39.9599C2.19924 34.7358 2.89949 30.8832 4.69557 26.2172C9.31018 14.2285 20.4921 4.96027 32.9594 2.79068C34.1825 2.57785 35.4612 2.35365 35.8009 2.29242C36.1407 2.23119 38.4201 2.22279 40.8662 2.27366C44.0855 2.34032 45.9506 2.50229 47.6199 2.85957ZM38.9995 6.26716C38.9921 6.37679 38.9886 8.35527 38.9918 10.6639L38.9975 14.8613H40.0168H41.0357L41.037 10.5404L41.0385 6.21951L40.0256 6.14371C39.4687 6.10173 39.0069 6.15729 38.9995 6.26716ZM22.9524 13.8737V14.9848H24.0643H25.1762V13.8737V12.7626H24.0643H22.9524V13.8737ZM54.8267 13.8737V14.9848H55.9386H57.0505V13.8737V12.7626H55.9386H54.8267V13.8737ZM65.9726 23.5765C65.8219 23.6266 65.6986 24.1649 65.6986 24.7725V25.8772L66.7487 25.8011C67.7887 25.7261 67.7995 25.7154 67.8734 24.7044C67.9463 23.7073 67.9283 23.6814 67.0973 23.5844C66.6296 23.5298 66.1233 23.5263 65.9726 23.5765ZM12.3753 24.676C12.4509 25.7228 12.4534 25.7253 13.4395 25.7253C14.4256 25.7253 14.4281 25.7228 14.5037 24.676L14.5798 23.6266H13.4395H12.2992L12.3753 24.676ZM39.0131 27.9552C39.0131 29.4492 39.0326 29.4304 37.2284 29.6717C35.6154 29.8872 33.8467 31.1149 33.1447 32.5059C32.5006 33.7825 32.4035 35.7916 32.9256 37.0404C33.4395 38.2693 35.3184 39.7683 37.2148 40.4621L38.8895 41.0747L38.958 44.6961C39.0329 48.6649 39.1008 48.5106 37.4764 48.0597C36.0814 47.6726 35.0851 46.7118 34.9038 45.579C34.7516 44.6274 34.7343 44.6139 33.6691 44.6139C32.6125 44.6139 32.5888 44.6316 32.5888 45.4257C32.5888 46.6427 33.5621 48.338 34.7231 49.1439C35.2855 49.5343 36.453 50.0466 37.3176 50.2826L38.8895 50.7115L38.9637 52.1071L39.0378 53.5026H40.1373H41.2369V52.1651V50.8276L42.4847 50.5602C45.7761 49.8548 47.4141 48.0437 47.4141 45.1096C47.4141 44.285 47.2623 43.2477 47.077 42.8043C46.4808 41.3784 44.3092 39.9497 42.1118 39.5379L41.2369 39.3737V35.4706V31.5674L42.1634 31.818C43.3744 32.1457 44.1436 32.8807 44.4922 34.0437C44.7633 34.9476 44.8167 34.9844 45.8584 34.9844H46.9424L46.7788 34.0585C46.3975 31.8976 44.9763 30.3398 42.8654 29.7692C42.3095 29.6191 41.7157 29.4566 41.5457 29.4085C41.3463 29.3519 41.2369 28.8366 41.2369 27.9552V26.5895H40.125H39.0131V27.9552ZM39.0131 35.2624V38.7214L38.4571 38.5532C37.2177 38.1787 35.4941 37.0663 35.1637 36.4283C34.1645 34.4975 35.1674 32.4822 37.4154 31.9032C38.0902 31.7294 38.7257 31.6358 38.8278 31.6953C38.9298 31.7551 39.0131 33.3602 39.0131 35.2624ZM6.15042 39.7991V40.9102H10.3509H14.5514V39.7991V38.688H10.3509H6.15042V39.7991ZM65.6986 39.7991V40.9102H69.7755H73.8524V39.7991V38.688H69.7755H65.6986V39.7991ZM42.7814 42.0386C44.5755 42.6495 45.1903 43.3638 45.1903 44.8373C45.1903 45.5166 45.0677 46.341 44.9177 46.6699C44.6076 47.3501 43.2277 48.1807 42.0399 48.4022L41.2369 48.5521V45.1015C41.2369 43.2038 41.3283 41.651 41.44 41.651C41.5517 41.651 42.1553 41.8253 42.7814 42.0386ZM12.3276 54.8606V55.9717H13.4395H14.5514V54.8606V53.7495H13.4395H12.3276V54.8606ZM65.6986 54.8606V55.9717H66.8104H67.9223V54.8606V53.7495H66.8104H65.6986V54.8606ZM22.9524 66.2184V67.3295H24.0643H25.1762V66.2184V65.1073H24.0643H22.9524V66.2184ZM39.0012 65.2167C38.9948 65.2922 38.9842 67.2154 38.9777 69.4899L38.9661 73.6257H40.0014H41.0367L41.0382 69.4282L41.0394 65.2308L40.0261 65.155C39.469 65.113 39.0079 65.1409 39.0012 65.2167ZM54.8744 66.1567C54.95 67.2008 54.9554 67.2063 56.0004 67.2818L57.0505 67.3579V66.2325V65.1073H55.9245H54.7983L54.8744 66.1567Z" fill="#57B8FF"/>
</svg>
