<svg width="80" height="80" viewBox="0 0 80 80" fill="none" xmlns="http://www.w3.org/2000/svg">
<path fill-rule="evenodd" clip-rule="evenodd" d="M37.7778 0.209619C35.7472 0.543504 34.1932 1.12862 27.5556 4.05831C21.0722 6.91993 18.144 8.07904 14.2677 9.31859C11.3771 10.2429 6.32622 11.5473 2.8 12.28L0 12.8618L0.00124512 15.5543C0.00444512 22.4677 1.16747 30.3679 3.19129 37.223C7.0208 50.1951 14.7861 62.0418 24.9689 70.4459C29.6384 74.3001 34.538 77.5013 38.4889 79.2799L40.0889 80L41.6889 79.1726C46.4201 76.7258 50.3634 73.9716 55.3511 69.6297C68.5248 58.1623 76.5755 43.3786 79.2045 25.8267C79.6432 22.8968 80 18.2565 80 15.4759V12.8618L77.2 12.2789C71.5305 11.0986 66.0222 9.53815 61.1191 7.72288C59.8192 7.24158 55.909 5.59035 52.4299 4.05329C45.8005 1.12439 43.9422 0.440311 41.8322 0.151436C40.2492 -0.0651416 39.3717 -0.0525954 37.7778 0.209619ZM43.4217 3.78982C44.0812 4.01346 47.6412 5.52856 51.3328 7.15658C60.8462 11.3523 67.4635 13.5732 75.0711 15.1232L76.4532 15.4047L76.3639 16.5122C76.3148 17.1212 76.2293 18.537 76.1737 19.6583C75.7781 27.6463 73.5355 36.7332 70.0738 44.3752C66.7776 51.652 61.3724 59.2665 55.4414 64.9887C51.7067 68.5918 46.5143 72.5603 42.2766 75.0504L40.0011 76.3875L38.7116 75.7174C32.302 72.3856 25.5737 67.0721 20.4812 61.3202C18.7417 59.3556 15.7269 55.3899 14.418 53.3448C8.02471 43.3555 4.37173 31.4682 3.75289 18.639C3.67182 16.957 3.63342 15.5357 3.66773 15.4805C3.70204 15.4253 4.31093 15.2594 5.02062 15.1116C5.73031 14.964 7.79271 14.466 9.60338 14.0049C16.2112 12.3225 20.2037 10.8881 28.6222 7.17305C37.5364 3.23904 37.486 3.25551 40.3556 3.33283C41.8432 3.37297 42.4658 3.46582 43.4217 3.78982ZM52.3924 25.66C44.8156 36.0979 38.2905 44.978 38.1948 44.9815C38.1308 44.984 35.6169 43.0219 32.6084 40.6216L27.1381 36.2572L25.9186 37.4375L24.699 38.6178L25.194 39.0376C25.4661 39.2686 28.6693 41.8316 32.3122 44.7332L38.9356 50.0089L40.1161 48.3992C40.7653 47.5138 43.179 44.2135 45.4798 41.0652C47.7806 37.9169 51.3333 33.0573 53.3751 30.2663C55.4167 27.4752 57.0626 25.1744 57.0325 25.1536C56.8039 24.9953 54.0825 23.5012 54.0267 23.5036C53.9876 23.5052 53.2521 24.4754 52.3924 25.66Z" fill="#57B8FF"/>
</svg>
