<svg width="80" height="80" viewBox="0 0 80 80" fill="none" xmlns="http://www.w3.org/2000/svg">
<path fill-rule="evenodd" clip-rule="evenodd" d="M33.8181 0.357245C16.5432 3.20814 3.23518 16.4496 0.411206 33.5968C-0.818143 41.0629 0.87126 53.1382 3.32927 54.4531C4.2006 54.9191 5.69146 54.3276 5.98651 53.3986C6.09651 53.0518 5.75164 51.0919 5.21964 49.0427C4.36179 45.7393 4.25283 44.7107 4.25422 39.9586C4.25595 35.4531 4.38532 34.1082 5.0664 31.5114C6.76169 25.0469 9.42551 20.1918 13.8182 15.5611C17.0206 12.1847 19.8992 10 23.7169 8.04837C34.1152 2.73345 45.5958 2.68367 56.1878 7.90766C59.4704 9.52637 63.6898 12.5114 63.3875 13.0006C63.273 13.1859 62.4449 13.3374 61.5469 13.3374C59.4888 13.3374 58.3774 14.0689 58.3774 15.4235C58.3774 17.2784 59.3604 17.5625 64.8002 17.2808C71.0943 16.9544 70.83 17.2324 70.83 10.937C70.83 6.34738 70.793 6.0905 70.061 5.57813C68.2381 4.30169 66.6791 5.48755 66.6791 8.15002V9.87729L63.9859 7.88104C59.2345 4.36012 53.8903 1.96731 47.9442 0.698481C44.3488 -0.0686954 37.4145 -0.236029 33.8181 0.357245ZM37.621 22.2828C36.0236 22.8069 34.6915 23.6412 33.5974 24.8035C31.7451 26.7711 31.2376 28.0973 31.2376 30.9696C31.2376 33.8416 31.7447 35.1672 33.5974 37.1368C35.4362 39.0915 37.0969 39.7699 40.0444 39.7699C42.9918 39.7699 44.6525 39.0915 46.4914 37.1368C48.344 35.1672 48.8511 33.8416 48.8511 30.9696C48.8511 29.1193 48.6688 28.0302 48.214 27.1666C47.3167 25.4628 45.6415 23.7698 44.0323 22.9418C42.5415 22.1739 39.0475 21.815 37.621 22.2828ZM74.5156 25.7246C73.7705 26.5474 73.7826 26.7379 74.8404 30.8047C77.4544 40.853 75.6204 51.6921 69.8839 60.1009C60.9533 73.1917 44.473 78.9771 29.4943 74.28C24.5392 72.726 16.1098 67.8733 16.702 66.916C16.8161 66.731 17.6439 66.5799 18.5419 66.5799C20.6 66.5799 21.7114 65.8484 21.7114 64.4938C21.7114 62.642 20.7249 62.3547 15.3267 62.6348C9.14463 62.9549 9.25878 62.8346 9.25878 69.0467C9.25878 73.0337 9.33038 73.5661 9.95059 74.186C11.566 75.8006 13.4096 74.4954 13.4096 71.7372V69.9795L14.3609 70.719C24.756 78.8005 36.6175 81.6852 48.6363 79.0546C63.8136 75.7325 76.1102 63.4078 79.3652 48.2562C80.14 44.6488 80.2244 35.7113 79.5139 32.5254C78.763 29.1584 77.7682 26.1989 77.1953 25.6264C76.4748 24.9059 75.215 24.9522 74.5156 25.7246ZM42.3824 26.8191C43.0026 27.197 43.8189 28.0129 44.197 28.6328C46.6623 32.6741 41.7497 37.5842 37.7064 35.1201C36.2498 34.2326 35.2041 32.4981 35.2041 30.9696C35.2041 28.5305 37.604 26.1318 40.0444 26.1318C40.7103 26.1318 41.7625 26.4413 42.3824 26.8191ZM35.9298 43.2718C34.9032 43.5477 33.3203 44.1776 32.412 44.6716C30.4784 45.7234 27.2538 48.8387 26.3368 50.5408C25.7516 51.6267 25.7415 51.8134 26.222 52.6729C26.581 53.3156 27.0785 53.6475 27.7862 53.7177C28.6845 53.8065 29.0979 53.5103 30.8675 51.5081C33.6496 48.3602 36.3377 47.0603 40.0444 47.07C44.2814 47.081 46.9715 48.6151 50.5046 53.0349C51.3642 54.1101 53.0058 54.043 53.7537 52.9021C54.2971 52.0727 54.2971 51.9386 53.753 50.798C52.9124 49.0365 49.8996 45.9837 47.8376 44.8047C44.3558 42.8137 39.8106 42.2284 35.9298 43.2718Z" fill="#57B8FF"/>
</svg>
