<svg width="80" height="80" viewBox="0 0 80 80" fill="none" xmlns="http://www.w3.org/2000/svg">
<path fill-rule="evenodd" clip-rule="evenodd" d="M39.3465 0.17074C38.5254 0.562703 38.5137 0.637251 38.5075 5.53961C38.5019 9.99858 38.5203 10.2546 38.8707 10.5676C39.0739 10.7491 39.418 10.9446 39.6357 11.0021C40.1904 11.1485 41.0417 10.8174 41.2937 10.3569C41.4359 10.0974 41.5059 8.47167 41.5059 5.43255V0.895591L40.9571 0.438769C40.3721 -0.0480596 39.9515 -0.118075 39.3465 0.17074ZM15.3027 6.14818C14.7736 6.58844 14.7238 6.99681 15.1213 7.63664C15.7881 8.70985 20.5445 14.7833 20.9683 15.1025C21.544 15.5365 22.1549 15.5506 22.7758 15.1441C23.4195 14.7226 23.5592 14.1606 23.1743 13.5409C22.6577 12.7097 17.842 6.49545 17.4205 6.11614C16.8804 5.63025 15.9072 5.64494 15.3027 6.14818ZM63.7919 6.18678C63.3674 6.27821 57.0913 14.0975 57.0913 14.5351C57.0913 14.9327 58.0704 15.7668 58.5374 15.7668C58.7287 15.7668 59.0806 15.653 59.3193 15.5139C59.9647 15.1376 65.729 7.85107 65.729 7.41128C65.729 6.82912 65.5377 6.55249 64.9644 6.30572C64.4152 6.06926 64.3624 6.06394 63.7919 6.18678ZM38.126 17.3352C31.6629 17.7822 25.5795 20.3419 21.4832 24.3376C13.0363 32.577 13.4118 44.3735 22.3671 52.1031C23.2633 52.8767 24.3408 53.9205 24.761 54.4227C26.1881 56.127 27.2314 59.6373 27.2338 62.7424C27.2348 64.0222 27.2774 64.1939 27.6695 64.5006L28.1042 64.8403H40.03H51.9558L52.3956 64.4507C52.7973 64.0948 52.8478 63.8682 52.9772 61.8329C53.1644 58.8899 53.7224 56.8145 54.7984 55.0589C55.0087 54.7159 56.1707 53.5248 57.3805 52.4122C58.5902 51.2995 59.9806 49.8951 60.4702 49.2914C62.3254 47.0032 63.8659 43.8765 64.4368 41.2413C64.7993 39.5671 64.7547 35.7102 64.353 34.0193C61.8973 23.679 50.5718 16.4744 38.126 17.3352ZM0.963405 19.2205C-0.0398816 19.5512 -0.329808 20.6185 0.429934 21.1845C1.26704 21.8083 9.93553 25.6127 10.5195 25.6127C11.6659 25.6127 12.2846 24.3604 11.5087 23.6107C11.178 23.2914 2.49209 19.3076 1.79131 19.1538C1.58476 19.1086 1.21221 19.1386 0.963405 19.2205ZM78.1222 19.1646C77.3454 19.4073 68.7774 23.3303 68.4612 23.5882C67.5871 24.3007 68.2572 25.6127 69.4951 25.6127C70.0556 25.6127 78.8088 21.7731 79.5775 21.1902C79.874 20.9651 80 20.6926 80 20.2754C80 19.8289 79.8949 19.6259 79.5775 19.4593C79.0213 19.1674 78.4704 19.0558 78.1222 19.1646ZM43.3786 19.9152C51.6336 21.0295 58.4634 26.0066 60.7501 32.5745C61.4894 34.6977 61.6535 35.9226 61.5448 38.5063C61.4432 40.9195 61.1219 42.3299 60.2456 44.2107C59.1531 46.5553 57.4782 48.7358 55.5258 50.3553C52.0289 53.256 50.4585 56.2404 50.0013 60.8551L49.862 62.2616L40.0745 62.3021L30.2871 62.3426L30.1693 61.8528C30.1045 61.5833 30.0516 61.0996 30.0516 60.7779C30.0516 59.7851 29.5025 57.5085 28.8962 55.9863C28.0753 53.9257 26.9972 52.4982 24.7794 50.5352C23.7226 49.5997 22.3766 48.2242 21.7885 47.4788C17.5089 42.0541 17.182 34.8248 20.9565 29.0727C25.3082 22.4411 34.4452 18.7095 43.3786 19.9152ZM39.3465 22.6641C38.3939 23.1484 38.2351 23.9419 38.9685 24.5522C39.3649 24.8821 39.67 24.9551 40.9871 25.0353C48.4972 25.4922 54.4328 29.8846 55.883 36.0585C56.0312 36.6893 56.1525 37.5192 56.1525 37.9027C56.1525 39.4984 57.5536 40.2456 58.7224 39.2728C59.1963 38.8782 59.2068 38.8266 59.1075 37.3583C58.6508 30.6021 52.7627 24.7077 44.7943 23.0296C42.568 22.5608 39.9018 22.3818 39.3465 22.6641ZM29.3944 66.3893C27.5373 66.7778 26.4839 67.8565 26.4839 69.3698C26.4839 69.8066 26.598 70.3914 26.7375 70.6695C27.0701 71.3316 28.1755 72.1279 29.0626 72.3439C29.5517 72.4628 33.053 72.5013 40.4103 72.4681L51.0506 72.4202L51.8629 71.9447C54.1438 70.6104 54.0815 68.0012 51.7401 66.7939L50.8309 66.325L40.3943 66.2983C34.6542 66.2836 29.7042 66.3246 29.3944 66.3893ZM50.2938 68.935C50.5999 69.1898 50.577 69.4585 50.2242 69.7522C49.9634 69.9691 48.7826 69.9977 40.0719 69.9977C33.6362 69.9977 30.0886 69.9416 29.8514 69.836C29.5022 69.6803 29.354 69.0675 29.6135 68.8517C29.6822 68.7943 34.3128 68.7475 39.9036 68.7475C47.5593 68.7475 50.1241 68.7937 50.2938 68.935ZM32.5866 73.8213C32.4833 73.8522 32.1643 73.9207 31.8777 73.9733C31.105 74.1154 29.9297 75.079 29.5683 75.867C28.9204 77.2788 29.7149 78.8952 31.4002 79.5941L32.3787 80H39.9526C48.2046 80 48.3233 79.9887 49.4562 79.0931C50.2612 78.4567 50.5798 77.8275 50.5798 76.8743C50.5798 75.9177 50.2569 75.283 49.4562 74.6663C48.3444 73.8099 48.5436 73.8291 40.3793 73.7958C36.1966 73.7787 32.6898 73.7903 32.5866 73.8213ZM47.5211 76.5717C47.6753 76.8116 47.6708 76.9523 47.5029 77.1204C47.3118 77.3122 46.159 77.3405 39.9525 77.3058C33.3538 77.2691 32.6078 77.2392 32.4302 77.0046C32.2869 76.8157 32.3006 76.6763 32.4795 76.4967C32.697 76.2785 33.5944 76.2492 40.0201 76.2492C47.1969 76.2492 47.317 76.2543 47.5211 76.5717Z" fill="#57B8FF"/>
</svg>
