<svg width="62" height="80" viewBox="0 0 62 80" fill="none" xmlns="http://www.w3.org/2000/svg">
<path d="M52.729 0H9.27102C4.15646 0 0 4.14855 0 9.25337V70.7466C0 75.8514 4.15646 80 9.27102 80H52.729C57.8419 80 62 75.8514 62 70.7466V9.25337C62 4.15023 57.8419 0 52.729 0ZM58.9096 70.7466C58.9096 74.1489 56.1344 76.9155 52.729 76.9155H9.27102C5.86227 76.9155 3.09042 74.1486 3.09042 70.7466V9.25337C3.09042 5.85112 5.86252 3.08454 9.27102 3.08454H52.729C56.1346 3.08454 58.9096 5.85136 58.9096 9.25337V70.7466ZM7.91911 25.6395H54.0809V9.25337H7.91911V25.6395ZM11.0093 12.3379H50.9905V22.5552H11.0093V12.3379ZM18.0646 33.9738V37.7106C18.0646 39.0491 16.9752 40.1335 15.6355 40.1335H11.8916C10.5506 40.1335 9.46576 39.0494 9.46576 37.7106V33.9738C9.46576 32.6367 10.5506 31.5526 11.8916 31.5526H15.6355C16.9752 31.5509 18.0646 32.6367 18.0646 33.9738ZM35.3011 33.9738V37.7106C35.3011 39.0477 34.2117 40.1335 32.8721 40.1335H29.1296C27.7885 40.1335 26.702 39.0479 26.702 37.7106V33.9738C26.702 32.6353 27.7883 31.5526 29.1296 31.5526H32.8721C34.2117 31.5509 35.3011 32.635 35.3011 33.9738ZM52.5359 33.9738V37.7106C52.5359 39.0477 51.4466 40.1335 50.1069 40.1335H46.3645C45.0248 40.1335 43.9355 39.0479 43.9355 37.7106V33.9738C43.9355 32.6353 45.0248 31.5526 46.3645 31.5526H50.1069C51.4466 31.5509 52.5359 32.635 52.5359 33.9738ZM18.0646 49.0891V52.8259C18.0646 54.163 16.9752 55.2472 15.6355 55.2472H11.8916C10.5506 55.2472 9.46576 54.163 9.46576 52.8259V49.0891C9.46576 47.752 10.5506 46.6678 11.8916 46.6678H15.6355C16.9752 46.6664 18.0646 47.7506 18.0646 49.0891ZM18.0646 64.203V67.9383C18.0646 69.2768 16.9752 70.3612 15.6355 70.3612H11.8916C10.5506 70.3612 9.46576 69.2771 9.46576 67.9383V64.203C9.46576 62.8628 10.5506 61.78 11.8916 61.78H15.6355C16.9752 61.7803 18.0646 62.8628 18.0646 64.203ZM35.3011 49.0877V52.8276C35.3011 54.1632 34.2117 55.2474 32.8721 55.2474H29.1296C27.7885 55.2474 26.702 54.1632 26.702 52.8276V49.0877C26.702 47.7506 27.7883 46.6664 29.1296 46.6664H32.8721C34.2117 46.6647 35.3011 47.7489 35.3011 49.0877ZM35.3011 64.2015V67.9383C35.3011 69.2754 34.2117 70.3612 32.8721 70.3612H29.1296C27.7885 70.3612 26.702 69.2754 26.702 67.9383V64.2015C26.702 62.863 27.7883 61.7786 29.1296 61.7786H32.8721C34.2117 61.7786 35.3011 62.8627 35.3011 64.2015ZM52.5359 49.0877V52.8276C52.5359 52.8321 52.5314 52.8369 52.5314 52.8429V64.1859C52.5314 64.1905 52.5359 64.1982 52.5359 64.203V67.9397C52.5359 69.2768 51.4466 70.3627 50.1069 70.3627H46.3645C45.0217 70.3627 43.9355 69.2771 43.9355 67.9397V66.1894V64.203V52.8276V50.121V49.0877C43.9355 47.7506 45.0217 46.6664 46.3645 46.6664H50.1069C51.4466 46.6647 52.5359 47.7489 52.5359 49.0877Z" fill="#57B8FF"/>
</svg>
