<svg width="80" height="80" viewBox="0 0 80 80" fill="none" xmlns="http://www.w3.org/2000/svg">
<path fill-rule="evenodd" clip-rule="evenodd" d="M12.44 0.168603C11.2498 0.388043 9.46062 0.983979 9.13033 1.27118C8.74263 1.608 8.60761 2.26514 8.83438 2.71192C8.93892 2.91808 10.8532 4.9218 13.0882 7.1648L17.1519 11.2429L14.1649 14.2262L11.1781 17.2098L7.09535 13.1507C4.84978 10.9183 2.84376 9.00625 2.63737 8.90182C2.19091 8.67583 1.53689 8.80934 1.18437 9.19828C1.04481 9.35231 0.723603 10.1589 0.470578 10.9908C0.0601487 12.3401 0.00930808 12.7756 0.00055406 15.0256C-0.00702154 16.9796 0.0614955 17.8121 0.304588 18.7205C1.87408 24.5833 6.32652 28.8152 12.1697 29.9979C13.9274 30.3535 17.0871 30.2691 18.8907 29.8183L20.1225 29.5104L24.866 34.2483L29.6095 38.9863L28.491 40.1034L27.3727 41.2206L26.481 40.7767C25.5025 40.2897 25.0684 40.2431 24.0559 40.5165C23.4783 40.6724 21.8302 42.2457 12.4739 51.5716C2.33401 61.6785 1.52325 62.5288 0.972756 63.6353C-0.158365 65.9087 -0.172001 68.2899 0.932858 70.6258C1.34295 71.4928 1.9495 72.2106 4.16124 74.4467C5.65902 75.9611 7.31808 77.4844 7.8477 77.8318C9.21703 78.7301 10.6002 79.0661 12.5735 78.9798C14.0072 78.9172 14.3033 78.8446 15.493 78.2648C16.7775 77.6389 17.1357 77.3023 27.4741 67.0054C33.3354 61.1678 38.2785 56.1553 38.4588 55.8668C38.6391 55.5782 38.8344 54.994 38.8928 54.5684C38.9805 53.9296 38.9181 53.6298 38.5343 52.8462L38.0696 51.8975L39.1861 50.7823L40.3026 49.6671L45.3826 54.7413L50.4626 59.8155L50.1377 61.2142C49.652 63.3059 49.6845 67.0111 50.2044 68.8348C51.8165 74.4901 56.2633 78.6114 62.0058 79.7726C63.0842 79.9907 63.9319 80.0387 65.5411 79.9724C69.1866 79.8224 71.4876 78.8902 71.1959 77.6811C71.1309 77.4118 69.5013 75.6515 66.9749 73.1215C64.7117 70.855 62.8598 68.9246 62.8598 68.8317C62.8598 68.7389 64.1851 67.341 65.8046 65.7253L68.7494 62.7875L73.0089 67.0301C77.5974 71.6005 77.7134 71.6809 78.5753 70.8946C79.4627 70.085 80.1288 66.8326 79.9788 64.0424C79.6334 57.6209 75.3299 52.2434 68.9962 50.3184C67.636 49.905 67.2353 49.8601 64.88 49.858C62.7524 49.8561 62.0486 49.919 61.0675 50.1991L59.8644 50.5425L53.8708 44.5541L47.8772 38.5656L56.3366 30.124L64.7958 21.6823L67.4052 20.57C68.8404 19.9583 70.1742 19.2929 70.3693 19.0914C70.5644 18.8898 72.0605 16.5145 73.6941 13.8127C75.9244 10.124 76.6643 8.7641 76.6643 8.35364C76.6643 7.87289 76.3543 7.49757 74.0909 5.23675C71.8098 2.9581 71.4544 2.66635 70.961 2.66635C70.5381 2.66635 69.1607 3.41212 65.2276 5.77064L60.0508 8.87492L59.4545 10.1847C59.1266 10.905 58.5763 12.146 58.2317 12.9424L57.6051 14.3904L49.1214 22.8629L40.6377 31.3355L35.0655 25.7696L29.493 20.2036L29.8797 18.7077C30.3654 16.8281 30.4122 13.6338 29.9799 11.8749C28.456 5.67563 23.7938 1.23604 17.6699 0.152628C16.4808 -0.057732 13.6206 -0.0489881 12.44 0.168603ZM18.4183 3.0146C20.587 3.61474 22.1817 4.5643 23.8943 6.27493C25.5759 7.95461 26.482 9.45656 27.1949 11.7466C27.7471 13.52 27.741 16.8173 27.1823 18.5569C26.4209 20.928 25.8264 20.0154 32.6972 27.0217L38.7664 33.2106L36.5363 35.4338L34.3061 37.6567L33.9793 37.2959C33.2462 36.4867 32.1982 36.3048 31.7031 36.9009C31.5447 37.0916 30.5354 36.1862 26.2956 32.0498C23.4287 29.2529 20.9372 26.8959 20.7587 26.8122C20.5301 26.7049 19.975 26.8041 18.8783 27.1485C17.4653 27.5923 17.1051 27.6366 14.9652 27.6324C12.7636 27.6281 12.5112 27.5934 11.1335 27.1053C5.87467 25.2426 2.56346 20.6949 2.52222 15.2779C2.4973 12.0266 2.18519 11.9405 6.6925 16.4277C10.2562 19.9756 10.6555 20.3225 11.1759 20.3225C11.6976 20.3225 12.1153 19.9554 16.0076 16.0758C19.9294 12.1667 20.2681 11.783 20.2681 11.2496C20.2681 10.7182 19.9446 10.3458 16.3689 6.76241C12.1651 2.54949 12.3552 2.84628 13.7026 2.59926C14.5497 2.44389 17.2004 2.67745 18.4183 3.0146ZM71.2454 12.9634L68.6678 17.2685L66.6397 18.1229C65.5243 18.5928 64.5383 18.9772 64.4487 18.9772C64.3591 18.9772 63.365 18.0502 62.2398 16.9174L60.1939 14.8575L61.0866 12.8396L61.9792 10.8218L66.3337 8.18196L70.688 5.54195L72.2554 7.10023L73.8227 8.65834L71.2454 12.9634ZM60.5043 18.8945L62.2674 20.6616L51.0323 31.8839L39.7972 43.1061L37.9878 41.2988L36.1784 39.4915L47.3721 28.3096C53.5289 22.1594 58.6056 17.1276 58.6537 17.1276C58.7018 17.1276 59.5347 17.9228 60.5043 18.8945ZM36.0491 43.0637C37.9248 44.9356 39.4597 46.545 39.4597 46.6402C39.4597 46.7352 38.7199 47.549 37.8161 48.4485L36.1724 50.0841L32.6416 46.5544L29.1111 43.0249L30.789 41.3425C31.7118 40.4172 32.5056 39.6601 32.5527 39.6601C32.6 39.6601 34.1734 41.1917 36.0491 43.0637ZM52.4437 46.7646C55.9576 50.2097 58.9818 53.0969 59.164 53.1807C59.3985 53.2885 59.9493 53.1903 61.0511 52.8444C62.4662 52.3999 62.8209 52.3564 64.9642 52.3626C67.0948 52.3687 67.4503 52.4142 68.6678 52.8361C74.0083 54.6868 77.3656 59.2502 77.4072 64.715C77.4321 67.9662 77.7442 68.0523 73.2369 63.5652C69.6568 60.001 69.2757 59.6704 68.7474 59.6704C68.2173 59.6704 67.8219 60.0181 63.9157 63.92C60.0094 67.8216 59.6613 68.2166 59.6613 68.7461C59.6613 69.2738 59.9922 69.6545 63.5605 73.2305C67.4262 77.1045 67.4555 77.1394 66.9695 77.2739C66.0364 77.532 63.0203 77.3855 61.6331 77.0149C57.9096 76.0196 54.5891 73.0907 53.2171 69.5914C52.4564 67.6511 52.3525 67.07 52.3609 64.7991C52.3675 63.0103 52.4377 62.3992 52.7471 61.436C53.5063 59.0718 54.039 59.9161 47.7039 53.4438C42.4113 48.0367 42.1216 47.7088 42.3823 47.4209C42.8298 46.9272 42.7268 46.1396 42.1254 45.4554L41.5924 44.8492L43.7643 42.6751C44.9589 41.4792 45.9627 40.5009 45.9954 40.5009C46.0279 40.5009 48.9297 43.3195 52.4437 46.7646ZM30.7418 48.3587C34.3816 51.9883 36.2611 53.9791 36.2611 54.2051C36.2611 54.4346 32.7416 58.0553 25.6131 65.1594C13.6723 77.0595 14.4726 76.4017 11.935 76.4017C9.949 76.4017 9.40911 76.0803 6.35934 73.0837C3.12978 69.9103 2.84427 69.4352 2.84427 67.2373C2.84427 65.9247 2.9111 65.5043 3.21951 64.8794C3.48718 64.337 6.62297 61.0699 14.162 53.479C19.974 47.6269 24.8403 42.8426 24.976 42.847C25.1116 42.8513 27.7062 45.3316 30.7418 48.3587ZM15.9445 56.8538C9.62527 63.1712 6.78408 66.1228 6.70395 66.4532C6.53122 67.165 7.07162 67.8105 7.89786 67.8796L8.54095 67.9336L17.6872 58.7977C26.4448 50.0503 26.8337 49.6357 26.8337 49.0451C26.8337 48.5793 26.7252 48.3432 26.3901 48.0801C25.4273 47.3236 25.7411 47.0601 15.9445 56.8538ZM20.4803 61.5638C13.5425 68.4936 11.1774 70.955 11.1774 71.2456C11.1774 71.7487 12.0479 72.6182 12.5516 72.6182C12.8425 72.6182 15.3068 70.2558 22.2445 63.326C32.3288 53.2533 32.0445 53.5937 31.1341 52.6845C30.2238 51.7751 30.5646 51.4911 20.4803 61.5638Z" fill="#57B8FF"/>
</svg>
