<svg width="512" height="512" viewBox="0 0 512 512" fill="none" xmlns="http://www.w3.org/2000/svg">
<path fill-rule="evenodd" clip-rule="evenodd" d="M173.596 188.601V377.201H183.864H194.132L194.145 271.34C194.153 213.116 194.441 165.142 194.787 164.732C195.133 164.321 196.378 163.508 197.555 162.924C198.732 162.341 204.836 159.234 211.119 156.02C217.403 152.805 222.89 150.361 223.312 150.589C223.76 150.831 224.081 198.117 224.081 264.102V377.201H253.601H283.121L283.111 282.542L283.1 187.883L276.539 184.522C272.931 182.674 268.026 180.21 265.64 179.047C263.254 177.884 259.665 176.106 257.665 175.094L254.029 173.257L254.006 122.318L253.982 71.3794L238.031 57.1898C229.258 49.3856 211.171 33.3253 197.838 21.5001L173.596 0V188.601ZM310.502 223.337V377.201H337.456H364.409V317.565V257.928L369.272 254.272C375.579 249.529 378.075 247.229 378.912 245.388C379.438 244.23 379.59 145.122 379.073 139.559C379.008 138.857 375.971 135.31 372.324 131.676C368.677 128.042 363.575 122.908 360.986 120.268C358.398 117.628 354.73 113.949 352.835 112.094C347.27 106.646 339.398 98.7106 336.172 95.2977C334.525 93.5546 328.076 87.0304 321.84 80.7997L310.502 69.4712V223.337ZM103.432 292.826V377.232L121.187 377.03L138.942 376.828L139.16 299.053L139.378 221.278L133.801 219.329C130.734 218.258 126.592 216.725 124.599 215.924C117.392 213.027 104.833 208.42 104.141 208.42C103.75 208.42 103.432 246.403 103.432 292.826ZM402.058 308.491V377.201H425.167H448.275L448.056 323.7L447.836 270.198L433.718 260.853C425.953 255.713 415.652 248.87 410.829 245.644L402.058 239.78V308.491ZM63.7551 293.303C63.4907 294.059 63.3572 313.162 63.459 335.753L63.6438 376.828H74.3396H85.0354L85.2562 334.819L85.4778 292.811L76.6995 292.8C71.8719 292.795 67.093 292.597 66.0791 292.359C64.7622 292.051 64.0991 292.319 63.7551 293.303ZM356.555 384.92C351.178 386.243 347 389.164 344.794 393.141C343.196 396.02 342.91 398.211 342.469 410.898C341.59 436.207 343.368 442.263 352.87 446.32C361.634 450.062 374.275 448.6 379.897 443.194C384.456 438.809 384.945 436.266 384.945 416.903C384.945 396.748 384.276 393.288 379.62 389.354C374.291 384.852 364.488 382.968 356.555 384.92ZM63.216 416.289V447.313L65.5691 447.069C66.8637 446.935 70.9059 446.788 74.5535 446.74L81.1849 446.655V434.333V422.01L86.9606 422.009C93.5407 422.008 97.6145 420.574 100.377 417.288C101.972 415.39 102.149 414.124 102.149 404.592C102.149 387.383 100.315 385.962 77.5483 385.535L73.2612 385.265H63.216V416.289ZM108.281 385.914C107.967 386.188 107.71 399.967 107.71 416.534V446.655L121.829 446.789C129.594 446.862 136.813 446.946 137.873 446.976C139.714 447.027 139.798 446.768 139.798 441.054V435.08L133.077 434.706L126.357 434.333L126.403 428.545C126.429 425.361 126.469 422.421 126.492 422.01C126.516 421.592 129 421.264 132.133 421.264H137.73L137.481 415.476L137.231 409.688H132.097H126.963L126.715 403.527L126.466 397.365H132.49H138.514V391.391V385.416H123.683C115.525 385.416 108.594 385.64 108.281 385.914ZM145.36 416.251V447.086L153.245 446.947L161.13 446.808L161.262 444.678C161.335 443.506 161.483 434.986 161.591 425.744L161.787 408.941L164.682 426.491C166.275 436.144 167.759 444.714 167.982 445.535C168.337 446.842 169.06 447.021 173.773 446.964L179.158 446.898L180.126 440.989C180.658 437.739 182.006 429.198 183.121 422.01L185.148 408.941L185.576 427.985L186.004 447.029H193.918H201.832V416.223L201.833 385.416H190.332C184.006 385.416 178.618 385.717 178.357 386.085C178.097 386.453 177.094 392.25 176.13 398.968C175.166 405.686 174.246 411.518 174.086 411.928C173.554 413.299 172.927 410.527 171.059 398.521C170.039 391.967 169.014 386.339 168.782 386.012C168.551 385.684 163.186 385.416 156.861 385.416H145.36V416.251ZM209.535 416.223L209.536 447.029H218.508H227.482L227.706 422.384L227.931 397.739L234.562 397.521L241.194 397.303V391.359V385.416H225.364H209.534L209.535 416.223ZM246.328 416.305V447.195L254.243 447.046L262.157 446.897L264.032 441.735C265.062 438.896 267.18 433.045 268.738 428.732L271.57 420.89L271.998 433.959L272.425 447.029H279.914H287.402L287.401 416.223L287.4 385.416H279.793H272.186L268.183 396.432C261.492 414.846 261.825 414.71 261.774 399.046L261.73 385.416H254.029H246.328V416.305ZM295.1 416.223L295.101 447.029H304.085H313.069V434.146C313.069 422.122 313.175 421.264 314.648 421.264C318.146 421.264 319.058 423.502 319.08 432.151C319.098 439.737 319.913 445.41 321.137 446.478C321.421 446.726 325.334 446.951 329.833 446.979L338.012 447.029L337.419 444.788C337.092 443.556 336.721 438.309 336.592 433.129C336.449 427.382 335.939 423.026 335.284 421.957C333.705 419.383 330.998 417.646 327.672 417.072L324.733 416.565L328.197 415.367C335.68 412.779 336.515 411.222 336.647 399.606C336.706 394.471 337.039 389.179 337.386 387.843L338.02 385.416H329.853C319.727 385.416 319.722 385.422 319.289 397.365C319.118 402.089 318.803 406.686 318.589 407.582C318.118 409.559 315.958 411.555 314.292 411.555C313.279 411.555 313.069 409.314 313.069 398.486V385.416H304.085H295.1V416.223ZM392.181 386.351C391.955 386.865 391.871 400.692 391.994 417.076L392.218 446.866L400.119 447.043L408.02 447.22L408.248 427.707L408.476 408.194L410.047 417.903C410.911 423.243 412.135 430.468 412.768 433.959C413.399 437.451 414.145 441.82 414.425 443.668L414.933 447.029L420.005 446.908C426.159 446.763 426.872 446.426 426.872 443.66C426.872 441.275 431.824 409.387 432.38 408.194C432.57 407.784 432.758 416.357 432.794 427.247L432.862 447.046L440.777 446.965L448.692 446.882V416.336V385.79L437.025 385.583C423.285 385.339 425.143 383.385 422.621 400.731C421.676 407.221 420.707 412.704 420.465 412.915C420.225 413.125 420.027 412.789 420.027 412.168C420.027 411.547 419.065 405.423 417.888 398.56C416.711 391.696 415.749 385.93 415.749 385.748C415.749 385.566 410.539 385.416 404.171 385.416C395.689 385.416 392.483 385.666 392.181 386.351ZM366.351 398.119C366.738 399.964 366.941 409.467 366.802 419.237C366.533 438.068 366.236 439.346 362.53 437.615C361.1 436.947 360.986 435.392 360.986 416.532C360.986 395.628 361.234 394.023 364.369 394.549C365.14 394.679 365.927 396.097 366.351 398.119ZM86.1478 396.768C87.421 397.879 87.5288 408.088 86.2889 410.111C85.7807 410.939 84.5032 411.555 83.2941 411.555C81.1866 411.555 81.1849 411.55 81.1849 403.713C81.1849 396.029 81.2243 395.872 83.1529 395.872C84.2354 395.872 85.583 396.275 86.1478 396.768ZM51.6646 422.023C50.7234 422.385 45.3327 424.252 39.6853 426.173C20.2515 432.782 7.87178 439.881 2.61888 447.429C0.0561671 451.111 -0.190264 451.964 0.091249 456.157C0.356504 460.112 0.908406 461.446 3.79798 465.119C16.2171 480.904 61.6484 495.659 121.401 503.316C148.015 506.726 152.714 507.214 172.313 508.601C237.895 513.242 300.744 513.128 352.43 508.275C436.101 500.417 497.523 481.178 509.285 459.144C512.259 453.572 512.67 450.594 511.101 445.983C508.61 438.664 499.358 433.094 480.351 427.473C471.726 424.922 457.5 421.262 456.225 421.266C455.847 421.267 458.425 422.945 461.955 424.994C474.108 432.051 479.926 438.393 479.92 444.572C479.904 460.822 438.195 473.433 359.417 481.007C296.55 487.051 192.366 486.896 132.952 480.671C101.179 477.341 73.5122 472.235 55.794 466.43C44.2537 462.648 33.771 455.918 31.6079 450.901C30.2687 447.797 30.5041 443.142 32.1555 440.047C34.0824 436.434 43.4742 428.322 50.2647 424.405C55.2412 421.534 55.9147 420.388 51.6646 422.023Z" fill="#57B8FF"/>
</svg>
